<?xml version="1.0" encoding="UTF-8" standalone="no"?>
<!-- Created with Inkscape (http://www.inkscape.org/) -->

<svg
   xmlns:dc="http://purl.org/dc/elements/1.1/"
   xmlns:cc="http://creativecommons.org/ns#"
   xmlns:rdf="http://www.w3.org/1999/02/22-rdf-syntax-ns#"
   xmlns:svg="http://www.w3.org/2000/svg"
   xmlns="http://www.w3.org/2000/svg"
   xmlns:sodipodi="http://sodipodi.sourceforge.net/DTD/sodipodi-0.dtd"
   xmlns:inkscape="http://www.inkscape.org/namespaces/inkscape"
   width="923.14282"
   height="273.3999"
   id="svg2"
   version="1.1"
   inkscape:version="0.48.5 r10040"
   sodipodi:docname="logo_za_v004.svg">
  <defs
     id="defs4" />
  <sodipodi:namedview
     id="base"
     pagecolor="#ffffff"
     bordercolor="#666666"
     borderopacity="1.0"
     inkscape:pageopacity="0.0"
     inkscape:pageshadow="2"
     inkscape:zoom="0.90776853"
     inkscape:cx="461.57141"
     inkscape:cy="136.69995"
     inkscape:document-units="px"
     inkscape:current-layer="layer1"
     showgrid="false"
     inkscape:window-width="1280"
     inkscape:window-height="972"
     inkscape:window-x="-8"
     inkscape:window-y="22"
     inkscape:window-maximized="1"
     fit-margin-top="20"
     fit-margin-left="30"
     fit-margin-right="30"
     fit-margin-bottom="20" />
  <metadata
     id="metadata7">
    <rdf:RDF>
      <cc:Work
         rdf:about="">
        <dc:format>image/svg+xml</dc:format>
        <dc:type
           rdf:resource="http://purl.org/dc/dcmitype/StillImage" />
        <dc:title />
      </cc:Work>
    </rdf:RDF>
  </metadata>
  <g
     inkscape:label="Layer 1"
     inkscape:groupmode="layer"
     id="layer1"
     transform="translate(-92.71429,-628.3662)">
    <path
       style="fill:none;stroke:#336600;stroke-width:6;stroke-linecap:butt;stroke-linejoin:miter;stroke-miterlimit:4;stroke-opacity:1;stroke-dasharray:none"
       d="m 125.71429,546.95163 c 0,0 276.73857,-91.78651 414.91356,-104.87816 247.4102,-23.44135 442.22929,-12.2647 442.22929,-12.2647"
       id="path2985"
       inkscape:connector-curvature="0"
       transform="translate(0,308.2677)"
       sodipodi:nodetypes="csc" />
    <path
       style="fill:none;stroke:#336600;stroke-width:6;stroke-linecap:butt;stroke-linejoin:miter;stroke-miterlimit:4;stroke-opacity:1;stroke-dasharray:none"
       d="m 411.42857,464.09448 c 0,0 33.47428,-72.88937 75.80383,-90.44307 48.2404,-20.00488 94.40521,-21.54561 139.73909,-12.94493 m 34.81218,9.80864 c 39.75045,17.22705 90.35919,58.57937 90.35919,58.57937"
       id="path2987"
       inkscape:connector-curvature="0"
       transform="translate(0,308.2677)"
       sodipodi:nodetypes="csccc" />
    <path
       style="fill:none;stroke:#336600;stroke-width:6;stroke-linecap:round;stroke-linejoin:miter;stroke-miterlimit:4;stroke-opacity:1;stroke-dasharray:none;marker-start:none"
       d="m 628.14061,669.47023 -0.0508,-18.10403 33.07625,0.0313 0,27.5185"
       id="path2989"
       inkscape:connector-curvature="0"
       sodipodi:nodetypes="cccc" />
    <path
       style="fill:none;stroke:#dd5500;stroke-width:3;stroke-linecap:butt;stroke-linejoin:miter;stroke-miterlimit:4;stroke-opacity:1;stroke-dasharray:none"
       d="m 225.16687,556.2069 c 0,0 138.00259,-41.21171 208.76398,-53.68217 98.36696,-17.33547 198.43528,-24.98628 298.23426,-29.07784 81.45841,-3.33963 244.5521,3.72793 244.5521,3.72793"
       id="path3761"
       inkscape:connector-curvature="0"
       transform="translate(0,308.2677)"
       sodipodi:nodetypes="caac" />
    <path
       style="fill:none;stroke:#dd5500;stroke-width:3;stroke-linecap:butt;stroke-linejoin:miter;stroke-miterlimit:4;stroke-opacity:1;stroke-dasharray:none"
       d="m 365.33697,562.17158 c 0,0 89.82856,-23.42797 135.69659,-29.82342 42.05476,-5.86376 80.91223,-9.65822 123.03329,-11.68737 m 55.88777,-1.64351 c 13.71672,-0.1908 27.6198,-0.21748 41.77229,-0.0897 14.61829,0.13202 38.64053,4.82149 55.17334,11.92938 18.37408,7.89949 23.95315,6.38514 34.29694,1.49117 6.73958,-3.18871 6.21017,-15.99659 13.42054,-17.89406 50.79693,-13.36766 149.11714,-11.92937 149.11714,-11.92937"
       id="path3763"
       inkscape:connector-curvature="0"
       transform="translate(0,308.2677)"
       sodipodi:nodetypes="csccssasc" />
    <path
       style="fill:none;stroke:#dd5500;stroke-width:3;stroke-linecap:butt;stroke-linejoin:miter;stroke-miterlimit:4;stroke-opacity:1;stroke-dasharray:none"
       d="m 517.43644,568.13627 c 0,0 58.77831,-11.53704 120.77069,-18.0295 m 58.13423,-4.1248 c 15.8554,-0.44223 30.65164,-0.12659 43.27961,1.2779 23.90217,2.65841 44.84241,18.59286 68.59388,22.36757 9.32703,1.4823 20.02825,4.49826 28.33225,0 12.00105,-6.50095 10.74439,-27.14228 22.36757,-34.29694 11.4992,-7.07835 29.41051,-10.3893 40.26163,-4.47351 11.45537,6.24521 25.62521,17.79546 37.27928,11.92936 22.15525,-11.15189 35.78811,-5.96468 35.78811,-5.96468"
       id="path3765"
       inkscape:connector-curvature="0"
       transform="translate(0,308.2677)"
       sodipodi:nodetypes="cccsaaassc" />
    <path
       style="fill:none;stroke:#dd5500;stroke-width:3;stroke-linecap:butt;stroke-linejoin:miter;stroke-miterlimit:4;stroke-opacity:1;stroke-dasharray:none"
       d="m 645.67718,562.17158 -25.34992,-51.44541 49.95424,-10.4382 32.06019,60.39244"
       id="path3767"
       inkscape:connector-curvature="0"
       transform="translate(0,308.2677)"
       sodipodi:nodetypes="cccc" />
    <path
       style="fill:none;stroke:#dd5500;stroke-width:3;stroke-linecap:butt;stroke-linejoin:miter;stroke-miterlimit:4;stroke-opacity:1;stroke-dasharray:none"
       d="m 630.01988,529.36582 c 11.18378,-2.98235 20.13081,-5.96469 20.13081,-5.96469"
       id="path3769"
       inkscape:connector-curvature="0"
       transform="translate(0,308.2677)"
       sodipodi:nodetypes="cc" />
    <path
       style="fill:none;stroke:#dd5500;stroke-width:3;stroke-linecap:butt;stroke-linejoin:miter;stroke-miterlimit:4;stroke-opacity:1;stroke-dasharray:none"
       d="m 642.69483,554.71573 19.07639,-6.05514"
       id="path3771"
       inkscape:connector-curvature="0"
       transform="translate(0,308.2677)"
       sodipodi:nodetypes="cc" />
    <path
       style="fill:none;stroke:#dd5500;stroke-width:3;stroke-linecap:butt;stroke-linejoin:miter;stroke-miterlimit:4;stroke-opacity:1;stroke-dasharray:none"
       d="m 666.55357,842.58125 18.54919,-5.00073"
       id="path3773"
       inkscape:connector-curvature="0"
       sodipodi:nodetypes="cc" />
    <text
       xml:space="preserve"
       style="font-size:32px;font-style:normal;font-variant:normal;font-weight:normal;font-stretch:normal;line-height:125%;letter-spacing:0px;word-spacing:0px;fill:#5599dd;fill-opacity:1;stroke:none;font-family:Open Sans;-inkscape-font-specification:Open Sans"
       x="123.7672"
       y="734.74261"
       id="text3775"
       sodipodi:linespacing="125%"><tspan
         sodipodi:role="line"
         id="tspan3777"
         x="123.7672"
         y="734.74261">ŽA + ŽB / ČECHY</tspan></text>
    <text
       xml:space="preserve"
       style="font-size:32px;font-style:normal;font-variant:normal;font-weight:normal;font-stretch:normal;line-height:125%;letter-spacing:0px;word-spacing:0px;fill:#5599dd;fill-opacity:1;stroke:none;font-family:Open Sans;-inkscape-font-specification:Open Sans"
       x="122.27605"
       y="681.06055"
       id="text3779"
       sodipodi:linespacing="125%"
       inkscape:transform-center-x="14.911713"><tspan
         sodipodi:role="line"
         id="tspan3781"
         x="122.27605"
         y="681.06055"
         style="font-size:32px;font-style:normal;font-variant:normal;font-weight:normal;font-stretch:normal;fill:#5599dd;font-family:Open Sans;-inkscape-font-specification:Open Sans;fill-opacity:1">MARŠOVY / CHODY</tspan></text>
    <text
       xml:space="preserve"
       style="font-size:32px;font-style:normal;font-variant:normal;font-weight:normal;font-stretch:normal;line-height:125%;letter-spacing:0px;word-spacing:0px;fill:#5599dd;fill-opacity:1;stroke:none;font-family:Open Sans;-inkscape-font-specification:Open Sans"
       x="121.94527"
       y="788.86163"
       id="text3783"
       sodipodi:linespacing="125%"><tspan
         sodipodi:role="line"
         id="tspan3785"
         x="121.94527"
         y="788.86163">5 + 6 / 9 / 15</tspan></text>
  </g>
</svg>
