<?xml version="1.0" encoding="UTF-8" standalone="no"?>
<!-- Generator: OCAD Version 10.3.0 -->

<svg
   xmlns:dc="http://purl.org/dc/elements/1.1/"
   xmlns:cc="http://creativecommons.org/ns#"
   xmlns:rdf="http://www.w3.org/1999/02/22-rdf-syntax-ns#"
   xmlns:svg="http://www.w3.org/2000/svg"
   xmlns="http://www.w3.org/2000/svg"
   xmlns:sodipodi="http://sodipodi.sourceforge.net/DTD/sodipodi-0.dtd"
   xmlns:inkscape="http://www.inkscape.org/namespaces/inkscape"
   id="mainMap"
   width="3.5910cm"
   height="2.5040cm"
   viewBox="0 0 35.9100 25.0400"
   style="fill:none;stroke-width:0;fill-rule:evenodd"
   version="1.1"
   inkscape:version="0.48.5 r10040"
   sodipodi:docname="mlok.svg">
  <metadata
     id="metadata103">
    <rdf:RDF>
      <cc:Work
         rdf:about="">
        <dc:format>image/svg+xml</dc:format>
        <dc:type
           rdf:resource="http://purl.org/dc/dcmitype/StillImage" />
      </cc:Work>
    </rdf:RDF>
  </metadata>
  <defs
     id="defs101" />
  <sodipodi:namedview
     pagecolor="#ffffff"
     bordercolor="#666666"
     borderopacity="1"
     objecttolerance="10"
     gridtolerance="10"
     guidetolerance="10"
     inkscape:pageopacity="0"
     inkscape:pageshadow="2"
     inkscape:window-width="1280"
     inkscape:window-height="972"
     id="namedview99"
     showgrid="false"
     inkscape:zoom="2.4834927"
     inkscape:cx="63.620079"
     inkscape:cy="44.362206"
     inkscape:window-x="-8"
     inkscape:window-y="22"
     inkscape:window-maximized="1"
     inkscape:current-layer="mainMapContent" />
  <desc
     id="desc3">Map</desc>
  <g
     id="scaleTransform"
     transform="scale(1.00000000)">
    <g
       id="mainMapContent">
      <!-- map fill color -->
      <g
         id="g8">
        <clipPath
           id="Clip"
           fill="none"
           stroke="none">
          <rect
             x="0"
             y="0"
             width="35.9100"
             height="25.0400"
             id="rect11"
             fill="none" />
        </clipPath>
        <g
           clip-path="url(#Clip)"
           id="g13">
          <g
             id="g15"
             opacity="1.00">
            <g
               id="991.0 Yellow for symbols 2">
              <g
                 id="g18"
                 stroke="rgb(255,255,0)">
                <g
                   id="g20"
                   fill="rgb(255,255,0)">
                  <path
                     d="M5.56,6.92 C5.20,6.94 5.00,6.82 4.68,6.96 C3.92,7.30 3.32,7.17 2.80,7.80 C2.48,8.19 2.18,8.31 1.91,8.72 C1.50,9.34 0.70,9.64 1.00,10.32 C1.25,10.92 1.13,11.40 1.64,11.80 C2.26,12.32 3.02,12.62 3.96,12.46 C5.03,12.29 5.65,12.25 6.64,11.80 C7.69,11.32 8.13,10.80 9.28,10.60 C10.81,10.35 11.62,9.53 13.12,9.96 C15.10,10.54 16.26,10.44 18.08,11.44 C19.12,12.02 19.49,12.74 20.68,12.88 C22.28,13.08 23.09,13.66 24.68,13.36 C25.54,13.20 25.89,13.19 26.77,13.10 C27.92,12.99 28.43,12.70 29.59,12.70 C29.67,12.70 29.71,12.99 29.91,13.02 C30.13,13.06 30.17,12.99 30.47,13.10 C30.75,13.22 30.91,13.34 31.23,13.52 C31.58,13.73 31.80,13.88 32.07,14.06 C32.53,14.41 32.88,14.67 32.96,15.24 C33.00,15.61 33.06,15.80 33.04,16.16 C33.00,16.74 33.07,17.04 32.96,17.60 C32.88,17.99 32.94,18.22 32.76,18.56 C32.48,19.08 32.40,19.40 31.97,19.76 C31.61,20.08 31.35,20.28 30.96,20.64 C30.60,20.96 30.46,21.17 30.06,21.42 C29.19,21.97 28.82,22.26 27.96,22.80 C27.57,23.04 27.25,23.03 27.00,23.40 C26.88,23.56 26.79,23.63 26.72,23.80 C26.67,23.92 26.44,24.16 26.57,24.12 C27.13,23.98 27.31,23.89 27.85,23.76 C28.38,23.64 28.75,23.61 29.27,23.42 C29.99,23.17 30.31,23.00 31.04,22.72 C31.45,22.55 31.66,22.40 32.00,22.08 C32.44,21.67 32.72,21.52 33.12,21.04 C33.87,20.16 34.45,19.80 34.80,18.72 C35.02,17.99 35.15,17.62 35.20,16.84 C35.21,16.51 35.15,16.34 35.16,16.00 C35.17,15.27 35.33,14.80 35.20,14.16 C35.02,13.41 34.83,12.99 34.28,12.44 C33.89,12.04 33.69,11.87 33.27,11.52 C32.79,11.14 32.54,10.92 32.00,10.64 C31.42,10.36 31.17,10.10 30.56,9.92 C29.21,9.54 28.51,9.40 27.12,9.36 C26.43,9.35 26.04,9.56 25.40,9.32 C23.72,8.70 22.49,8.25 20.92,7.40 C20.40,7.16 20.16,7.02 19.49,6.76 C18.84,6.50 18.81,5.87 18.16,5.64 C17.21,5.30 16.69,4.91 15.68,5.04 C14.00,5.27 13.09,5.09 11.48,5.60 C10.52,5.91 10.05,6.12 9.08,6.36 C8.88,6.41 8.75,6.36 8.60,6.48 C8.37,6.68 8.30,6.92 8.01,6.92 C7.62,6.92 7.44,7.07 7.08,6.96 "
                     id="path22" />
                </g>
              </g>
            </g>
          </g>
          <g
             id="g24"
             opacity="1.00">
            <g
               id="302.0 Pond 1">
              <g
                 id="g27"
                 stroke="rgb(0,0,255)">
                <g
                   id="g29"
                   fill="rgb(0,0,255)">
                  <path
                     d="M5.66,10.22 C5.54,10.10 5.58,9.84 5.42,9.82 C5.06,9.79 4.86,9.74 4.54,9.58 C4.35,9.48 4.14,9.40 4.18,9.18 C4.18,8.90 4.62,8.78 4.90,8.62 C5.20,8.41 5.14,8.10 5.42,7.82 C5.46,7.74 5.82,7.66 6.06,7.66 C6.47,7.66 6.65,7.88 7.02,8.06 C7.14,8.14 7.42,8.37 7.50,8.66 C7.54,8.98 7.56,9.37 7.30,9.70 C7.06,10.01 7.06,10.36 6.70,10.46 C6.42,10.58 5.98,10.58 5.70,10.30 "
                     id="path31" />
                </g>
                <g
                   id="g33"
                   fill="rgb(0,0,255)">
                  <path
                     d="M2.54,8.46 C2.32,8.62 2.03,8.55 2.06,8.38 C2.06,8.22 1.97,7.78 2.18,7.66 C2.46,7.48 2.64,7.42 2.98,7.42 C3.28,7.41 3.52,7.30 3.82,7.18 C4.07,7.09 4.26,6.92 4.54,6.86 C4.78,6.82 5.10,6.98 4.82,7.10 C4.62,7.20 4.52,7.51 4.34,7.58 C4.10,7.74 3.93,7.67 3.70,7.70 C3.38,7.75 3.38,7.69 3.02,7.90 C2.80,8.02 2.58,7.98 2.50,8.26 "
                     id="path35" />
                </g>
                <g
                   id="g37"
                   fill="rgb(0,0,255)">
                  <path
                     d="M1.46,9.88 C1.56,9.74 1.53,9.68 1.70,9.46 C1.76,9.36 1.87,9.28 1.98,8.98 C2.02,8.82 2.16,8.61 2.06,8.56 C1.94,8.50 1.81,8.66 1.62,8.82 C1.34,9.02 1.20,9.16 0.98,9.50 C0.83,9.73 0.60,10.00 0.58,10.26 C0.50,10.70 0.66,11.02 0.86,11.30 C1.19,11.71 1.34,11.95 1.82,12.18 C2.04,12.34 2.27,12.56 2.54,12.51 L2.66,12.58  C3.16,12.62 3.65,12.62 4.30,12.62 C5.08,12.66 5.57,12.50 6.30,12.26 C7.06,12.06 7.42,11.70 8.26,11.18 C8.74,10.91 9.00,10.82 9.56,10.66 C9.94,10.54 10.18,10.34 10.50,10.18 C10.70,10.07 10.88,9.66 10.90,9.42 C10.93,8.85 10.95,8.29 10.94,7.70 C10.92,7.06 10.65,6.88 10.36,6.74 C10.10,6.66 9.86,6.48 10.02,6.26 C10.12,6.06 10.64,5.98 11.06,5.98 C11.44,6.02 11.82,5.99 12.04,5.62 C12.32,5.14 12.82,4.87 12.78,4.30 C12.78,3.78 12.24,3.25 11.86,2.86 L11.48,2.58  C11.12,2.30 10.86,2.14 10.74,1.86 C10.64,1.62 10.93,1.54 10.94,1.26 C10.94,1.07 11.10,0.86 10.98,0.70 C10.77,0.50 10.72,0.54 10.42,0.66 C10.18,0.77 10.37,1.12 10.26,1.34 C10.14,1.62 9.90,1.66 9.64,1.70 C9.29,1.70 9.30,1.34 8.92,1.22 C8.72,1.18 8.45,1.04 8.44,1.22 C8.38,1.46 8.36,1.75 8.66,1.94 C8.74,2.02 9.26,2.14 9.32,2.26 C9.35,2.47 9.42,2.70 9.16,2.74 C8.87,2.74 8.58,2.74 8.38,2.90 C8.18,3.10 8.26,3.38 8.58,3.58 C8.72,3.66 8.87,3.58 9.02,3.50 C9.27,3.38 9.38,3.06 9.58,3.18 C9.81,3.37 9.66,3.73 9.62,4.02 C9.56,4.14 9.93,4.21 10.10,4.18 C10.38,4.14 10.22,3.58 10.26,3.46 C10.37,3.24 10.76,3.86 10.82,4.26 C10.84,4.80 10.50,5.06 10.04,5.30 C9.56,5.56 9.05,5.44 8.84,5.94 C8.74,6.17 8.35,6.50 8.60,6.50 C8.76,6.50 9.03,6.35 9.00,6.50 C8.87,7.06 8.57,7.30 8.60,7.86 C8.62,8.34 8.75,8.62 9.08,8.98 C9.33,9.27 10.09,9.60 9.72,9.70 C9.46,9.78 9.33,9.95 9.08,9.86 C8.88,9.80 8.67,9.89 8.60,9.70 C8.44,9.32 8.07,8.38 7.90,8.42 C7.62,8.50 8.22,9.49 7.96,9.86 C7.80,10.09 7.56,10.15 7.56,10.42 C7.56,10.71 7.70,10.96 7.48,11.14 C7.15,11.41 6.96,11.54 6.58,11.58 C6.27,11.61 6.32,11.53 6.04,11.42 C5.78,11.33 5.62,11.15 5.40,11.28 C5.14,11.40 5.08,11.67 4.84,11.78 C4.64,11.88 4.57,11.97 4.40,11.76 C4.32,11.64 4.22,11.30 3.92,11.22 C3.64,11.15 3.34,11.08 3.22,11.10 C2.92,11.16 2.62,11.48 2.40,11.70 C2.21,11.91 1.93,11.46 1.66,11.30 C1.30,11.05 1.20,10.66 1.24,10.34 C1.25,10.15 1.36,9.99 1.46,9.88 L1.46,9.88 M2.80,11.98 C2.80,12.20 3.13,12.34 3.44,12.32 C3.74,12.31 3.95,12.10 3.94,11.88 C3.94,11.68 3.56,11.50 3.26,11.52 C2.95,11.53 2.79,11.75 2.80,11.96 "
                     id="path39" />
                </g>
                <g
                   id="g41"
                   fill="rgb(0,0,255)">
                  <path
                     d="M5.78,6.62 C5.60,6.67 5.30,6.58 5.18,6.78 C5.13,6.90 5.22,7.09 5.34,7.10 C5.62,7.14 6.02,6.98 6.30,6.98 C6.66,7.04 6.88,6.97 7.22,7.14 C7.49,7.29 7.70,7.50 7.90,7.50 C8.01,7.48 8.13,7.41 8.10,7.30 C8.04,7.15 8.05,6.97 7.90,6.94 C7.50,6.86 7.32,7.03 6.98,6.90 C6.70,6.81 6.42,6.57 6.14,6.54 "
                     id="path43" />
                </g>
                <g
                   id="g45"
                   fill="rgb(0,0,255)">
                  <path
                     d="M9.37,11.23 C9.72,11.36 10.00,11.45 10.41,11.74 C10.68,11.96 10.77,12.18 10.82,12.54 C10.83,12.75 10.68,12.94 10.51,13.00 C9.99,13.17 9.69,13.10 9.26,13.10 C9.05,13.10 8.78,13.06 8.82,12.86 C8.85,12.67 8.91,12.58 8.90,12.38 C8.91,12.26 8.89,12.12 8.78,12.06 C8.60,12.00 8.30,12.01 8.29,12.18 C8.26,12.30 8.31,12.46 8.45,12.60 C8.52,12.70 8.46,12.82 8.39,12.90 C8.23,13.07 8.16,13.06 8.03,13.16 C7.85,13.28 7.63,13.24 7.51,13.16 C7.40,13.08 7.34,12.98 7.21,12.98 C6.92,13.00 6.61,12.94 6.57,13.08 C6.47,13.31 6.65,13.54 6.89,13.58 C7.13,13.63 7.35,13.58 7.54,13.66 C7.69,13.75 7.85,13.82 7.82,13.98 C7.73,14.25 7.67,14.35 7.41,14.40 C7.09,14.47 6.85,14.52 6.58,14.66 C6.43,14.72 6.23,14.82 6.37,15.06 C6.46,15.20 6.67,15.38 6.78,15.34 C6.91,15.28 7.17,15.00 7.35,14.86 C7.57,14.73 7.92,14.79 7.94,14.90 C7.95,15.18 7.71,15.38 7.74,15.70 C7.77,15.92 7.89,16.26 8.17,16.20 C8.39,16.14 8.33,15.78 8.38,15.54 C8.47,15.22 8.66,15.07 8.98,14.94 C9.64,14.68 9.94,14.48 10.65,14.34 C11.14,14.25 11.45,14.32 11.90,14.10 C12.17,13.96 12.37,13.83 12.38,13.50 C12.37,13.02 12.17,12.72 12.06,12.26 C11.97,11.85 11.88,11.60 11.92,11.20 C12.05,11.14 12.19,11.04 12.34,10.98 C12.94,10.74 13.50,10.74 14.46,10.74 C14.70,10.78 14.76,10.55 14.86,10.42 C15.12,10.07 14.98,9.78 14.90,9.34 C14.87,9.09 14.92,9.00 14.98,8.74 C15.10,8.34 15.54,8.02 15.66,7.70 C15.82,7.38 15.90,7.18 15.90,6.90 C15.94,6.60 15.94,6.42 15.98,6.10 C16.01,5.79 15.64,5.77 15.42,5.54 C15.29,5.42 15.63,5.38 15.78,5.26 C15.98,5.11 16.16,5.14 16.42,5.22 C16.78,5.38 16.99,5.37 17.38,5.46 C17.65,5.54 17.72,5.61 18.01,5.62 C18.10,5.63 18.09,5.44 18.03,5.36 C17.87,5.18 17.64,5.13 17.34,5.06 C16.95,4.98 16.76,4.98 16.38,4.90 C15.69,4.76 15.32,4.93 14.62,4.94 C14.28,4.95 14.03,4.98 13.70,5.02 C13.13,5.11 12.82,5.21 12.26,5.30 C11.92,5.36 11.90,5.50 11.58,5.62 C11.47,5.67 11.60,5.79 11.62,5.90 C11.64,6.06 11.83,5.83 11.98,5.78 C12.19,5.71 12.29,5.64 12.50,5.54 C12.83,5.39 13.05,5.52 13.42,5.50 C13.56,5.50 13.48,5.73 13.46,5.86 C13.38,6.10 13.14,5.94 12.94,5.98 C12.47,6.09 12.43,6.49 12.10,6.82 C11.93,6.99 12.10,7.18 12.10,7.42 C12.09,7.78 12.41,7.86 12.62,8.14 C12.85,8.47 13.19,8.34 13.58,8.46 C13.80,8.54 13.62,8.82 13.66,9.06 C13.67,9.21 13.47,9.22 13.34,9.22 C12.94,9.18 12.82,8.98 12.38,8.98 C12.01,8.95 11.76,9.35 11.46,9.54 C11.07,9.79 10.91,9.78 10.83,9.52 L8.38,10.82  C8.48,11.09 8.76,11.02 9.02,11.14 C9.15,11.21 9.26,11.23 9.38,11.23 "
                     id="path47" />
                </g>
                <g
                   id="g49"
                   fill="rgb(0,0,255)">
                  <path
                     d="M14.67,9.10 C14.85,9.40 14.94,9.51 15.31,9.54 C15.57,9.56 15.75,9.28 16.03,9.28 C16.31,9.30 16.12,9.65 16.43,9.80 C16.57,9.88 17.03,9.90 17.11,9.66 C17.23,9.20 17.29,8.78 17.17,8.56 C17.06,8.37 16.94,8.18 16.99,7.90 C17.10,7.44 17.14,7.15 17.59,6.86 C17.77,6.66 18.06,6.72 18.11,6.46 C18.14,6.19 18.23,6.13 18.11,5.88 C18.05,5.74 17.80,5.56 17.69,5.44 C17.62,5.35 17.81,5.12 17.91,5.22 C18.15,5.46 18.50,5.45 18.77,5.68 C19.27,6.14 19.52,6.28 20.04,6.68 C20.26,6.86 20.82,6.95 20.60,7.12 C20.50,7.20 20.46,7.30 20.36,7.28 C20.01,7.22 19.59,7.11 19.55,7.28 C19.49,7.60 19.49,7.90 19.43,8.26 C19.33,8.69 19.11,8.83 19.05,9.06 C18.99,9.36 18.97,9.62 18.61,9.90 C18.49,10.00 18.09,10.08 18.00,10.20 C17.83,10.46 17.95,10.70 18.21,10.84 C18.44,10.98 18.66,11.04 19.03,11.04 C19.17,11.04 19.41,10.94 19.45,11.08 C19.49,11.31 19.66,11.52 19.56,11.72 C19.40,12.04 19.45,12.33 19.16,12.52 C18.93,12.68 18.69,12.90 18.48,12.72 C17.93,12.31 17.49,12.26 16.96,11.92 C16.37,11.53 16.23,11.26 15.64,11.04 C15.25,10.88 15.00,10.78 14.56,10.72 "
                     id="path51" />
                </g>
                <g
                   id="g53"
                   fill="rgb(0,0,255)">
                  <path
                     d="M20.30,7.16 C20.51,7.26 20.69,7.20 20.69,7.38 C20.69,7.61 20.67,7.75 20.75,7.96 C20.80,8.16 20.81,8.28 20.98,8.28 C21.10,8.27 21.08,8.01 21.21,8.02 C21.46,8.06 21.58,7.96 21.77,8.14 C21.93,8.31 22.05,8.44 22.22,8.48 C22.69,8.59 23.04,8.80 23.49,8.64 C23.77,8.56 24.23,8.72 24.22,8.44 C24.20,8.28 24.16,8.12 24.07,8.02 C23.85,7.83 23.89,7.64 23.81,7.36 C23.68,6.95 23.60,6.78 23.50,6.36 C23.45,6.14 23.26,5.96 23.21,5.86 C23.05,5.49 23.04,5.30 23.07,4.92 C23.09,4.72 23.11,4.63 23.22,4.44 C23.31,4.30 23.43,4.14 23.30,4.00 C23.21,3.93 23.07,3.88 22.97,3.98 C22.76,4.16 22.83,4.36 22.74,4.56 C22.65,4.78 22.54,5.02 22.35,5.02 C22.02,5.02 21.88,4.93 21.63,4.74 C21.33,4.54 21.15,4.44 21.09,4.16 C21.06,4.00 21.06,3.74 20.93,3.66 C20.77,3.59 20.46,3.59 20.46,3.76 C20.43,3.98 20.55,4.23 20.67,4.38 C20.81,4.60 21.01,4.68 21.15,4.92 C21.29,5.18 21.51,5.20 21.50,5.40 C21.49,5.62 21.47,5.76 21.33,5.80 C21.14,5.83 20.94,5.76 20.77,5.72 C20.47,5.68 20.22,5.73 19.83,5.46 C19.65,5.36 19.45,5.28 19.34,5.32 C19.19,5.40 19.01,5.59 19.11,5.70 C19.35,6.00 19.46,6.00 20.07,6.02 C20.45,6.05 20.65,6.06 20.95,6.20 C21.05,6.26 21.20,6.42 21.29,6.52 C21.43,6.74 21.05,6.94 21.26,7.08 C21.43,7.22 21.57,7.26 21.66,7.24 C21.90,7.20 21.96,6.78 22.15,6.90 C22.23,6.97 22.25,7.16 22.29,7.26 C22.37,7.51 22.46,7.68 22.49,7.76 C22.53,7.91 22.40,8.11 22.30,8.00 C21.95,7.70 21.61,7.62 21.27,7.38 C21.06,7.23 20.81,7.14 20.57,7.02 "
                     id="path55" />
                </g>
                <g
                   id="g57"
                   fill="rgb(0,0,255)">
                  <path
                     d="M22.10,8.32 C22.16,8.60 22.46,8.81 22.26,9.00 C21.85,9.39 21.52,9.48 21.26,9.96 C21.03,10.37 20.85,10.56 20.74,11.00 C20.66,11.31 20.85,11.76 20.54,11.76 C20.20,11.76 19.99,11.93 19.70,11.76 C19.43,11.62 19.22,11.22 19.02,11.44 C18.80,11.68 18.34,11.71 18.46,12.00 C18.59,12.37 18.38,12.74 18.73,12.92 C19.15,13.16 19.48,13.30 20.03,13.38 C20.81,13.51 21.09,13.60 21.89,13.56 C22.36,13.52 22.77,13.62 23.17,13.78 C23.60,13.97 23.77,14.11 24.26,14.12 C24.81,14.14 25.20,14.26 25.47,13.88 C25.63,13.62 25.84,13.54 26.18,13.36 C26.35,13.28 26.53,13.05 26.41,13.04 C26.05,13.03 25.81,13.13 25.51,13.10 C25.05,13.08 24.83,13.04 24.49,12.84 C24.21,12.69 24.12,12.44 23.99,12.40 C23.70,12.36 23.44,12.49 23.17,12.58 C22.91,12.67 22.87,12.91 22.70,12.80 C22.45,12.64 22.18,12.44 22.25,12.26 C22.44,11.87 22.89,11.84 23.22,11.52 C23.46,11.26 23.50,11.04 23.55,10.72 C23.57,10.44 23.25,10.42 23.31,10.12 C23.35,9.82 23.20,9.50 23.35,9.30 C23.53,9.08 23.88,9.04 24.09,9.08 C24.40,9.17 24.51,9.36 24.78,9.44 C25.16,9.59 25.40,9.58 25.82,9.56 C26.10,9.56 26.55,9.53 26.81,9.52 C27.52,9.53 27.73,9.56 28.05,9.56 C28.27,9.58 28.69,9.81 28.89,9.94 C29.13,10.10 29.21,10.12 29.50,10.24 C29.88,10.38 30.45,10.46 30.67,10.32 C30.77,10.26 30.75,9.99 30.67,9.90 C30.49,9.74 30.03,9.61 29.49,9.50 C28.99,9.41 28.64,9.28 28.15,9.28 C27.87,9.30 27.29,9.20 26.47,9.06 C26.17,9.02 25.38,9.12 25.17,9.00 C24.59,8.68 24.27,8.30 24.15,8.24 "
                     id="path59" />
                </g>
                <g
                   id="g61"
                   fill="rgb(0,0,255)">
                  <path
                     d="M22.09,13.48 C22.45,13.52 22.69,13.75 22.75,14.00 C22.79,14.26 22.93,14.60 23.05,14.74 C23.15,14.85 23.40,15.07 23.21,15.22 C23.11,15.32 22.94,15.34 22.71,15.30 C22.41,15.28 22.32,15.22 22.05,15.04 C21.82,14.88 21.69,14.64 21.48,14.60 C21.30,14.59 21.08,14.72 21.09,14.88 C21.08,15.12 21.27,15.31 21.49,15.36 C21.87,15.46 22.12,15.52 22.37,15.66 C22.53,15.77 22.56,15.86 22.56,16.04 C22.57,16.28 22.44,16.40 22.29,16.46 C21.92,16.61 21.73,16.58 21.35,16.64 C21.15,16.68 20.95,16.80 20.96,16.92 C21.00,17.11 21.24,17.22 21.41,17.18 C21.67,17.13 21.74,16.96 21.99,16.94 C22.21,16.93 22.38,17.04 22.61,17.06 C22.91,17.10 23.24,17.22 23.21,17.38 C23.14,17.76 22.99,18.02 23.09,18.32 C23.15,18.50 23.54,18.51 23.59,18.36 C23.69,17.96 23.59,17.50 23.84,17.24 C23.97,17.09 24.15,17.13 24.37,17.16 C24.64,17.21 24.85,17.38 25.04,17.24 C25.19,17.14 25.40,17.02 25.31,16.88 C25.10,16.68 24.79,16.84 24.69,16.50 C24.57,16.17 25.17,15.81 25.03,15.52 C24.89,15.26 24.65,15.00 24.75,14.70 C24.84,14.40 24.98,14.31 25.23,14.10 C25.42,13.96 25.25,13.78 25.12,13.64 "
                     id="path63" />
                </g>
                <g
                   id="g65"
                   fill="rgb(0,0,255)">
                  <path
                     d="M25.77,10.00 C25.37,9.94 25.10,10.08 24.85,10.44 C24.70,10.67 24.59,10.93 24.57,11.18 C24.52,11.52 24.53,11.84 24.89,12.00 C25.45,12.28 25.75,12.36 26.34,12.32 C27.07,12.30 27.60,12.38 28.19,12.30 C28.52,12.27 28.89,12.26 28.94,11.88 C28.98,11.37 28.83,10.92 28.59,10.62 C28.22,10.20 27.86,10.14 27.47,10.08 C26.79,9.98 26.45,9.92 25.94,10.00 "
                     id="path67" />
                </g>
                <g
                   id="g69"
                   fill="rgb(0,0,255)">
                  <path
                     d="M26.95,13.06 C26.77,13.08 26.57,13.20 26.54,13.04 C26.52,12.87 26.71,12.82 26.90,12.76 C27.27,12.69 27.48,12.84 27.86,12.76 C28.24,12.68 28.43,12.60 28.82,12.56 C29.08,12.55 29.13,12.32 29.42,12.28 C29.66,12.27 29.81,12.31 30.02,12.44 C30.15,12.54 30.50,13.05 30.25,13.08 C30.11,13.08 29.89,13.08 29.75,13.02 C29.59,12.97 29.37,12.78 29.22,12.84 C29.01,12.93 28.92,13.04 28.70,13.04 C28.07,13.06 27.79,13.10 27.17,13.10 "
                     id="path71" />
                </g>
                <g
                   id="g73"
                   fill="rgb(0,0,255)">
                  <path
                     d="M32.91,11.14 C32.39,10.88 31.97,11.08 31.66,11.24 C31.30,11.41 31.17,11.70 31.21,12.12 C31.27,12.56 31.23,12.72 31.18,13.12 C31.16,13.34 31.19,13.56 31.42,13.68 C31.64,13.78 31.88,13.89 32.05,13.82 C32.34,13.72 32.55,13.56 32.85,13.24 C33.09,12.96 33.43,12.94 33.47,12.70 C33.53,12.31 33.59,11.90 33.41,11.52 "
                     id="path75" />
                </g>
                <g
                   id="g77"
                   fill="rgb(0,0,255)">
                  <path
                     d="M35.26,14.32 C34.77,14.46 34.56,14.36 34.10,14.36 C33.77,14.38 33.51,14.58 33.22,14.76 C33.04,14.87 32.79,14.90 32.94,15.24 C33.07,15.59 33.01,15.94 32.98,16.36 C32.96,16.59 33.30,16.79 33.62,16.88 C33.83,16.96 34.14,17.19 34.41,17.02 C34.73,16.80 35.23,17.24 35.26,16.84 C35.27,16.29 35.41,15.16 35.31,14.76 "
                     id="path79" />
                </g>
                <g
                   id="g81"
                   fill="rgb(0,0,255)">
                  <path
                     d="M32.78,18.40 C32.60,18.77 32.47,19.04 32.25,19.32 C32.08,19.52 31.76,19.92 32.01,19.94 C32.34,19.98 32.56,19.92 32.79,19.98 C33.01,20.06 33.08,20.36 33.07,20.48 C33.04,20.77 32.86,20.98 33.03,21.20 C33.12,21.34 33.31,21.04 33.41,20.92 C33.84,20.38 34.13,20.22 34.38,19.56 C34.47,19.34 34.58,19.11 34.38,18.88 C33.89,18.36 33.51,18.40 33.13,18.42 "
                     id="path83" />
                </g>
                <g
                   id="g85"
                   fill="rgb(0,0,255)">
                  <path
                     d="M30.38,21.12 C29.65,21.50 29.34,21.69 28.86,22.00 C28.19,22.42 27.70,22.55 27.06,23.08 C26.76,23.33 26.56,23.36 26.29,23.62 C26.08,23.80 25.91,24.04 25.89,24.32 C25.88,24.44 26.01,24.46 26.15,24.50 C26.38,24.54 26.50,24.32 26.73,24.14 C27.01,23.92 27.02,23.54 27.29,23.46 C27.42,23.43 27.54,23.56 27.67,23.62 C27.77,23.68 28.00,23.78 28.11,23.76 C28.33,23.73 28.65,23.63 28.46,23.52 C28.25,23.42 28.04,23.39 28.14,23.24 C28.28,23.02 28.30,22.96 28.47,22.76 C28.64,22.58 28.88,22.48 29.09,22.52 C29.30,22.59 29.26,22.90 29.51,22.96 C29.86,23.02 30.18,23.01 30.55,22.96 C30.73,22.96 30.87,22.90 31.09,22.74 C31.27,22.61 31.64,22.54 31.50,22.36 C31.42,22.27 31.42,22.14 31.30,22.12 C31.04,22.09 30.76,22.24 30.66,22.00 C30.56,21.80 30.41,21.71 30.42,21.48 "
                     id="path87" />
                </g>
                <g
                   id="g89"
                   fill="rgb(0,0,255)">
                  <path
                     d="M30.68,20.82 C30.59,21.04 30.49,21.02 30.63,21.12 C30.75,21.22 30.95,21.14 31.06,21.00 C31.15,20.88 31.24,20.68 31.12,20.58 C30.98,20.48 30.81,20.68 30.72,20.80 "
                     id="path91" />
                </g>
                <g
                   id="g93"
                   fill="rgb(0,0,255)">
                  <path
                     d="M31.77,21.68 C31.70,21.84 31.60,22.13 31.75,22.20 C31.90,22.26 32.05,22.12 32.25,21.98 C32.37,21.89 32.32,21.59 32.17,21.53 C32.02,21.46 31.83,21.54 31.77,21.68 "
                     id="path95" />
                </g>
              </g>
            </g>
          </g>
          <g
             id="g97"
             opacity="1.00" />
        </g>
      </g>
    </g>
  </g>
</svg>
