<?xml version="1.0" standalone="no"?>
<!-- Generator: OCAD Version 10.3.0 -->
<!DOCTYPE svg PUBLIC "-//W3C//DTD SVG 20010904//EN"
"http://www.w3.org/TR/2001/REC-SVG-20010904/DTD/svg10.dtd" [
<!ENTITY stR "stroke-linejoin:round;stroke-linecap:round">
<!ENTITY stB "stroke-linejoin:bevel">
]>
<svg id="mainMap" width="6.4310cm" height="2.3560cm" viewBox="0 0 64.3100 23.5600" style="fill:none;stroke-width:0;fill-rule:evenodd" xmlns:xlink="http://www.w3.org/1999/xlink" xmlns="http://www.w3.org/2000/svg" >
<desc>Map</desc>
<g id="scaleTransform" transform="scale(1.00000000)">
<g id="mainMapContent">
<!-- map fill color -->
<rect id="mapBg" x="-100%" y="-100%" width="200%" height="200%" fill="white" />
<g>
<clipPath id="Clip" fill="none" stroke="none">
<rect x="0" y="0" width="64.3100" height="23.5600" fill="none" />
</clipPath>
<g clip-path="url(#Clip)">
<g opacity="1.00">
<g id="99.0 reklamy - podklad 399" >
<g stroke="rgb(242,234,217)">
<g fill="rgb(242,234,217)" >
<path 
d="M-40.03,-29.68
100.91,-29.68 
100.91,201.02 
-40.03,201.02 
-40.03,-29.68 
" />
</g>
</g>
</g>
</g>
<g opacity="1.00">
<g id="9.0 reklamy - b\355l\341 doln\355 398" >
<g stroke="rgb(255,255,255)">
<g fill="rgb(255,255,255)" >
<path 
d="M64.22,23.57
0.02,23.57 
0.02,-0.09 
64.22,-0.09 
64.22,23.57 
" />
</g>
</g>
</g>
</g>
<g opacity="1.00">
</g>
<g opacity="1.00">
</g>
<g opacity="1.00">
</g>
<g opacity="1.00">
<g id="4.8 reklamy - modr\341 cyan 100% 340" >
<g stroke="rgb(0,255,255)">
<g fill="rgb(0,255,255)" >
<path 
d="M11.67,4.32
C11.34,4.87 11.19,5.45 11.18,6.15
C11.18,8.04 12.70,9.54 14.56,9.54
L14.56,9.54 
C16.36,9.54 17.82,8.13 17.99,6.41
C17.99,6.32 17.99,6.24 17.99,6.15
C17.99,4.29 16.44,2.74 14.56,2.74
C13.35,2.74 12.22,3.39 11.63,4.41
" />
</g>
<g fill="rgb(0,255,255)" >
<path 
d="M4.62,11.76
4.62,10.29 
C4.62,10.29 7.37,9.78 11.10,9.35
C11.72,9.82 12.70,10.29 13.82,10.29
C15.31,10.29 16.44,9.58 17.07,8.87
L17.07,8.87 
C19.94,8.75 22.52,8.71 23.68,8.71
C24.07,8.71 24.29,8.71 24.28,8.71
L24.28,11.76 
5.57,11.76 
4.62,11.76 
4.62,11.12 
" />
</g>
</g>
</g>
</g>
<g opacity="1.00">
</g>
<g opacity="1.00">
<g id="4.7 reklamy - modr\341 tmav\341 \310SOBpoj 339" >
<g stroke="rgb(0,52,115)">
<g fill="rgb(0,52,115)" >
<path 
d="M8.97,14.84
C8.97,16.15 10.00,16.32 10.79,16.50
C11.18,16.58 11.52,16.67 11.52,16.88
C11.52,17.08 11.16,17.16 10.75,17.16
C10.21,17.16 9.56,17.06 9.13,16.81
L8.99,16.80 
8.99,18.25 
9.07,18.25 
C9.76,18.44 10.36,18.50 11.11,18.50
C11.84,18.50 13.55,18.35 13.53,16.73
C13.53,15.44 12.48,15.23 11.72,15.11
C11.29,15.01 11.00,14.94 11.00,14.75
C11.00,14.52 11.34,14.44 11.72,14.44
C12.21,14.44 12.70,14.55 13.16,14.70
L13.22,14.75 
13.22,13.33 
13.18,13.33 
C12.64,13.21 12.07,13.14 11.56,13.14
C9.81,13.14 8.97,13.72 8.97,14.84
" />
</g>
<g fill="rgb(0,52,115)" >
<path 
d="M13.69,15.79
C13.69,17.52 14.69,18.50 16.44,18.50
C18.27,18.50 19.27,17.52 19.27,15.79
C19.27,14.12 18.27,13.14 16.44,13.14
C14.75,13.14 13.69,14.12 13.69,15.79
L13.69,15.79
M15.77,15.79
C15.77,14.94 16.05,14.44 16.44,14.44
C17.07,14.44 17.19,15.23 17.19,15.79
C17.19,16.48 17.07,17.16 16.44,17.16
C16.05,17.16 15.77,16.72 15.77,15.79
" />
</g>
<g fill="rgb(0,52,115)" >
<path 
d="M19.65,13.21
19.63,13.21 
19.63,18.44 
22.46,18.44 
C23.57,18.44 24.59,18.19 24.59,16.96
C24.59,16.48 24.23,15.94 23.61,15.77
C24.18,15.56 24.50,15.17 24.50,14.55
C24.50,13.72 23.85,13.21 22.70,13.21
L19.65,13.21 
L19.65,13.21
M21.91,16.32
C22.37,16.32 22.54,16.48 22.54,16.80
C22.54,17.18 22.07,17.25 21.91,17.25
C21.91,17.25 21.56,17.25 21.52,17.25
C21.52,17.12 21.52,16.41 21.52,16.32
C21.56,16.32 21.91,16.32 21.91,16.32
L21.91,16.32
M21.96,14.33
C22.33,14.33 22.52,14.44 22.52,14.70
C22.52,15.11 22.15,15.17 21.87,15.17
C21.87,15.17 21.56,15.17 21.52,15.17
C21.52,15.01 21.52,14.42 21.52,14.33
C21.56,14.33 21.96,14.33 21.96,14.33
" />
</g>
<g fill="rgb(0,52,115)" >
<path 
d="M5.90,12.33
5.33,12.85 
5.39,12.91 
C5.39,12.91 5.70,13.18 6.27,13.29
C5.07,13.64 4.45,14.55 4.45,15.75
C4.45,17.44 5.57,18.45 7.37,18.45
C8.01,18.45 8.57,18.35 8.72,18.25
L8.74,18.25 
8.74,16.80 
8.72,16.81 
C8.35,16.96 8.03,17.06 7.68,17.06
C6.87,17.06 6.41,16.56 6.41,15.77
C6.41,15.01 6.95,14.55 7.79,14.55
C8.06,14.55 8.40,14.65 8.66,14.75
L8.74,14.75 
8.74,13.33 
8.64,13.29 
C8.35,13.27 8.14,13.21 7.94,13.18
C8.35,13.00 8.60,12.76 8.72,12.59
L8.74,12.58 
8.57,12.43 
8.53,12.43 
C8.53,12.43 8.11,12.91 7.35,12.91
C6.46,12.91 5.99,12.33 5.99,12.33
L5.96,12.26 
5.90,12.33 
" />
</g>
<g fill="rgb(0,52,115)" >
<path 
d="M28.82,13.91
C29.21,13.91 29.72,13.91 29.72,14.65
C29.72,15.49 29.21,15.56 28.71,15.56
L28.45,15.56 
28.45,13.91 
28.82,13.91 
L28.82,13.91
M28.90,16.27
C29.72,16.27 30.63,15.85 30.63,14.61
C30.63,13.21 29.52,13.21 28.86,13.21
L27.59,13.21 
C27.51,13.21 27.48,13.21 27.47,13.29
L27.47,18.35 
C27.48,18.44 27.51,18.44 27.59,18.44
L28.32,18.44 
C28.40,18.44 28.45,18.44 28.45,18.35
L28.45,16.27 
28.90,16.27 
" />
</g>
<g fill="rgb(0,52,115)" >
<path 
d="M32.53,15.21
C33.10,15.21 33.18,15.85 33.18,16.56
C33.18,17.28 33.10,17.90 32.53,17.90
C31.89,17.90 31.83,17.25 31.83,16.56
C31.83,15.85 31.89,15.21 32.53,15.21
L32.53,15.21
M32.53,18.52
C33.54,18.53 34.16,17.79 34.16,16.56
C34.16,15.36 33.54,14.55 32.53,14.55
C31.46,14.55 30.89,15.36 30.89,16.56
C30.89,17.79 31.46,18.53 32.53,18.53
" />
</g>
<g fill="rgb(0,52,115)" >
<path 
d="M35.05,13.50
C35.05,13.14 35.32,12.91 35.62,12.91
C35.95,12.91 36.25,13.14 36.25,13.50
C36.25,13.81 35.95,14.07 35.62,14.07
C35.32,14.07 35.06,13.81 35.05,13.50
L35.05,13.50
M34.06,20.07
C34.01,20.07 34.01,20.05 34.01,20.05
L34.16,19.48 
C34.22,19.48 34.22,19.48 34.24,19.48
C34.32,19.48 34.34,19.48 34.37,19.50
C34.44,19.50 34.58,19.55 34.72,19.55
C35.19,19.55 35.21,19.07 35.21,18.50
L35.21,15.25 
34.55,15.25 
C34.52,15.28 34.52,15.28 34.52,15.23
L34.52,14.70 
C34.52,14.67 34.52,14.67 34.55,14.67
L36.02,14.67 
C36.11,14.67 36.13,14.67 36.13,14.70
L36.13,18.52 
C36.13,19.64 35.94,20.20 34.82,20.20
C34.44,20.20 34.06,20.13 34.06,20.07
" />
</g>
<g fill="rgb(0,52,115)" >
<path 
d="M37.38,13.50
C37.38,13.14 37.68,12.91 37.97,12.91
C38.29,12.91 38.56,13.14 38.56,13.50
C38.56,13.81 38.29,14.07 37.97,14.07
C37.68,14.07 37.38,13.81 37.38,13.50
L37.38,13.50
M37.59,18.44
C37.57,18.44 37.57,18.44 37.57,18.36
L37.57,15.25 
36.86,15.25 
C36.83,15.28 36.83,15.28 36.83,15.23
L36.83,14.70 
C36.83,14.67 36.83,14.67 36.86,14.67
L38.35,14.67 
C38.39,14.67 38.39,14.67 38.39,14.70
L38.39,18.36 
C38.39,18.44 38.39,18.44 38.35,18.44
L37.59,18.44 
" />
</g>
<g fill="rgb(0,52,115)" >
<path 
d="M39.36,18.19
C39.34,18.12 39.34,18.12 39.34,18.12
C39.34,18.11 39.34,18.11 39.34,18.05
C39.34,18.00 39.36,18.00 39.36,18.00
L39.53,17.58 
C39.53,17.58 39.53,17.56 39.53,17.56
C39.53,17.56 39.57,17.56 39.57,17.56
C39.70,17.64 39.76,17.64 39.92,17.71
C40.11,17.81 40.38,17.90 40.66,17.90
C40.91,17.90 41.21,17.79 41.21,17.44
C41.21,17.16 40.95,17.06 40.75,16.96
C40.41,16.81 40.13,16.73 39.84,16.58
C39.67,16.48 39.45,16.18 39.45,15.77
C39.45,15.11 39.92,14.55 40.76,14.55
C41.22,14.55 41.71,14.70 41.94,14.84
C41.94,14.84 41.94,14.88 41.94,14.88
C41.94,14.94 41.94,14.94 41.90,14.94
C41.80,15.17 41.75,15.28 41.71,15.37
C41.71,15.42 41.69,15.42 41.69,15.42
C41.69,15.42 41.69,15.42 41.65,15.42
C41.40,15.28 41.12,15.21 40.81,15.21
C40.54,15.21 40.24,15.36 40.24,15.67
C40.24,15.91 40.41,16.01 40.66,16.10
C40.81,16.15 40.95,16.18 41.12,16.27
C41.22,16.30 41.41,16.39 41.53,16.48
C41.80,16.61 42.01,16.89 42.01,17.37
C42.01,18.05 41.53,18.53 40.75,18.53
C40.19,18.53 39.67,18.36 39.36,18.19
L39.36,18.19
M41.65,13.41
L40.76,14.12 
C40.76,14.12 40.75,14.12 40.75,14.12
C40.66,14.12 40.62,14.12 40.62,14.12
L39.74,13.41 
C39.74,13.41 39.70,13.41 39.70,13.36
C39.67,13.36 39.67,13.36 39.67,13.36
C39.67,13.33 39.70,13.29 39.70,13.29
L39.84,13.04 
C39.92,12.97 39.92,12.97 39.92,12.97
C39.92,12.97 39.98,13.00 39.98,13.00
L40.75,13.41 
41.40,13.00 
C41.40,13.00 41.42,12.97 41.47,12.97
C41.47,12.97 41.53,12.97 41.53,13.04
L41.69,13.29 
C41.69,13.29 41.71,13.33 41.71,13.36
C41.71,13.36 41.71,13.36 41.71,13.36
C41.69,13.41 41.69,13.41 41.65,13.41
" />
</g>
<g fill="rgb(0,52,115)" >
<path 
d="M43.17,17.12
43.17,15.25 
42.57,15.25 
C42.54,15.28 42.54,15.28 42.54,15.23
L42.54,14.70 
C42.54,14.67 42.54,14.67 42.57,14.67
L43.17,14.67 
43.17,13.62 
C43.17,13.56 43.17,13.56 43.26,13.56
L44.00,13.50 
C44.00,13.50 44.05,13.50 44.05,13.50
C44.05,13.52 44.05,13.52 44.05,13.56
L44.05,14.67 
45.00,14.67 
C45.06,14.67 45.10,14.67 45.10,14.70
C45.10,14.70 45.10,14.70 45.10,14.75
L44.97,15.21 
C44.97,15.28 44.97,15.28 44.89,15.28
L44.05,15.25 
44.05,17.25 
C44.05,17.52 44.09,17.79 44.39,17.79
C44.54,17.79 44.68,17.71 44.81,17.69
C44.85,17.69 44.89,17.69 44.92,17.64
C45.00,17.64 45.00,17.64 45.00,17.69
L45.21,18.25 
C45.21,18.26 45.21,18.26 45.21,18.35
C45.06,18.45 44.66,18.53 44.12,18.53
C43.17,18.53 43.17,17.85 43.17,17.12
L43.17,17.12
M44.85,14.31
C44.81,14.31 44.82,14.33 44.81,14.33
C44.81,14.33 44.82,14.33 44.81,14.33
C44.79,14.33 44.79,14.33 44.71,14.33
L44.47,14.22 
C44.48,14.22 44.47,14.20 44.46,14.20
C44.47,14.12 44.47,14.12 44.46,14.12
L44.85,12.85 
C44.85,12.76 44.89,12.76 44.92,12.76
L45.52,12.76 
C45.60,12.76 45.64,12.76 45.64,12.80
C45.64,12.80 45.60,12.85 45.60,12.91
L44.85,14.31 
" />
</g>
<g fill="rgb(0,52,115)" >
<path 
d="M47.26,15.21
C47.89,15.21 47.96,15.85 47.96,16.56
C47.96,17.28 47.89,17.90 47.26,17.90
C46.63,17.90 46.56,17.25 46.56,16.56
C46.56,15.85 46.63,15.21 47.26,15.21
L47.26,15.21
M47.26,18.52
C48.27,18.53 48.92,17.79 48.92,16.56
C48.92,15.36 48.27,14.55 47.26,14.55
C46.24,14.55 45.64,15.36 45.64,16.56
C45.64,17.79 46.24,18.53 47.26,18.53
" />
</g>
<g fill="rgb(0,52,115)" >
<path 
d="M51.21,18.44
C51.21,18.45 51.21,18.50 51.11,18.50
L50.50,18.50 
C50.48,18.50 50.48,18.45 50.43,18.44
L49.20,14.84 
C49.20,14.80 49.20,14.75 49.20,14.70
C49.20,14.70 49.21,14.70 49.23,14.67
L49.89,14.65 
C49.94,14.65 49.97,14.61 50.02,14.61
C50.06,14.61 50.06,14.67 50.06,14.70
L50.54,16.48 
C50.61,16.80 50.78,17.30 50.87,17.64
L50.88,17.64 
C50.98,17.30 51.10,16.80 51.21,16.48
L51.73,14.70 
C51.73,14.67 51.73,14.67 51.75,14.65
C51.75,14.61 51.85,14.61 51.85,14.61
C51.85,14.61 51.88,14.65 51.94,14.65
L52.45,14.67 
C52.52,14.70 52.56,14.70 52.56,14.70
C52.56,14.75 52.52,14.80 52.52,14.84
L51.21,18.44 
" />
</g>
<g fill="rgb(0,52,115)" >
<path 
d="M55.34,18.44
C55.28,18.44 55.28,18.44 55.28,18.36
L55.28,15.98 
C55.28,15.68 55.24,15.23 54.80,15.23
C54.46,15.23 54.14,15.49 54.04,15.60
L54.04,18.36 
C54.04,18.44 54.04,18.44 54.00,18.44
L53.23,18.44 
C53.18,18.44 53.18,18.44 53.18,18.36
L53.18,16.01 
C53.18,15.44 53.12,15.21 53.07,15.01
C53.06,14.94 53.06,14.94 53.03,14.88
C53.03,14.84 53.03,14.80 53.03,14.80
C53.03,14.80 53.03,14.75 53.06,14.75
L53.65,14.55 
C53.73,14.55 53.75,14.55 53.79,14.55
C53.83,14.65 53.86,14.75 53.94,15.17
C54.10,15.01 54.20,14.94 54.21,14.94
C54.53,14.67 54.86,14.55 55.20,14.55
C55.63,14.55 56.18,14.70 56.18,15.60
L56.18,18.36 
C56.18,18.44 56.18,18.44 56.16,18.44
L55.34,18.44 
" />
</g>
<g fill="rgb(0,52,115)" >
<path 
d="M58.92,16.67
58.92,17.58 
C58.75,17.71 58.60,17.93 58.24,17.93
C57.86,17.93 57.66,17.69 57.66,17.37
C57.66,16.96 57.96,16.80 58.19,16.72
C58.37,16.67 58.45,16.67 58.60,16.67
C58.70,16.67 58.75,16.67 58.92,16.67
L58.92,16.67
M59.87,18.26
C59.91,18.26 59.91,18.25 59.91,18.25
C59.91,18.19 59.91,18.19 59.87,18.19
C59.87,18.12 59.83,18.11 59.83,18.00
C59.76,17.85 59.72,17.64 59.72,17.25
L59.72,15.75 
C59.72,14.94 59.40,14.55 58.41,14.55
C57.86,14.55 57.09,14.75 57.09,14.84
C57.09,14.88 57.09,14.94 57.09,14.94
L57.29,15.42 
C57.29,15.42 57.29,15.44 57.29,15.44
C57.29,15.44 57.37,15.42 57.38,15.42
C57.45,15.42 57.55,15.37 57.63,15.36
C57.80,15.28 58.06,15.21 58.28,15.21
C58.83,15.21 58.92,15.49 58.92,15.85
L58.92,16.15 
C58.19,16.15 56.82,16.15 56.82,17.38
C56.82,18.12 57.29,18.53 57.97,18.53
C58.24,18.53 58.45,18.45 58.62,18.36
C58.70,18.35 58.75,18.26 58.75,18.25
C58.85,18.19 58.92,18.12 59.02,18.00
C59.07,18.26 59.19,18.53 59.25,18.53
C59.25,18.53 59.25,18.53 59.25,18.53
C59.25,18.53 59.31,18.53 59.31,18.50
L59.87,18.26 
" />
</g>
</g>
</g>
</g>
<g opacity="1.00">
</g>
<g opacity="1.00">
</g>
<g opacity="1.00">
</g>
<g opacity="1.00">
</g>
<g opacity="1.00">
</g>
<g opacity="1.00">
</g>
<g opacity="1.00">
</g>
<g opacity="1.00">
</g>
<g opacity="1.00">
</g>
<g opacity="1.00">
</g>
<g opacity="1.00">
</g>
<g opacity="1.00">
</g>
<g opacity="1.00">
</g>
<g opacity="1.00">
</g>
</g>
</g>
</g>
</g>
</svg>
