<?xml version="1.0" encoding="UTF-8" standalone="no"?>
<!-- Generator: OCAD Version 10.3.0 -->

<svg
   xmlns:dc="http://purl.org/dc/elements/1.1/"
   xmlns:cc="http://creativecommons.org/ns#"
   xmlns:rdf="http://www.w3.org/1999/02/22-rdf-syntax-ns#"
   xmlns:svg="http://www.w3.org/2000/svg"
   xmlns="http://www.w3.org/2000/svg"
   xmlns:sodipodi="http://sodipodi.sourceforge.net/DTD/sodipodi-0.dtd"
   xmlns:inkscape="http://www.inkscape.org/namespaces/inkscape"
   id="mainMap"
   width="4.9920cm"
   height="1.9520cm"
   viewBox="0 0 49.9200 19.5200"
   style="fill:none;stroke-width:0;fill-rule:evenodd"
   version="1.1"
   inkscape:version="0.48.5 r10040"
   sodipodi:docname="csos.svg">
  <metadata
     id="metadata120">
    <rdf:RDF>
      <cc:Work
         rdf:about="">
        <dc:format>image/svg+xml</dc:format>
        <dc:type
           rdf:resource="http://purl.org/dc/dcmitype/StillImage" />
      </cc:Work>
    </rdf:RDF>
  </metadata>
  <defs
     id="defs118" />
  <sodipodi:namedview
     pagecolor="#ffffff"
     bordercolor="#666666"
     borderopacity="1"
     objecttolerance="10"
     gridtolerance="10"
     guidetolerance="10"
     inkscape:pageopacity="0"
     inkscape:pageshadow="2"
     inkscape:window-width="1280"
     inkscape:window-height="972"
     id="namedview116"
     showgrid="false"
     inkscape:zoom="1.7865028"
     inkscape:cx="88.440948"
     inkscape:cy="34.582676"
     inkscape:window-x="-8"
     inkscape:window-y="22"
     inkscape:window-maximized="1"
     inkscape:current-layer="mainMapContent" />
  <desc
     id="desc3">Map</desc>
  <g
     id="scaleTransform"
     transform="scale(1.00000000)">
    <g
       id="mainMapContent">
      <!-- map fill color -->
      <g
         id="g8">
        <clipPath
           id="Clip"
           fill="none"
           stroke="none">
          <rect
             x="0"
             y="0"
             width="49.9200"
             height="19.5200"
             fill="none"
             id="rect11" />
        </clipPath>
        <g
           clip-path="url(#Clip)"
           id="g13">
          <g
             opacity="1.00"
             id="g15" />
          <g
             opacity="1.00"
             id="g17">
            <g
               id="9.0 reklamy - b\355l\341 doln\355 398">
              <g
                 stroke="rgb(255,255,255)"
                 id="g20">
                <g
                   fill="rgb(255,255,255)"
                   id="g22">
                  <path
                     d="M1.57,15.46 17.39,13.31  19.60,2.98  7.91,5.14  1.57,15.46  "
                     id="path24" />
                </g>
              </g>
            </g>
          </g>
          <g
             opacity="1.00"
             id="g26" />
          <g
             opacity="1.00"
             id="g28" />
          <g
             opacity="1.00"
             id="g30" />
          <g
             opacity="1.00"
             id="g32" />
          <g
             opacity="1.00"
             id="g34" />
          <g
             opacity="1.00"
             id="g36" />
          <g
             opacity="1.00"
             id="g38">
            <g
               id="4.2 reklamy - modr\341 \310SOS 338">
              <g
                 stroke="rgb(0,13,247)"
                 id="g41">
                <g
                   fill="rgb(0,13,247)"
                   id="g43">
                  <path
                     d="M21.71,10.21 C21.71,10.03 21.73,9.85 21.77,9.64 L22.36,6.25  C22.66,4.62 23.50,3.97 25.38,3.97 C26.00,3.97 26.74,4.06 27.33,4.21 L27.14,5.05  C26.54,4.94 25.81,4.85 25.30,4.85 C24.03,4.85 23.54,5.21 23.33,6.37 L22.76,9.66  C22.71,9.83 22.71,10.01 22.71,10.14 C22.71,10.85 23.09,11.14 24.21,11.14 C24.73,11.14 25.45,11.07 26.08,10.96 L26.11,11.79  C25.49,11.93 24.67,12.03 24.01,12.03 C22.35,12.03 21.71,11.29 21.71,10.21 "
                     id="path45" />
                </g>
                <g
                   fill="rgb(0,13,247)"
                   id="g47">
                  <path
                     d="M25.56,2.69 C25.96,2.43 26.29,2.25 26.66,2.07 L26.96,2.62  C26.44,2.90 26.01,3.15 25.45,3.54 C25.07,3.22 24.74,2.95 24.17,2.58 L24.51,2.07  C25.02,2.32 25.21,2.45 25.56,2.69 "
                     id="path49" />
                </g>
                <g
                   fill="rgb(0,13,247)"
                   id="g51">
                  <path
                     d="M27.40,11.60 27.63,10.81  C28.36,11.02 29.07,11.18 29.74,11.18 C30.99,11.18 31.33,10.81 31.48,9.88 C31.52,9.63 31.57,9.42 31.57,9.28 C31.57,8.79 31.26,8.65 30.11,8.36 C28.76,8.01 28.36,7.58 28.36,6.75 C28.36,6.51 28.38,6.26 28.44,5.97 C28.70,4.38 29.35,3.97 31.22,3.97 C31.80,3.97 32.65,4.09 33.26,4.24 L33.08,5.07  C32.43,4.92 31.64,4.84 31.16,4.84 C29.83,4.84 29.59,5.05 29.42,5.99 C29.37,6.26 29.33,6.49 29.33,6.62 C29.33,7.13 29.63,7.27 30.72,7.56 C32.15,7.94 32.56,8.33 32.56,9.10 C32.56,9.30 32.53,9.58 32.46,9.89 C32.22,11.31 31.78,12.03 29.64,12.03 C28.99,12.03 28.06,11.86 27.40,11.60 "
                     id="path53" />
                </g>
                <g
                   fill="rgb(0,13,247)"
                   id="g55">
                  <path
                     d="M39.30,6.43 C39.32,6.27 39.36,6.14 39.36,6.00 C39.36,5.27 38.91,4.84 37.75,4.84 C36.43,4.84 35.84,5.30 35.64,6.43 L35.10,9.57  C35.06,9.78 35.04,9.91 35.04,10.03 C35.04,10.73 35.43,11.17 36.65,11.17 C38.00,11.17 38.57,10.60 38.74,9.63 L39.30,6.43  39.30,6.43  L39.30,6.43 M34.05,10.09 C34.05,9.95 34.06,9.78 34.11,9.58 L34.67,6.37  C34.96,4.73 35.82,3.97 37.86,3.97 C39.47,3.97 40.33,4.82 40.33,6.00 C40.33,6.14 40.30,6.30 40.28,6.45 L39.71,9.71  C39.47,11.10 38.67,12.03 36.50,12.03 C34.78,12.03 34.05,11.21 34.05,10.09 "
                     id="path57" />
                </g>
                <g
                   fill="rgb(0,13,247)"
                   id="g59">
                  <path
                     d="M40.95,11.60 41.16,10.81  C41.88,11.02 42.60,11.18 43.26,11.18 C44.52,11.18 44.84,10.81 45.01,9.88 C45.05,9.63 45.09,9.42 45.09,9.28 C45.09,8.79 44.78,8.65 43.66,8.36 C42.29,8.01 41.88,7.58 41.88,6.75 C41.88,6.51 41.90,6.26 41.95,5.97 C42.25,4.38 42.86,3.97 44.74,3.97 C45.31,3.97 46.18,4.09 46.80,4.24 L46.62,5.07  C45.96,4.92 45.16,4.84 44.68,4.84 C43.35,4.84 43.11,5.05 42.94,5.99 C42.89,6.26 42.86,6.49 42.86,6.62 C42.86,7.13 43.15,7.27 44.24,7.56 C45.68,7.94 46.09,8.33 46.09,9.10 C46.09,9.30 46.06,9.58 46.00,9.89 C45.75,11.31 45.28,12.03 43.17,12.03 C42.50,12.03 41.57,11.86 40.95,11.60 "
                     id="path61" />
                </g>
              </g>
            </g>
          </g>
          <g
             opacity="1.00"
             id="g63" />
          <g
             opacity="1.00"
             id="g65" />
          <g
             opacity="1.00"
             id="g67" />
          <g
             opacity="1.00"
             id="g69" />
          <g
             opacity="1.00"
             id="g71" />
          <g
             opacity="1.00"
             id="g73" />
          <g
             opacity="1.00"
             id="g75" />
          <g
             opacity="1.00"
             id="g77">
            <g
               id="3.0 reklamy - \350erven\341 311">
              <g
                 stroke="rgb(255,0,0)"
                 id="g80">
                <g
                   fill="rgb(255,0,0)"
                   id="g82">
                  <path
                     d="M2.24,15.35 17.39,13.31  19.60,2.98  19.53,3.04  C15.18,8.72 9.18,13.05 2.24,15.35 "
                     id="path84" />
                </g>
                <g
                   fill="rgb(255,0,0)"
                   id="g86">
                  <path
                     d="M11.15,4.54 C10.03,5.45 8.67,6.07 7.18,6.33 L6.53,7.39  C8.91,7.12 11.06,5.97 12.64,4.27 L11.15,4.54  "
                     id="path88" />
                </g>
                <g
                   fill="rgb(255,0,0)"
                   id="g90">
                  <path
                     d="M7.91,5.14 7.54,5.73  C8.34,5.58 9.08,5.27 9.70,4.82 L7.91,5.14  "
                     id="path92" />
                </g>
                <g
                   fill="rgb(255,0,0)"
                   id="g94">
                  <path
                     d="M16.93,3.48 C13.60,7.45 9.06,10.38 3.87,11.69 L2.88,13.33  C8.99,11.86 14.40,8.19 18.18,3.25 L16.93,3.48  "
                     id="path96" />
                </g>
                <g
                   fill="rgb(255,0,0)"
                   id="g98">
                  <path
                     d="M15.43,3.75 14.20,3.99  C12.04,6.37 9.10,8.03 5.79,8.60 L5.11,9.69  C9.25,9.13 12.93,6.93 15.43,3.75 "
                     id="path100" />
                </g>
                <g
                   fill="rgb(255,0,0)"
                   id="g102">
                  <path
                     d="M22.10,15.07 C22.23,15.07 22.38,15.06 22.47,15.03 L22.47,14.90  C22.36,14.92 22.24,14.93 22.15,14.93 C21.96,14.93 21.89,14.88 21.89,14.75 C21.89,14.72 21.89,14.70 21.89,14.67 L21.99,14.09  C22.02,13.90 22.12,13.83 22.34,13.83 C22.43,13.83 22.55,13.85 22.66,13.88 L22.69,13.72  C22.58,13.70 22.45,13.68 22.35,13.68 C22.02,13.68 21.88,13.78 21.82,14.07 L21.73,14.67  C21.71,14.70 21.71,14.74 21.71,14.76 C21.71,14.96 21.82,15.07 22.10,15.07 L22.10,15.07  L22.10,15.07 M22.20,13.35 22.15,13.44  C22.24,13.51 22.30,13.56 22.36,13.61 C22.45,13.55 22.53,13.51 22.62,13.45 L22.56,13.35  C22.51,13.38 22.45,13.42 22.38,13.46 C22.33,13.42 22.28,13.40 22.20,13.35 L22.20,13.35  L22.20,13.35 M22.92,14.70 C23.01,14.67 23.05,14.65 23.18,14.61 C23.44,14.53 23.53,14.44 23.53,14.28 C23.53,14.13 23.40,14.05 23.25,14.05 C22.96,14.05 22.86,14.17 22.82,14.43 L22.75,14.75  C22.75,14.79 22.75,14.82 22.75,14.85 C22.75,14.99 22.83,15.07 23.01,15.07 C23.18,15.07 23.32,15.02 23.43,14.96 L23.40,14.83  C23.27,14.90 23.15,14.94 23.03,14.94 C22.92,14.94 22.91,14.90 22.91,14.83 C22.91,14.83 22.91,14.82 22.91,14.79 L22.92,14.70  22.92,14.70  L22.92,14.70 M23.14,14.49 C23.03,14.51 23.01,14.53 22.94,14.53 L22.97,14.40  C23.00,14.24 23.08,14.18 23.23,14.18 C23.33,14.18 23.37,14.22 23.37,14.29 C23.37,14.38 23.30,14.44 23.14,14.49 L23.14,14.49  L23.14,14.49 M23.90,15.07 C24.19,15.07 24.24,15.00 24.27,14.82 C24.30,14.65 24.27,14.61 24.03,14.50 C23.89,14.43 23.87,14.40 23.88,14.31 C23.90,14.20 23.93,14.18 24.07,14.18 C24.14,14.18 24.25,14.20 24.34,14.22 L24.36,14.08  C24.29,14.06 24.17,14.05 24.07,14.05 C23.83,14.05 23.75,14.11 23.72,14.29 C23.71,14.43 23.73,14.53 23.93,14.61 C24.10,14.68 24.12,14.72 24.10,14.81 C24.08,14.92 24.06,14.94 23.90,14.94 C23.83,14.94 23.73,14.92 23.65,14.90 L23.61,15.02  C23.69,15.06 23.82,15.07 23.90,15.07 L23.90,15.07  L23.90,15.07 M25.05,15.06 25.24,15.06  24.96,14.56  25.37,14.08  25.21,14.05  24.80,14.56  25.05,15.06  25.05,15.06  L25.05,15.06 M24.48,15.06 24.74,13.66  24.89,13.63  24.66,15.06  24.48,15.06  24.48,15.06  L24.48,15.06 M25.87,15.06 C25.77,15.26 25.67,15.39 25.40,15.48 L25.36,15.35  C25.53,15.29 25.62,15.23 25.70,15.06 L25.65,15.06  25.49,14.08  25.66,14.06  25.77,14.93  26.07,14.35  C26.10,14.28 26.10,14.24 26.10,14.20 C26.10,14.15 26.10,14.11 26.08,14.07 L26.24,14.06  C26.24,14.08 26.24,14.13 26.24,14.18 C26.24,14.24 26.24,14.29 26.23,14.36 L25.87,15.06  25.87,15.06  L25.87,15.06 M25.80,13.94 C25.94,13.88 26.01,13.85 26.12,13.76 L26.05,13.65  C25.94,13.72 25.85,13.78 25.75,13.83 L25.80,13.94  25.80,13.94  L25.80,13.94 M27.03,15.07 C27.29,15.07 27.37,15.00 27.40,14.82 C27.42,14.65 27.38,14.61 27.16,14.50 C27.03,14.43 27.01,14.40 27.01,14.31 C27.03,14.20 27.05,14.18 27.20,14.18 C27.27,14.18 27.38,14.20 27.46,14.22 L27.49,14.08  C27.40,14.06 27.29,14.05 27.20,14.05 C26.96,14.05 26.88,14.11 26.85,14.29 C26.82,14.43 26.86,14.53 27.08,14.61 C27.22,14.68 27.24,14.72 27.22,14.81 C27.22,14.92 27.19,14.94 27.04,14.94 C26.96,14.94 26.85,14.92 26.77,14.90 L26.74,15.02  C26.82,15.06 26.95,15.07 27.03,15.07 L27.03,15.07  L27.03,15.07 M28.03,15.06 28.38,14.36  C28.41,14.29 28.41,14.24 28.41,14.18 C28.41,14.13 28.41,14.08 28.40,14.06 L28.23,14.07  C28.25,14.11 28.25,14.15 28.25,14.20 C28.25,14.24 28.25,14.28 28.22,14.35 L27.94,14.93  27.81,14.06  27.66,14.08  27.80,15.06  28.03,15.06  28.03,15.06  L28.03,15.06 M29.37,14.11 C29.28,14.07 29.13,14.05 29.02,14.05 C28.70,14.05 28.62,14.17 28.58,14.42 L28.51,14.81  C28.51,14.83 28.51,14.86 28.51,14.89 C28.51,15.00 28.56,15.07 28.70,15.07 C28.83,15.07 28.97,15.03 29.08,14.94 L29.08,15.06  29.21,15.06  29.37,14.11  29.37,14.11  L29.37,14.11 M29.10,14.76 C28.99,14.86 28.87,14.94 28.75,14.94 C28.68,14.94 28.66,14.92 28.66,14.86 C28.66,14.85 28.66,14.82 28.68,14.79 L28.74,14.44  C28.77,14.24 28.85,14.20 29.01,14.20 C29.08,14.20 29.13,14.20 29.19,14.22 L29.10,14.76  29.10,14.76  L29.10,14.76 M29.54,15.06 30.18,15.06  30.22,14.93  29.72,14.93  30.33,14.20  30.33,14.07  29.66,14.07  29.64,14.20  30.13,14.20  29.53,14.93  29.54,15.06  29.54,15.06  L29.54,15.06 M31.24,15.07 C31.55,15.07 31.66,14.94 31.70,14.72 L31.76,14.42  C31.78,14.39 31.78,14.36 31.78,14.35 C31.78,14.17 31.65,14.05 31.42,14.05 C31.14,14.05 31.00,14.17 30.97,14.42 L30.91,14.70  C30.87,14.92 30.97,15.07 31.24,15.07 L31.24,15.07  L31.24,15.07 M31.54,14.71 C31.52,14.86 31.44,14.94 31.27,14.94 C31.08,14.94 31.05,14.85 31.07,14.71 L31.12,14.43  C31.15,14.26 31.23,14.20 31.40,14.20 C31.54,14.20 31.59,14.25 31.59,14.36 C31.59,14.38 31.59,14.39 31.59,14.42 L31.54,14.71  31.54,14.71  L31.54,14.71 M32.50,14.05 C32.41,14.08 32.31,14.15 32.24,14.22 L32.25,14.06  32.10,14.07  31.92,15.06  32.08,15.06  32.21,14.40  C32.31,14.33 32.41,14.26 32.52,14.20 L32.50,14.05  32.50,14.05  L32.50,14.05 M32.76,13.91 32.93,13.90  32.98,13.63  32.81,13.66  32.76,13.91  32.76,13.91  L32.76,13.91 M32.56,15.06 32.74,15.06  32.91,14.06  32.74,14.07  32.56,15.06  32.56,15.06  L32.56,15.06 M33.26,14.70 C33.35,14.67 33.38,14.65 33.51,14.61 C33.79,14.53 33.86,14.44 33.86,14.28 C33.86,14.13 33.74,14.05 33.58,14.05 C33.29,14.05 33.18,14.17 33.15,14.43 L33.07,14.75  C33.07,14.79 33.07,14.82 33.07,14.85 C33.07,14.99 33.15,15.07 33.35,15.07 C33.51,15.07 33.65,15.02 33.76,14.96 L33.74,14.83  C33.61,14.90 33.48,14.94 33.37,14.94 C33.26,14.94 33.24,14.90 33.24,14.83 C33.24,14.83 33.24,14.82 33.24,14.79 L33.26,14.70  33.26,14.70  L33.26,14.70 M33.47,14.49 C33.37,14.51 33.35,14.53 33.28,14.53 L33.31,14.40  C33.33,14.24 33.41,14.18 33.56,14.18 C33.66,14.18 33.70,14.22 33.70,14.29 C33.70,14.38 33.63,14.44 33.47,14.49 L33.47,14.49  L33.47,14.49 M34.70,14.05 C34.59,14.05 34.39,14.13 34.29,14.20 L34.30,14.06  34.15,14.07  33.98,15.06  34.15,15.06  34.27,14.36  C34.39,14.28 34.54,14.20 34.65,14.20 C34.69,14.20 34.72,14.22 34.72,14.26 C34.72,14.26 34.72,14.28 34.72,14.29 L34.58,15.06  34.74,15.06  34.88,14.31  C34.88,14.28 34.88,14.25 34.88,14.22 C34.88,14.11 34.82,14.05 34.70,14.05 L34.70,14.05  L34.70,14.05 M35.32,15.07 C35.42,15.07 35.50,15.05 35.60,15.01 L35.56,14.90  C35.49,14.93 35.42,14.94 35.36,14.94 C35.32,14.94 35.31,14.93 35.31,14.90 C35.31,14.89 35.31,14.89 35.31,14.88 L35.43,14.20  35.71,14.20  35.73,14.07  35.46,14.07  35.50,13.81  35.32,13.83  35.28,14.07  35.11,14.07  35.10,14.20  35.27,14.20  35.15,14.88  C35.15,14.90 35.15,14.92 35.15,14.92 C35.15,15.01 35.21,15.07 35.32,15.07 L35.32,15.07  L35.32,15.07 M36.68,14.11 C36.59,14.07 36.45,14.05 36.32,14.05 C36.02,14.05 35.92,14.17 35.89,14.42 L35.82,14.81  C35.79,14.83 35.79,14.86 35.79,14.89 C35.79,15.00 35.85,15.07 36.02,15.07 C36.15,15.07 36.27,15.03 36.39,14.94 L36.37,15.06  36.52,15.06  36.68,14.11  36.68,14.11  L36.68,14.11 M36.40,14.76 C36.28,14.86 36.18,14.94 36.06,14.94 C35.99,14.94 35.97,14.92 35.97,14.86 C35.97,14.85 35.97,14.82 35.97,14.79 L36.04,14.44  C36.07,14.24 36.15,14.20 36.30,14.20 C36.37,14.20 36.44,14.20 36.50,14.22 L36.40,14.76  36.40,14.76  L36.40,14.76 M37.58,14.08 C37.51,14.06 37.41,14.05 37.34,14.05 C37.08,14.05 36.97,14.13 36.91,14.42 L36.84,14.78  C36.84,14.82 36.84,14.85 36.84,14.86 C36.84,15.00 36.93,15.07 37.11,15.07 C37.24,15.07 37.36,15.05 37.45,15.01 L37.43,14.88  C37.33,14.90 37.21,14.94 37.13,14.94 C37.04,14.94 37.01,14.92 37.01,14.85 C37.01,14.83 37.01,14.82 37.01,14.81 L37.08,14.44  C37.12,14.25 37.17,14.20 37.33,14.20 C37.40,14.20 37.48,14.20 37.56,14.22 L37.58,14.08  37.58,14.08  L37.58,14.08 M37.15,13.70 37.11,13.77  C37.19,13.85 37.26,13.90 37.33,13.98 C37.45,13.88 37.52,13.85 37.63,13.78 L37.57,13.70  C37.48,13.75 37.43,13.77 37.34,13.83 C37.29,13.78 37.24,13.73 37.15,13.70 L37.15,13.70  L37.15,13.70 M38.39,14.05 C38.28,14.05 38.08,14.13 37.97,14.20 L37.99,14.06  37.85,14.07  37.67,15.06  37.83,15.06  37.95,14.36  C38.08,14.28 38.24,14.20 38.34,14.20 C38.39,14.20 38.41,14.22 38.41,14.26 C38.41,14.26 38.41,14.28 38.41,14.29 L38.27,15.06  38.43,15.06  38.57,14.31  C38.57,14.28 38.57,14.25 38.57,14.22 C38.57,14.11 38.53,14.05 38.39,14.05 L38.39,14.05  L38.39,14.05 M38.74,15.06 38.93,15.06  39.10,14.06  38.93,14.07  38.74,15.06  38.74,15.06  L38.74,15.06 M38.99,13.94 C39.12,13.88 39.18,13.85 39.30,13.76 L39.23,13.65  C39.14,13.72 39.04,13.78 38.93,13.83 L38.99,13.94  38.99,13.94  L38.99,13.94 M39.98,14.08 C39.91,14.06 39.82,14.05 39.75,14.05 C39.48,14.05 39.36,14.13 39.31,14.42 L39.25,14.78  C39.25,14.82 39.25,14.85 39.25,14.86 C39.25,15.00 39.32,15.07 39.51,15.07 C39.64,15.07 39.76,15.05 39.86,15.01 L39.83,14.88  C39.73,14.90 39.61,14.94 39.53,14.94 C39.43,14.94 39.41,14.92 39.41,14.85 C39.41,14.83 39.41,14.82 39.41,14.81 L39.48,14.44  C39.52,14.25 39.57,14.20 39.73,14.20 C39.80,14.20 39.89,14.20 39.96,14.22 L39.98,14.08  39.98,14.08  L39.98,14.08 M40.66,15.06 40.84,15.06  40.96,14.31  C40.96,14.28 40.96,14.25 40.96,14.22 C40.96,14.11 40.93,14.05 40.79,14.05 C40.68,14.05 40.49,14.11 40.40,14.18 L40.49,13.63  40.32,13.66  40.07,15.06  40.23,15.06  40.36,14.36  C40.48,14.28 40.64,14.20 40.73,14.20 C40.79,14.20 40.80,14.22 40.80,14.26 C40.80,14.26 40.80,14.29 40.80,14.29 L40.66,15.06  40.66,15.06  L40.66,15.06 M41.84,15.07 C42.10,15.07 42.16,15.00 42.20,14.82 C42.23,14.65 42.19,14.61 41.95,14.50 C41.82,14.43 41.80,14.40 41.82,14.31 C41.84,14.20 41.87,14.18 41.99,14.18 C42.06,14.18 42.18,14.20 42.25,14.22 L42.29,14.08  C42.21,14.06 42.09,14.05 41.99,14.05 C41.75,14.05 41.67,14.11 41.64,14.29 C41.63,14.43 41.66,14.53 41.87,14.61 C42.02,14.68 42.03,14.72 42.02,14.81 C42.01,14.92 41.99,14.94 41.84,14.94 C41.75,14.94 41.66,14.92 41.57,14.90 L41.53,15.02  C41.62,15.06 41.74,15.07 41.84,15.07 L41.84,15.07  L41.84,15.07 M42.34,15.48 42.50,15.46  42.57,15.05  C42.64,15.06 42.72,15.07 42.79,15.07 C43.10,15.07 43.19,14.96 43.23,14.71 L43.30,14.32  C43.30,14.31 43.30,14.26 43.30,14.25 C43.30,14.13 43.25,14.05 43.10,14.05 C42.97,14.05 42.84,14.08 42.72,14.18 L42.73,14.07  42.57,14.07  42.34,15.48  42.34,15.48  L42.34,15.48 M42.70,14.38 C42.82,14.26 42.92,14.20 43.05,14.20 C43.11,14.20 43.14,14.22 43.14,14.26 C43.14,14.29 43.14,14.31 43.12,14.33 L43.07,14.68  C43.03,14.89 42.97,14.94 42.80,14.94 C42.75,14.94 42.67,14.93 42.61,14.92 L42.70,14.38  42.70,14.38  L42.70,14.38 M43.80,15.07 C44.11,15.07 44.23,14.94 44.27,14.72 L44.31,14.42  C44.33,14.39 44.33,14.36 44.33,14.35 C44.33,14.17 44.21,14.05 43.98,14.05 C43.69,14.05 43.55,14.17 43.51,14.42 L43.46,14.70  C43.42,14.92 43.51,15.07 43.80,15.07 L43.80,15.07  L43.80,15.07 M44.10,14.71 C44.07,14.86 43.99,14.94 43.83,14.94 C43.64,14.94 43.61,14.85 43.62,14.71 L43.68,14.43  C43.71,14.26 43.79,14.20 43.95,14.20 C44.10,14.20 44.16,14.25 44.16,14.36 C44.16,14.38 44.16,14.39 44.16,14.42 L44.10,14.71  44.10,14.71  L44.10,14.71 M45.07,14.05 C44.96,14.08 44.85,14.15 44.78,14.22 L44.80,14.06  44.66,14.07  44.48,15.06  44.64,15.06  44.76,14.40  C44.85,14.33 44.96,14.26 45.08,14.20 L45.07,14.05  45.07,14.05  L45.07,14.05 M45.39,15.07 C45.48,15.07 45.57,15.05 45.66,15.01 L45.62,14.90  C45.55,14.93 45.48,14.94 45.42,14.94 C45.39,14.94 45.38,14.93 45.38,14.90 C45.38,14.89 45.38,14.89 45.38,14.88 L45.50,14.20  45.76,14.20  45.79,14.07  45.53,14.07  45.57,13.81  45.40,13.83  45.35,14.07  45.19,14.07  45.16,14.20  45.33,14.20  45.21,14.88  C45.21,14.90 45.21,14.92 45.21,14.92 C45.21,15.01 45.26,15.07 45.39,15.07 L45.39,15.07  L45.39,15.07 M46.18,14.06 46.03,14.07  45.89,14.82  C45.89,14.85 45.89,14.89 45.89,14.90 C45.89,15.01 45.94,15.07 46.07,15.07 C46.18,15.07 46.38,15.00 46.49,14.93 L46.47,15.06  46.62,15.06  46.78,14.06  46.62,14.07  46.50,14.76  C46.38,14.85 46.22,14.92 46.12,14.92 C46.08,14.92 46.06,14.90 46.06,14.86 C46.06,14.86 46.06,14.85 46.06,14.83 L46.18,14.06  46.18,14.06  L46.18,14.06 M46.44,13.96 C46.56,13.96 46.62,13.88 46.62,13.78 C46.62,13.72 46.56,13.68 46.47,13.68 C46.36,13.68 46.29,13.75 46.29,13.85 C46.29,13.92 46.35,13.96 46.44,13.96 L46.44,13.96  L46.44,13.96 M46.47,13.75 C46.50,13.75 46.53,13.76 46.53,13.81 C46.53,13.85 46.50,13.90 46.44,13.90 C46.39,13.90 46.38,13.88 46.38,13.85 C46.38,13.78 46.42,13.75 46.47,13.75 "
                     id="path104" />
                </g>
              </g>
            </g>
          </g>
          <g
             opacity="1.00"
             id="g106" />
          <g
             opacity="1.00"
             id="g108" />
          <g
             opacity="1.00"
             id="g110" />
          <g
             opacity="1.00"
             id="g112" />
          <g
             opacity="1.00"
             id="g114" />
        </g>
      </g>
    </g>
  </g>
</svg>
