<?xml version="1.0" standalone="no"?>
<!-- Generator: OCAD Version 10.3.0 -->
<!DOCTYPE svg PUBLIC "-//W3C//DTD SVG 20010904//EN"
"http://www.w3.org/TR/2001/REC-SVG-20010904/DTD/svg10.dtd" [
<!ENTITY stR "stroke-linejoin:round;stroke-linecap:round">
<!ENTITY stB "stroke-linejoin:bevel">
]>
<svg id="mainMap" width="4.4280cm" height="1.6640cm" viewBox="0 0 44.2800 16.6400" style="fill:none;stroke-width:0;fill-rule:evenodd" xmlns:xlink="http://www.w3.org/1999/xlink" xmlns="http://www.w3.org/2000/svg" >
<desc>Map</desc>
<g id="scaleTransform" transform="scale(1.00000000)">
<g id="mainMapContent">
<!-- map fill color -->
<rect id="mapBg" x="-100%" y="-100%" width="200%" height="200%" fill="white" />
<g>
<clipPath id="Clip" fill="none" stroke="none">
<rect x="0" y="0" width="44.2800" height="16.6400" fill="none" />
</clipPath>
<g clip-path="url(#Clip)">
<g opacity="1.00">
</g>
<g opacity="1.00">
<g id="9.0 reklamy - b\355l\341 doln\355 398" >
<g stroke="rgb(255,255,255)">
<g fill="rgb(255,255,255)" >
<path 
d="M0.11,0.12
44.14,0.12 
44.14,16.57 
0.11,16.57 
0.11,0.12 
" />
</g>
</g>
</g>
</g>
<g opacity="1.00">
</g>
<g opacity="1.00">
</g>
<g opacity="1.00">
</g>
<g opacity="1.00">
</g>
<g opacity="1.00">
</g>
<g opacity="1.00">
</g>
<g opacity="1.00">
</g>
<g opacity="1.00">
</g>
<g opacity="1.00">
<g id="4.5 reklamy - modr\341 sv\354tl\341 Equica 335" >
<g stroke="rgb(199,214,237)">
<g fill="rgb(199,214,237)" >
<path 
d="M31.08,6.21
34.14,6.21 
34.14,3.16 
31.08,3.16 
31.08,6.21 
" />
</g>
<g fill="rgb(199,214,237)" >
<path 
d="M31.08,9.71
34.14,9.71 
34.14,6.66 
31.08,6.66 
31.08,9.71 
" />
</g>
<g fill="rgb(199,214,237)" >
<path 
d="M31.08,13.20
34.14,13.20 
34.14,10.15 
31.08,10.15 
31.08,13.20 
" />
</g>
<g fill="rgb(199,214,237)" >
<path 
d="M38.13,6.21
41.18,6.21 
41.18,3.16 
38.13,3.16 
38.13,6.21 
" />
</g>
<g fill="rgb(199,214,237)" >
<path 
d="M38.13,9.71
41.18,9.71 
41.18,6.66 
38.13,6.66 
38.13,9.71 
" />
</g>
<g fill="rgb(199,214,237)" >
<path 
d="M38.13,13.20
41.18,13.20 
41.18,10.15 
38.13,10.15 
38.13,13.20 
" />
</g>
<g fill="rgb(199,214,237)" >
<path 
d="M34.59,6.21
37.65,6.21 
37.65,3.16 
34.59,3.16 
34.59,6.21 
" />
</g>
<g fill="rgb(199,214,237)" >
<path 
d="M34.59,9.71
37.65,9.71 
37.65,6.66 
34.59,6.66 
34.59,9.71 
" />
</g>
<g fill="rgb(199,214,237)" >
<path 
d="M34.59,13.20
37.65,13.20 
37.65,10.15 
34.59,10.15 
34.59,13.20 
" />
</g>
</g>
</g>
</g>
<g opacity="1.00">
</g>
<g opacity="1.00">
<g id="4.4 reklamy - modr\341 tmav\351 Equica 334" >
<g stroke="rgb(5,28,255)">
<g fill="rgb(5,28,255)" >
<path 
d="M6.04,9.01
C5.95,9.01 5.86,9.01 5.76,9.01
C4.29,9.01 3.44,8.33 3.21,7.06
C6.04,7.06 6.04,7.06 6.04,7.06
C6.04,6.35 6.04,6.35 6.04,6.35
C3.25,6.35 3.27,6.35 3.25,6.35
C3.50,5.16 4.37,4.55 5.78,4.55
C5.88,4.55 5.97,4.55 6.04,4.57
C6.04,3.87 6.04,3.87 6.04,3.87
C5.83,3.87 5.83,3.87 5.83,3.87
C4.98,3.87 4.30,4.01 3.87,4.27
C2.93,4.84 2.46,5.73 2.46,6.78
C2.46,7.86 2.93,8.75 3.87,9.32
C4.30,9.57 4.98,9.71 5.83,9.71
C6.04,9.71 6.04,9.71 6.04,9.71
C6.04,9.01 6.04,9.01 6.04,9.01
" />
</g>
<g fill="rgb(5,28,255)" >
<path 
d="M9.63,3.78
C8.82,3.78 8.10,4.11 7.53,4.66
C6.97,5.25 6.66,5.98 6.66,6.78
C6.66,8.24 7.59,9.43 9.08,9.75
C9.08,9.01 9.08,9.01 9.08,9.01
C8.09,8.75 7.45,7.85 7.45,6.76
C7.45,6.18 7.68,5.61 8.10,5.16
C8.49,4.73 9.05,4.50 9.63,4.50
C10.19,4.50 10.75,4.73 11.16,5.16
C11.57,5.61 11.79,6.18 11.79,6.76
C11.79,7.85 11.16,8.75 10.15,9.01
C10.15,7.80 10.15,7.80 10.15,7.80
C9.38,7.80 9.38,7.80 9.38,7.80
C9.38,10.84 9.38,10.84 9.38,10.84
C10.15,10.84 10.15,10.84 10.15,10.84
C10.15,9.78 10.15,9.78 10.15,9.78
C11.66,9.43 12.60,8.24 12.60,6.78
C12.60,5.98 12.27,5.25 11.71,4.66
C11.16,4.11 10.41,3.78 9.63,3.78
C9.63,3.78 9.63,3.78 9.63,3.78
" />
</g>
<g fill="rgb(5,28,255)" >
<path 
d="M16.60,7.49
C16.60,8.55 16.15,9.09 15.36,9.09
C14.56,9.09 14.10,8.55 14.10,7.49
C14.10,3.87 14.10,3.87 14.10,3.87
C13.31,3.87 13.31,3.87 13.31,3.87
C13.31,7.56 13.31,7.56 13.31,7.56
C13.31,8.97 14.16,9.80 15.36,9.80
C16.55,9.80 17.39,8.97 17.39,7.56
C17.39,3.87 17.39,3.87 17.39,3.87
C16.60,3.87 16.60,3.87 16.60,3.87
C16.60,7.49 16.60,7.49 16.60,7.49
" />
</g>
<g fill="rgb(5,28,255)" >
<path 
d="M18.42,9.71
19.19,9.71 
19.19,3.87 
18.42,3.87 
18.42,9.71 
" />
</g>
<g fill="rgb(5,28,255)" >
<path 
d="M23.66,9.71
C23.66,9.01 23.66,9.01 23.66,9.01
C23.55,9.02 23.49,9.02 23.38,9.02
C21.77,9.02 20.83,8.13 20.83,6.78
C20.83,5.44 21.78,4.55 23.38,4.55
C23.49,4.55 23.55,4.55 23.66,4.57
C23.66,3.87 23.66,3.87 23.66,3.87
C23.44,3.87 23.44,3.87 23.44,3.87
C22.56,3.87 21.91,4.01 21.46,4.27
C20.53,4.84 20.03,5.73 20.02,6.78
C20.02,7.86 20.53,8.75 21.46,9.32
C21.91,9.57 22.56,9.71 23.44,9.71
C23.66,9.71 23.66,9.71 23.66,9.71
" />
</g>
<g fill="rgb(5,28,255)" >
<path 
d="M26.42,3.78
C25.25,3.78 24.38,4.62 24.38,6.05
C24.38,9.71 24.38,9.71 24.38,9.71
C25.16,9.71 25.16,9.71 25.15,9.71
C25.16,6.06 25.16,6.06 25.15,6.06
C25.16,5.02 25.62,4.50 26.42,4.50
C27.21,4.50 27.66,5.02 27.66,6.06
C27.66,6.29 27.66,6.29 27.66,6.29
C25.41,6.29 25.41,6.29 25.40,6.29
C25.41,7.03 25.41,7.03 25.40,7.03
C27.66,7.03 27.66,7.03 27.66,7.03
C27.66,9.71 27.66,9.71 27.66,9.71
C28.45,9.71 28.45,9.71 28.45,9.71
C28.45,6.05 28.45,6.05 28.45,6.05
C28.45,4.62 27.61,3.78 26.42,3.78
C26.42,3.78 26.42,3.78 26.42,3.78
" />
</g>
<g fill="rgb(5,28,255)" >
<path 
d="M26.84,13.24
26.84,13.10 
26.85,13.10 
C26.93,13.10 26.99,13.08 27.03,13.04
C27.08,12.97 27.12,12.89 27.12,12.77
C27.12,12.68 27.08,12.62 27.03,12.56
C26.99,12.52 26.92,12.49 26.84,12.49
L26.84,12.49 
26.84,12.34 
C26.94,12.34 27.05,12.37 27.14,12.46
C27.23,12.54 27.29,12.64 27.29,12.78
C27.29,12.90 27.26,13.01 27.18,13.10
C27.11,13.19 27.00,13.24 26.87,13.24
C26.86,13.24 26.85,13.24 26.84,13.24
L26.84,13.24 
L26.84,13.24
M27.43,12.35
27.58,12.35 
27.58,12.47 
C27.60,12.42 27.62,12.39 27.65,12.37
C27.69,12.35 27.75,12.34 27.80,12.34
L27.86,12.34 
27.86,12.49 
27.82,12.49 
C27.73,12.49 27.68,12.53 27.62,12.59
C27.60,12.64 27.59,12.70 27.59,12.77
L27.59,13.23 
27.43,13.23 
27.43,12.35 
27.43,12.35 
L27.43,12.35
M27.89,13.08
28.33,13.08 
28.34,13.08 
C28.38,13.08 28.40,13.08 28.41,13.07
C28.44,13.06 28.44,13.04 28.44,13.01
C28.44,12.96 28.40,12.92 28.31,12.89
C28.24,12.87 28.19,12.85 28.15,12.84
C28.06,12.81 28.01,12.78 27.97,12.75
C27.91,12.70 27.89,12.65 27.89,12.59
C27.89,12.51 27.93,12.45 28.00,12.41
C28.05,12.37 28.12,12.36 28.19,12.36
L28.56,12.36 
28.56,12.52 
28.17,12.52 
C28.10,12.52 28.06,12.54 28.06,12.59
C28.06,12.62 28.11,12.65 28.16,12.67
C28.17,12.68 28.24,12.69 28.31,12.73
C28.42,12.76 28.50,12.78 28.54,12.83
C28.59,12.88 28.61,12.94 28.61,13.01
C28.61,13.10 28.58,13.17 28.50,13.19
C28.46,13.21 28.40,13.23 28.33,13.23
L28.28,13.23 
27.89,13.23 
27.89,13.08 
L27.89,13.08
M26.84,12.34
26.84,12.49 
C26.75,12.49 26.66,12.53 26.62,12.57
C26.57,12.64 26.56,12.70 26.56,12.78
C26.56,12.87 26.57,12.94 26.61,12.99
C26.66,13.06 26.74,13.10 26.84,13.10
L26.84,13.24 
C26.71,13.24 26.60,13.19 26.51,13.12
C26.43,13.04 26.38,12.92 26.38,12.79
L26.38,12.78 
C26.38,12.65 26.43,12.55 26.52,12.47
C26.61,12.37 26.72,12.34 26.84,12.34
L26.84,12.34 
26.84,12.34 
L26.84,12.34
M20.44,13.24
20.44,13.10 
20.44,13.10 
C20.52,13.10 20.59,13.08 20.64,13.04
C20.69,12.97 20.71,12.89 20.71,12.77
C20.71,12.68 20.69,12.62 20.64,12.56
C20.59,12.52 20.52,12.49 20.44,12.49
L20.44,12.49 
20.44,12.34 
C20.55,12.34 20.66,12.37 20.73,12.46
C20.83,12.54 20.87,12.64 20.87,12.78
C20.87,12.90 20.84,13.01 20.77,13.10
C20.69,13.19 20.60,13.24 20.46,13.24
C20.45,13.24 20.44,13.24 20.44,13.24
L20.44,13.24 
L20.44,13.24
M21.03,13.23
21.03,12.27 
C21.03,12.15 21.08,12.07 21.14,12.00
C21.19,11.96 21.25,11.94 21.31,11.94
L21.47,11.94 
21.47,12.09 
21.34,12.09 
C21.30,12.09 21.27,12.11 21.24,12.14
C21.22,12.17 21.20,12.21 21.20,12.25
L21.20,12.35 
21.44,12.35 
21.44,12.51 
21.20,12.51 
21.20,13.23 
21.03,13.23 
21.03,13.23 
L21.03,13.23
M22.31,13.23
22.31,12.38 
C22.31,12.25 22.35,12.13 22.44,12.05
C22.52,11.96 22.61,11.92 22.73,11.92
C22.86,11.92 22.97,11.96 23.05,12.05
C23.13,12.13 23.16,12.26 23.16,12.42
L23.16,13.23 
23.01,13.23 
23.01,12.65 
22.54,12.65 
22.54,12.49 
23.01,12.49 
23.01,12.43 
C23.01,12.21 22.92,12.08 22.74,12.08
C22.66,12.08 22.58,12.12 22.53,12.19
C22.51,12.25 22.49,12.32 22.49,12.38
L22.49,13.23 
22.31,13.23 
22.31,13.23 
L22.31,13.23
M24.00,11.95
24.17,11.95 
24.17,12.81 
C24.17,12.92 24.13,13.01 24.07,13.09
C23.98,13.19 23.86,13.24 23.73,13.24
C23.57,13.24 23.47,13.20 23.38,13.10
C23.31,13.02 23.29,12.92 23.29,12.81
C23.29,12.66 23.34,12.55 23.42,12.46
C23.51,12.38 23.59,12.35 23.69,12.35
C23.76,12.35 23.80,12.35 23.85,12.36
C23.89,12.37 23.92,12.38 23.94,12.39
L23.94,12.56 
C23.92,12.55 23.89,12.54 23.85,12.53
C23.79,12.51 23.75,12.49 23.70,12.49
C23.63,12.50 23.56,12.53 23.52,12.57
C23.47,12.64 23.44,12.69 23.44,12.79
L23.44,12.83 
C23.45,12.93 23.50,12.99 23.56,13.05
C23.62,13.08 23.67,13.11 23.75,13.11
C23.81,13.11 23.89,13.07 23.94,13.01
C23.98,12.94 24.00,12.84 24.00,12.75
L24.00,11.95 
24.00,11.95 
L24.00,11.95
M24.22,12.35
24.39,12.35 
24.64,13.04 
24.90,12.35 
25.06,12.35 
24.76,13.17 
C24.74,13.21 24.69,13.24 24.64,13.24
C24.61,13.24 24.59,13.24 24.56,13.23
C24.53,13.21 24.52,13.19 24.51,13.17
L24.22,12.35 
24.22,12.35 
L24.22,12.35
M25.19,12.15
C25.19,12.12 25.20,12.09 25.22,12.08
C25.24,12.07 25.26,12.06 25.29,12.06
C25.31,12.06 25.34,12.07 25.36,12.08
C25.38,12.09 25.38,12.12 25.38,12.15
C25.38,12.19 25.38,12.21 25.36,12.22
C25.34,12.24 25.32,12.25 25.30,12.25
C25.26,12.25 25.24,12.24 25.22,12.22
C25.20,12.21 25.19,12.19 25.19,12.15
L25.19,12.15 
L25.19,12.15
M25.21,13.23
25.21,12.35 
25.36,12.35 
25.36,13.23 
25.21,13.23 
25.21,13.23 
L25.21,13.23
M25.60,13.08
26.03,13.08 
26.04,13.08 
C26.07,13.08 26.09,13.08 26.11,13.07
C26.14,13.06 26.16,13.04 26.15,13.01
C26.15,12.96 26.09,12.92 26.01,12.89
C25.93,12.87 25.88,12.85 25.83,12.84
C25.76,12.81 25.68,12.78 25.66,12.75
C25.62,12.70 25.60,12.65 25.60,12.59
C25.60,12.51 25.63,12.45 25.68,12.41
C25.74,12.37 25.81,12.36 25.89,12.36
L26.27,12.36 
26.27,12.52 
25.86,12.52 
C25.79,12.52 25.76,12.54 25.76,12.59
C25.76,12.62 25.79,12.65 25.85,12.67
C25.87,12.68 25.93,12.69 26.02,12.73
C26.13,12.76 26.20,12.78 26.24,12.83
C26.29,12.88 26.30,12.94 26.30,13.01
C26.30,13.10 26.28,13.17 26.21,13.19
C26.16,13.21 26.09,13.23 26.02,13.23
L25.96,13.23 
25.60,13.23 
25.60,13.08 
L25.60,13.08
M20.44,12.34
20.44,12.49 
C20.33,12.49 20.27,12.53 20.21,12.57
C20.16,12.64 20.14,12.70 20.14,12.78
C20.14,12.87 20.16,12.94 20.20,12.99
C20.26,13.06 20.32,13.10 20.44,13.10
L20.44,13.24 
C20.30,13.24 20.19,13.19 20.11,13.12
C20.02,13.04 19.99,12.92 19.99,12.79
L19.99,12.78 
C19.99,12.65 20.02,12.55 20.12,12.47
C20.20,12.37 20.31,12.34 20.42,12.34
L20.44,12.34 
20.44,12.34 
L20.44,12.34
M13.51,13.24
13.51,13.10 
13.52,13.10 
C13.59,13.10 13.67,13.08 13.71,13.04
C13.76,12.97 13.79,12.89 13.79,12.77
C13.79,12.68 13.76,12.62 13.71,12.56
C13.66,12.52 13.58,12.49 13.51,12.49
L13.51,12.49 
13.51,12.34 
C13.62,12.34 13.72,12.37 13.81,12.46
C13.90,12.54 13.96,12.64 13.96,12.78
C13.96,12.90 13.91,13.01 13.85,13.10
C13.76,13.19 13.68,13.24 13.54,13.24
C13.52,13.24 13.52,13.24 13.51,13.24
L13.51,13.24 
L13.51,13.24
M14.10,13.23
14.10,12.62 
C14.10,12.55 14.13,12.49 14.19,12.42
C14.26,12.37 14.33,12.34 14.42,12.34
C14.49,12.34 14.53,12.35 14.58,12.38
C14.60,12.39 14.64,12.42 14.67,12.47
C14.69,12.42 14.72,12.39 14.75,12.37
C14.81,12.35 14.87,12.34 14.93,12.34
C15.01,12.34 15.08,12.37 15.14,12.42
C15.20,12.49 15.23,12.55 15.23,12.62
L15.23,13.23 
15.07,13.23 
15.07,12.67 
C15.07,12.62 15.06,12.59 15.05,12.55
C15.01,12.52 14.98,12.49 14.92,12.49
C14.86,12.49 14.81,12.52 14.79,12.55
C14.75,12.57 14.74,12.62 14.74,12.67
L14.74,13.23 
14.58,13.23 
14.58,12.68 
C14.58,12.62 14.56,12.57 14.54,12.55
C14.51,12.51 14.47,12.49 14.42,12.49
C14.36,12.49 14.32,12.52 14.30,12.55
C14.27,12.59 14.26,12.64 14.26,12.69
L14.26,13.23 
14.10,13.23 
14.10,13.23 
L14.10,13.23
M15.39,13.62
15.39,12.79 
C15.39,12.64 15.44,12.53 15.54,12.45
C15.63,12.37 15.71,12.34 15.82,12.34
C15.97,12.34 16.09,12.39 16.18,12.50
C16.25,12.57 16.27,12.67 16.27,12.78
C16.27,12.90 16.25,12.99 16.20,13.08
C16.12,13.19 16.00,13.24 15.86,13.24
C15.82,13.24 15.78,13.24 15.74,13.24
C15.71,13.23 15.66,13.21 15.62,13.19
L15.62,13.02 
C15.68,13.05 15.71,13.07 15.71,13.07
C15.74,13.09 15.80,13.10 15.84,13.10
C15.93,13.10 15.99,13.07 16.05,13.02
C16.10,12.95 16.12,12.88 16.12,12.78
C16.12,12.68 16.09,12.62 16.02,12.56
C15.97,12.52 15.91,12.49 15.82,12.49
C15.74,12.49 15.69,12.52 15.64,12.56
C15.58,12.62 15.55,12.71 15.55,12.83
L15.55,13.62 
15.39,13.62 
15.39,13.62 
L15.39,13.62
M17.10,13.23
17.10,12.73 
C17.10,12.66 17.07,12.59 17.02,12.55
C16.96,12.52 16.90,12.49 16.81,12.49
C16.75,12.49 16.68,12.52 16.63,12.55
C16.55,12.59 16.53,12.68 16.53,12.78
C16.53,12.88 16.55,12.96 16.62,13.02
C16.67,13.08 16.75,13.10 16.81,13.10
C16.90,13.10 16.96,13.06 17.03,12.97
L17.03,13.17 
C16.97,13.19 16.95,13.21 16.94,13.23
C16.90,13.24 16.85,13.24 16.80,13.24
C16.69,13.24 16.58,13.21 16.51,13.13
C16.41,13.05 16.37,12.93 16.37,12.78
C16.37,12.65 16.40,12.55 16.48,12.47
C16.55,12.38 16.68,12.34 16.83,12.34
C16.96,12.34 17.07,12.37 17.14,12.47
C17.22,12.53 17.25,12.62 17.25,12.74
L17.25,13.23 
17.10,13.23 
17.10,13.23 
L17.10,13.23
M17.41,13.23
17.41,12.69 
C17.41,12.59 17.45,12.51 17.51,12.43
C17.59,12.37 17.67,12.34 17.79,12.34
C17.87,12.34 17.95,12.36 18.02,12.41
C18.11,12.49 18.15,12.57 18.15,12.70
L18.15,13.23 
18.00,13.23 
18.00,12.71 
C18.00,12.65 17.97,12.59 17.94,12.55
C17.90,12.51 17.84,12.49 17.79,12.49
C17.72,12.49 17.67,12.51 17.64,12.55
C17.59,12.59 17.58,12.64 17.58,12.69
L17.58,13.23 
17.41,13.23 
17.41,13.23 
L17.41,13.23
M18.32,12.35
18.48,12.35 
18.48,12.88 
C18.48,12.94 18.50,12.98 18.52,13.04
C18.57,13.08 18.62,13.10 18.68,13.10
C18.75,13.10 18.79,13.08 18.82,13.04
C18.86,12.98 18.89,12.94 18.89,12.88
L18.89,12.35 
19.05,12.35 
19.05,12.88 
C19.05,12.96 19.02,13.05 18.98,13.11
C18.93,13.18 18.86,13.21 18.76,13.24
L18.76,13.62 
18.61,13.62 
18.61,13.24 
C18.52,13.21 18.45,13.19 18.40,13.15
C18.35,13.08 18.32,13.02 18.32,12.92
L18.32,12.35 
L18.32,12.35
M2.44,12.59
C2.44,12.43 2.46,12.29 2.54,12.19
C2.61,12.11 2.71,12.05 2.82,11.99
C2.91,11.96 3.00,11.94 3.07,11.94
L3.21,11.94 
3.21,12.11 
3.06,12.11 
C2.94,12.11 2.82,12.15 2.73,12.23
C2.65,12.32 2.61,12.39 2.59,12.49
L3.21,12.49 
3.21,12.65 
2.59,12.65 
C2.59,12.76 2.63,12.84 2.71,12.93
C2.79,13.04 2.91,13.08 3.04,13.08
L3.21,13.08 
3.21,13.23 
3.06,13.23 
C2.91,13.23 2.75,13.18 2.63,13.07
C2.48,12.95 2.44,12.79 2.44,12.59
L2.44,12.59 
L2.44,12.59
M13.51,12.34
13.51,12.49 
C13.42,12.49 13.34,12.53 13.28,12.57
C13.24,12.64 13.21,12.70 13.21,12.78
C13.21,12.87 13.24,12.94 13.28,12.99
C13.33,13.06 13.40,13.10 13.51,13.10
L13.51,13.24 
C13.38,13.24 13.26,13.19 13.18,13.12
C13.10,13.04 13.05,12.92 13.05,12.79
L13.05,12.78 
C13.05,12.65 13.11,12.55 13.19,12.47
C13.28,12.37 13.39,12.34 13.49,12.34
L13.51,12.34 
13.51,12.34 
L13.51,12.34
M4.05,13.62
4.05,12.82 
C4.05,12.69 4.03,12.61 3.95,12.55
C3.91,12.51 3.84,12.49 3.77,12.49
C3.70,12.49 3.64,12.51 3.59,12.55
C3.52,12.61 3.48,12.68 3.48,12.79
C3.48,12.89 3.52,12.96 3.57,13.02
C3.62,13.07 3.69,13.10 3.74,13.10
C3.79,13.10 3.84,13.09 3.87,13.08
C3.92,13.07 3.95,13.05 3.99,13.02
L3.99,13.19 
C3.95,13.20 3.92,13.21 3.87,13.23
C3.81,13.24 3.78,13.24 3.74,13.24
C3.62,13.24 3.52,13.19 3.44,13.11
C3.36,13.02 3.33,12.92 3.33,12.81
L3.33,12.80 
C3.33,12.65 3.36,12.55 3.46,12.47
C3.55,12.37 3.64,12.34 3.76,12.34
C3.87,12.34 3.98,12.37 4.06,12.45
C4.16,12.53 4.21,12.64 4.21,12.79
L4.21,13.62 
4.05,13.62 
4.05,13.62 
L4.05,13.62
M4.36,12.35
4.52,12.35 
4.52,12.89 
C4.52,12.95 4.55,12.99 4.59,13.04
C4.63,13.08 4.68,13.10 4.74,13.10
C4.79,13.10 4.86,13.08 4.89,13.04
C4.93,12.98 4.94,12.94 4.94,12.89
L4.94,12.35 
5.11,12.35 
5.11,12.88 
C5.11,12.98 5.07,13.08 5.00,13.15
C4.94,13.21 4.86,13.24 4.74,13.24
C4.63,13.24 4.55,13.21 4.48,13.17
C4.41,13.09 4.36,12.98 4.36,12.85
L4.36,12.35 
4.36,12.35 
L4.36,12.35
M5.35,12.15
C5.35,12.12 5.35,12.09 5.38,12.08
C5.40,12.07 5.42,12.06 5.44,12.06
C5.47,12.06 5.49,12.07 5.50,12.08
C5.54,12.09 5.54,12.12 5.54,12.15
C5.54,12.19 5.54,12.21 5.52,12.22
C5.49,12.24 5.47,12.25 5.44,12.25
C5.42,12.25 5.40,12.24 5.38,12.22
C5.35,12.21 5.35,12.19 5.35,12.15
L5.35,12.15 
L5.35,12.15
M5.35,13.23
5.35,12.35 
5.52,12.35 
5.52,13.23 
5.35,13.23 
5.35,13.23 
L5.35,13.23
M5.81,11.94
5.98,11.94 
5.98,13.23 
5.81,13.23 
5.81,11.94 
5.81,11.94 
L5.81,11.94
M6.24,12.15
C6.24,12.12 6.26,12.09 6.27,12.08
C6.29,12.07 6.30,12.06 6.34,12.06
C6.37,12.06 6.39,12.07 6.41,12.08
C6.42,12.09 6.44,12.12 6.44,12.15
C6.44,12.19 6.43,12.21 6.41,12.22
C6.39,12.24 6.37,12.25 6.34,12.25
C6.32,12.25 6.29,12.24 6.27,12.22
C6.26,12.21 6.24,12.19 6.24,12.15
L6.24,12.15 
L6.24,12.15
M6.26,13.23
6.26,12.35 
6.42,12.35 
6.42,13.23 
6.26,13.23 
6.26,13.23 
L6.26,13.23
M6.67,11.94
6.83,11.94 
6.83,12.78 
C6.83,12.87 6.85,12.94 6.89,13.01
C6.95,13.07 7.02,13.10 7.11,13.10
C7.20,13.10 7.27,13.07 7.31,12.99
C7.37,12.94 7.39,12.87 7.39,12.79
C7.39,12.68 7.37,12.61 7.30,12.55
C7.25,12.52 7.18,12.49 7.11,12.49
C7.07,12.49 7.02,12.50 6.98,12.52
C6.96,12.53 6.93,12.54 6.88,12.56
L6.88,12.39 
C6.93,12.37 6.95,12.36 6.99,12.35
C7.03,12.35 7.07,12.34 7.10,12.34
C7.23,12.34 7.34,12.37 7.43,12.47
C7.50,12.54 7.55,12.64 7.55,12.77
C7.55,12.90 7.51,13.02 7.44,13.11
C7.36,13.20 7.25,13.24 7.11,13.24
C6.97,13.24 6.87,13.20 6.80,13.12
C6.70,13.04 6.67,12.92 6.67,12.79
L6.67,11.94 
6.67,11.94 
L6.67,11.94
M7.68,12.35
7.83,12.35 
7.83,12.47 
C7.85,12.42 7.88,12.39 7.92,12.37
C7.96,12.35 8.00,12.34 8.06,12.34
L8.10,12.34 
8.10,12.49 
8.08,12.49 
C7.98,12.49 7.93,12.53 7.88,12.59
C7.85,12.64 7.84,12.70 7.84,12.77
L7.84,13.23 
7.68,13.23 
7.68,12.35 
7.68,12.35 
L7.68,12.35
M8.25,12.15
C8.25,12.12 8.26,12.09 8.27,12.08
C8.30,12.07 8.33,12.06 8.34,12.06
C8.37,12.06 8.40,12.07 8.41,12.08
C8.43,12.09 8.44,12.12 8.44,12.15
C8.44,12.19 8.43,12.21 8.41,12.22
C8.40,12.24 8.38,12.25 8.34,12.25
C8.33,12.25 8.30,12.24 8.27,12.22
C8.26,12.21 8.25,12.19 8.25,12.15
L8.25,12.15 
L8.25,12.15
M8.26,13.23
8.26,12.35 
8.43,12.35 
8.43,13.23 
8.26,13.23 
8.26,13.23 
L8.26,13.23
M8.68,12.35
8.83,12.35 
8.83,12.89 
C8.83,12.95 8.85,12.99 8.91,13.04
C8.94,13.08 8.98,13.10 9.04,13.10
C9.11,13.10 9.17,13.08 9.20,13.04
C9.24,12.98 9.26,12.94 9.26,12.89
L9.26,12.35 
9.41,12.35 
9.41,12.88 
C9.41,12.98 9.38,13.08 9.32,13.15
C9.25,13.21 9.16,13.24 9.04,13.24
C8.94,13.24 8.86,13.21 8.79,13.17
C8.71,13.09 8.68,12.98 8.68,12.85
L8.68,12.35 
8.68,12.35 
L8.68,12.35
M9.59,13.23
9.59,12.62 
C9.59,12.55 9.62,12.49 9.67,12.42
C9.74,12.37 9.81,12.34 9.93,12.34
C9.97,12.34 10.02,12.35 10.06,12.38
C10.09,12.39 10.12,12.42 10.15,12.47
C10.18,12.42 10.20,12.39 10.25,12.37
C10.30,12.35 10.36,12.34 10.41,12.34
C10.50,12.34 10.58,12.37 10.62,12.42
C10.68,12.49 10.73,12.55 10.72,12.62
L10.72,13.23 
10.57,13.23 
10.57,12.67 
C10.57,12.62 10.55,12.59 10.53,12.55
C10.50,12.52 10.46,12.49 10.40,12.49
C10.35,12.49 10.30,12.52 10.26,12.55
C10.24,12.57 10.23,12.62 10.23,12.67
L10.23,13.23 
10.07,13.23 
10.07,12.68 
C10.07,12.62 10.06,12.57 10.02,12.55
C9.99,12.51 9.97,12.49 9.91,12.49
C9.86,12.49 9.80,12.52 9.78,12.55
C9.77,12.59 9.75,12.64 9.75,12.69
L9.75,13.23 
9.59,13.23 
9.59,13.23 
L9.59,13.23
M10.95,13.15
C10.95,13.11 10.96,13.08 10.97,13.06
C11.00,13.05 11.03,13.04 11.06,13.04
C11.08,13.04 11.11,13.05 11.14,13.06
C11.16,13.08 11.17,13.10 11.17,13.15
C11.17,13.17 11.16,13.19 11.14,13.21
C11.11,13.23 11.09,13.24 11.06,13.24
C11.03,13.24 11.00,13.23 10.97,13.21
C10.96,13.19 10.95,13.17 10.95,13.15
L10.95,13.15 
L10.95,13.15
M12.17,12.57
C12.17,12.39 12.23,12.24 12.39,12.11
C12.50,11.99 12.65,11.94 12.81,11.94
L12.97,11.94 
12.97,12.11 
12.83,12.11 
C12.67,12.11 12.55,12.17 12.46,12.26
C12.40,12.36 12.35,12.47 12.35,12.59
C12.35,12.70 12.37,12.80 12.45,12.89
C12.50,13.02 12.64,13.08 12.83,13.08
L12.97,13.08 
12.97,13.23 
12.79,13.23 
C12.61,13.23 12.46,13.18 12.35,13.05
C12.22,12.93 12.17,12.77 12.17,12.57
" />
</g>
</g>
</g>
</g>
<g opacity="1.00">
</g>
<g opacity="1.00">
</g>
<g opacity="1.00">
</g>
<g opacity="1.00">
<g id="3.0 reklamy - \350erven\341 311" >
<g stroke="rgb(255,0,0)">
<g fill="rgb(255,0,0)" >
<path 
d="M40.47,9.85
C40.00,10.02 39.60,10.18 39.24,10.38
C38.48,10.79 37.93,11.01 37.93,11.01
C35.85,11.68 34.57,10.14 34.57,10.14
C32.47,7.91 31.68,2.47 31.68,2.47
C31.55,2.47 31.55,2.47 31.55,2.47
C31.55,2.47 32.16,12.60 36.02,12.60
C36.02,12.60 37.09,12.63 38.22,11.87
C38.22,11.87 39.49,11.10 40.61,10.31
C40.61,10.31 41.84,9.46 43.17,9.48
C43.17,9.39 43.17,9.39 43.17,9.39
C41.94,9.23 40.47,9.85 40.47,9.84
C40.47,9.85 40.47,9.85 40.47,9.84
" />
</g>
</g>
</g>
</g>
<g opacity="1.00">
</g>
<g opacity="1.00">
</g>
<g opacity="1.00">
<g id="12.1 black line 0,1 301" >
<g stroke="rgb(0,0,0)">
<g stroke-width="0.15"
style="&stB;"
>
<path 
d="M0.11,0.12
L44.14,0.12
L44.14,0.12
L44.14,16.57
L44.14,16.57
L0.11,16.57
L0.11,16.57
L0.11,0.12
L44.14,0.12
" />
</g>
</g>
</g>
</g>
<g opacity="1.00">
</g>
<g opacity="1.00">
</g>
</g>
</g>
</g>
</g>
</svg>
