<?xml version="1.0" encoding="UTF-8" standalone="no"?>
<!-- Generator: OCAD Version 10.3.0 -->

<svg
   xmlns:dc="http://purl.org/dc/elements/1.1/"
   xmlns:cc="http://creativecommons.org/ns#"
   xmlns:rdf="http://www.w3.org/1999/02/22-rdf-syntax-ns#"
   xmlns:svg="http://www.w3.org/2000/svg"
   xmlns="http://www.w3.org/2000/svg"
   xmlns:sodipodi="http://sodipodi.sourceforge.net/DTD/sodipodi-0.dtd"
   xmlns:inkscape="http://www.inkscape.org/namespaces/inkscape"
   id="mainMap"
   width="3.9900cm"
   height="2.7840cm"
   viewBox="0 0 39.9000 27.8400"
   style="fill:none;stroke-width:0;fill-rule:evenodd"
   version="1.1"
   inkscape:version="0.48.5 r10040"
   sodipodi:docname="hsh.svg">
  <metadata
     id="metadata106">
    <rdf:RDF>
      <cc:Work
         rdf:about="">
        <dc:format>image/svg+xml</dc:format>
        <dc:type
           rdf:resource="http://purl.org/dc/dcmitype/StillImage" />
      </cc:Work>
    </rdf:RDF>
  </metadata>
  <defs
     id="defs104" />
  <sodipodi:namedview
     pagecolor="#ffffff"
     bordercolor="#666666"
     borderopacity="1"
     objecttolerance="10"
     gridtolerance="10"
     guidetolerance="10"
     inkscape:pageopacity="0"
     inkscape:pageshadow="2"
     inkscape:window-width="1280"
     inkscape:window-height="972"
     id="namedview102"
     showgrid="false"
     inkscape:zoom="2.2351433"
     inkscape:cx="70.68898"
     inkscape:cy="49.322834"
     inkscape:window-x="-8"
     inkscape:window-y="22"
     inkscape:window-maximized="1"
     inkscape:current-layer="mainMapContent" />
  <desc
     id="desc3">Map</desc>
  <g
     id="scaleTransform"
     transform="scale(1.00000000)">
    <g
       id="mainMapContent">
      <!-- map fill color -->
      <g
         id="g8">
        <clipPath
           id="Clip"
           fill="none"
           stroke="none">
          <rect
             x="0"
             y="0"
             width="39.9000"
             height="27.8400"
             fill="none"
             id="rect11" />
        </clipPath>
        <g
           clip-path="url(#Clip)"
           id="g13">
          <g
             opacity="1.00"
             id="g15" />
          <g
             opacity="1.00"
             id="g17" />
          <g
             opacity="1.00"
             id="g19" />
          <g
             opacity="1.00"
             id="g21">
            <g
               id="6.0 reklamy - \236lut\341 100% HSH 323">
              <g
                 stroke="rgb(255,255,0)"
                 id="g24">
                <g
                   fill="rgb(255,255,0)"
                   id="g26">
                  <path
                     d="M3.97,1.13 35.12,1.13  C36.62,1.13 37.88,2.48 37.88,4.11 L37.88,22.91  C37.88,24.54 36.62,25.88 35.12,25.88 L3.97,25.88  C2.46,25.88 1.24,24.54 1.24,22.91 L1.24,4.11  C1.24,2.48 2.46,1.13 3.97,1.13 "
                     id="path28" />
                </g>
              </g>
            </g>
          </g>
          <g
             opacity="1.00"
             id="g30" />
          <g
             opacity="1.00"
             id="g32" />
          <g
             opacity="1.00"
             id="g34" />
          <g
             opacity="1.00"
             id="g36" />
          <g
             opacity="1.00"
             id="g38" />
          <g
             opacity="1.00"
             id="g40" />
          <g
             opacity="1.00"
             id="g42" />
          <g
             opacity="1.00"
             id="g44" />
          <g
             opacity="1.00"
             id="g46" />
          <g
             opacity="1.00"
             id="g48">
            <g
               id="7.1 reklamy - oran\236ov\341 HSH 326">
              <g
                 stroke="rgb(255,127,0)"
                 id="g51">
                <g
                   fill="rgb(255,127,0)"
                   id="g53">
                  <path
                     d="M8.01,18.22 C8.15,18.24 8.27,18.14 8.31,18.02 C8.32,17.94 8.39,17.89 8.47,17.86 C8.59,17.78 8.70,17.85 8.81,17.80 C8.93,17.74 9.05,17.74 9.17,17.68 C9.24,17.67 9.28,17.63 9.34,17.60 C9.58,17.57 9.73,17.40 9.95,17.31 L10.61,16.92  11.68,16.39  C11.86,16.35 12.01,16.22 12.18,16.11 C12.30,16.05 12.40,15.94 12.49,15.90 C12.64,15.77 12.76,15.61 12.91,15.56 C13.07,15.49 13.15,15.40 13.23,15.28 C13.26,15.23 13.26,15.19 13.26,15.17 C13.23,15.13 13.22,15.09 13.23,15.04 L13.22,14.97  13.07,14.50  C13.00,14.33 12.84,14.23 12.71,14.12 C12.49,13.96 12.22,13.96 11.96,14.04 C11.63,14.04 11.26,14.06 10.99,13.84 L11.56,13.33  11.69,13.21  12.01,13.07  12.18,13.03  C12.19,13.03 12.22,13.02 12.22,13.02 L12.34,12.97  12.47,12.91  12.81,12.79  C12.82,12.75 12.84,12.71 12.91,12.71 C13.00,12.72 13.07,12.69 13.17,12.71 L13.36,12.68  C13.43,12.70 13.52,12.68 13.58,12.65 C13.63,12.61 13.65,12.59 13.70,12.56 C13.70,12.56 13.72,12.56 13.76,12.56 L13.80,12.53  13.80,12.23  C13.80,12.21 13.77,12.21 13.78,12.19 L13.62,11.96  13.56,11.91  C13.56,11.91 13.54,11.91 13.54,11.88 L13.26,11.65  C12.93,11.61 12.62,11.87 12.29,11.88 C12.11,11.96 11.93,11.91 11.74,11.99 C11.44,12.10 11.16,12.25 10.92,12.41 C10.42,12.75 9.82,13.05 9.72,13.68 C9.69,13.89 9.77,14.08 9.90,14.27 C9.97,14.37 10.11,14.44 10.22,14.54 C10.49,14.75 10.81,14.96 11.17,14.93 C11.21,14.93 11.26,14.91 11.29,14.96 C11.29,14.98 11.31,14.98 11.31,14.98 C11.26,15.28 10.94,15.36 10.73,15.55 C10.45,15.73 10.11,15.90 9.84,16.05 L9.19,16.43  C8.55,16.74 8.11,17.22 7.50,17.57 C7.41,17.72 7.46,17.86 7.56,17.97 C7.61,18.07 7.76,18.08 7.83,18.17 C7.83,18.18 7.84,18.18 7.84,18.18 L7.99,18.21  C7.99,18.22 8.00,18.21 8.01,18.22 "
                     id="path55" />
                </g>
                <g
                   fill="rgb(255,127,0)"
                   id="g57">
                  <path
                     d="M13.99,18.22 14.30,18.18  C14.31,18.17 14.32,18.16 14.35,18.16 L14.47,17.97  C14.47,17.94 14.50,17.92 14.51,17.90 L14.64,17.29  C14.64,17.29 14.64,17.29 14.64,17.27 L14.67,17.13  C14.67,17.10 14.67,17.13 14.68,17.10 L14.79,16.71  14.79,16.60  14.80,16.56  14.81,16.49  14.83,16.34  14.95,16.04  15.05,15.67  15.10,15.28  C15.13,15.26 15.13,15.23 15.15,15.19 L15.19,15.00  C15.21,14.97 15.19,15.00 15.22,14.97 L15.26,14.75  15.37,14.65  C15.44,14.65 15.51,14.59 15.59,14.59 C15.66,14.52 15.73,14.49 15.80,14.44 C15.86,14.42 15.88,14.37 15.95,14.35 C15.98,14.32 15.98,14.32 16.03,14.30 L16.08,14.23  16.51,14.19  16.69,14.09  16.84,14.00  C16.84,14.09 16.74,14.19 16.69,14.30 C16.59,14.41 16.64,14.55 16.58,14.70 C16.58,14.77 16.53,14.80 16.49,14.85 L16.46,14.97  16.49,15.40  C16.58,15.50 16.65,15.61 16.71,15.73 C16.80,15.77 16.86,15.75 16.93,15.78 C17.16,15.84 17.41,15.79 17.65,15.80 C17.76,15.77 17.84,15.80 17.97,15.78 C18.11,15.74 18.20,15.74 18.36,15.73 L18.55,15.67  19.31,15.29  19.67,15.09  20.15,14.85  20.45,14.70  20.50,14.64  20.78,14.50  C20.78,14.49 20.81,14.49 20.81,14.48 L21.10,14.36  C21.15,14.41 21.10,14.48 21.08,14.55 C21.03,14.65 21.02,14.74 21.00,14.85 C21.02,15.10 21.01,15.35 21.16,15.57 C21.20,15.68 21.33,15.69 21.44,15.73 C21.57,15.78 21.68,15.74 21.80,15.75 C21.91,15.68 22.00,15.59 22.05,15.49 L22.13,15.29  22.20,15.17  C22.20,15.10 22.22,15.06 22.27,15.02 L22.29,14.90  22.30,14.85  C22.30,14.85 22.30,14.81 22.33,14.81 L22.34,14.64  C22.39,14.55 22.46,14.48 22.46,14.37 C22.62,14.16 22.60,13.83 22.82,13.71 C22.90,13.71 22.98,13.71 23.05,13.71 C23.27,13.65 23.48,13.68 23.69,13.73 C24.20,14.00 24.51,14.38 25.05,14.61 L26.28,15.09  C26.58,15.20 26.90,15.28 27.22,15.30 C27.65,15.36 28.06,15.45 28.49,15.42 C28.56,15.45 28.63,15.42 28.70,15.42 L28.90,15.29  C28.98,15.29 29.05,15.23 29.09,15.17 C29.10,15.13 29.10,15.06 29.14,15.04 C29.14,14.94 29.17,14.85 29.07,14.80 L29.03,14.65  29.05,14.55  C29.04,14.55 29.03,14.55 29.02,14.52 C29.01,14.52 28.98,14.52 28.96,14.50 C28.86,14.55 28.81,14.44 28.73,14.41 C28.70,14.37 28.70,14.36 28.67,14.32 L28.67,14.11  C28.70,14.10 28.70,14.09 28.70,14.05 L28.70,13.68  C28.72,13.68 28.70,13.68 28.72,13.68 L28.74,13.60  C28.74,13.55 28.76,13.51 28.80,13.50 L28.92,13.06  29.09,12.58  29.13,12.52  C29.14,12.47 29.17,12.41 29.18,12.36 C29.20,12.32 29.19,12.27 29.20,12.25 C29.23,12.22 29.22,12.20 29.23,12.15 L29.32,11.99  29.32,11.93  29.39,11.88  29.46,11.62  29.52,11.47  29.72,10.98  C29.72,10.96 29.74,10.94 29.74,10.94 C29.75,10.90 29.78,10.86 29.78,10.82 C29.79,10.80 29.78,10.82 29.79,10.79 L29.85,10.50  29.89,10.42  29.88,10.30  29.88,10.12  C29.94,10.04 30.05,10.03 30.12,9.98 C30.26,10.00 30.39,9.94 30.50,9.94 C30.56,9.92 30.67,9.88 30.72,9.90 C30.72,9.90 30.76,9.91 30.76,9.91 C30.85,9.88 30.95,9.88 31.03,9.86 C31.25,9.88 31.46,9.75 31.64,9.80 C31.86,9.79 32.08,9.81 32.27,9.75 L34.32,9.85  34.57,9.88  C34.58,9.88 34.58,9.88 34.61,9.88 C34.77,9.88 34.93,9.88 35.08,9.81 L35.17,9.75  35.20,9.66  35.27,9.63  35.26,9.52  35.26,9.41  35.20,9.33  35.20,9.20  C35.21,9.20 35.21,9.18 35.23,9.17 L35.00,9.00  C34.93,8.99 34.89,8.92 34.81,8.89 C34.39,8.73 33.93,8.65 33.53,8.56 C32.56,8.43 31.59,8.45 30.64,8.56 C29.63,8.72 28.64,9.05 27.65,9.12 C27.50,9.19 27.30,9.15 27.19,9.26 C27.11,9.36 26.97,9.33 26.84,9.34 C26.81,9.41 26.84,9.50 26.79,9.58 C26.84,9.69 26.86,9.80 26.86,9.90 L27.01,10.09  C27.01,10.14 27.02,10.14 27.01,10.15 L27.13,10.19  C27.13,10.19 27.13,10.20 27.16,10.20 L27.18,10.25  27.35,10.33  27.52,10.36  C27.61,10.40 27.61,10.56 27.71,10.57 C27.82,10.52 27.91,10.55 27.97,10.50 C28.12,10.50 28.30,10.46 28.41,10.43 C28.47,10.46 28.53,10.42 28.57,10.41 C28.54,10.63 28.42,10.85 28.36,11.07 C28.25,11.21 28.20,11.32 28.14,11.43 L28.10,11.48  C28.06,11.62 28.00,11.77 27.99,11.91 C27.99,11.99 27.97,12.04 27.95,12.11 C27.89,12.29 27.85,12.52 27.84,12.71 C27.83,13.13 27.74,13.56 27.82,14.00 C27.82,14.05 27.82,14.10 27.82,14.16 L27.77,14.21  C27.41,14.19 27.05,14.10 26.69,14.00 C26.53,13.98 26.37,13.93 26.25,13.88 C26.20,13.87 26.13,13.83 26.05,13.82 C25.53,13.60 24.91,13.44 24.57,13.05 C24.54,13.03 24.53,12.97 24.53,12.95 C24.53,12.94 24.57,12.91 24.57,12.89 L24.66,12.89  24.91,12.80  C24.91,12.81 24.94,12.79 24.96,12.80 L25.17,12.71  25.39,12.68  C25.44,12.69 25.51,12.68 25.55,12.69 C25.68,12.68 25.77,12.61 25.87,12.57 C26.03,12.56 26.16,12.53 26.30,12.45 C26.35,12.41 26.37,12.37 26.44,12.32 C26.48,12.32 26.52,12.29 26.56,12.27 C26.71,12.22 26.75,12.10 26.87,12.06 C26.90,12.02 26.93,12.02 26.98,11.99 C26.98,11.96 27.03,11.96 27.06,11.91 L27.11,11.84  27.19,11.84  C27.20,11.81 27.25,11.77 27.29,11.75 C27.35,11.67 27.41,11.57 27.41,11.44 L27.45,11.26  C27.45,11.24 27.45,11.26 27.47,11.24 L27.36,11.07  C27.30,10.94 27.20,10.85 27.09,10.75 C27.13,10.58 26.97,10.46 26.84,10.35 C26.81,10.35 26.79,10.35 26.76,10.33 C26.75,10.29 26.70,10.29 26.69,10.25 C26.58,10.22 26.56,10.14 26.48,10.09 C26.37,10.02 26.24,10.00 26.14,9.92 L25.77,9.86  25.70,9.81  25.60,9.81  25.22,9.81  C24.63,9.85 24.07,9.97 23.48,10.21 C23.33,10.35 23.04,10.35 22.90,10.53 C22.85,10.55 22.81,10.61 22.77,10.64 L22.62,10.69  C22.62,10.71 22.68,10.71 22.68,10.74 L22.67,10.90  22.63,10.94  22.58,10.96  22.58,11.04  C22.56,11.07 22.49,11.11 22.42,11.07 C22.41,11.07 22.40,11.04 22.40,11.04 L21.93,12.04  C21.84,11.99 21.75,11.91 21.60,11.91 C21.53,11.88 21.47,11.83 21.44,11.72 L21.40,11.71  21.34,11.60  C21.33,11.54 21.30,11.44 21.20,11.43 L21.02,11.26  20.99,11.28  C20.95,11.28 20.92,11.27 20.92,11.24 L20.59,11.31  C20.54,11.42 20.39,11.44 20.27,11.50 C20.27,11.53 20.26,11.54 20.22,11.55 C19.99,11.59 19.72,11.50 19.46,11.60 L19.34,11.47  C19.34,11.44 19.32,11.44 19.34,11.43 C19.34,11.32 19.29,11.20 19.19,11.10 L19.05,11.02  18.70,10.84  C18.54,10.78 18.38,10.75 18.22,10.71 C17.97,10.73 17.76,10.66 17.52,10.68 C17.38,10.66 17.23,10.66 17.08,10.68 C16.90,10.71 16.71,10.74 16.53,10.77 C16.47,10.79 16.43,10.78 16.35,10.82 C16.19,10.88 16.03,10.90 15.83,10.94 L15.66,11.04  15.37,11.20  15.22,11.26  15.10,11.28  C14.90,11.44 14.64,11.55 14.46,11.77 L14.58,11.88  14.44,12.30  14.13,13.08  13.92,13.88  C13.92,13.89 13.93,13.89 13.93,13.90 L13.86,14.10  C13.88,14.19 13.80,14.23 13.80,14.33 C13.77,14.55 13.65,14.75 13.70,14.94 L13.61,15.24  C13.55,15.35 13.55,15.46 13.53,15.57 C13.53,15.73 13.47,15.86 13.46,15.99 C13.38,16.32 13.32,16.62 13.27,16.96 C13.27,17.06 13.25,17.13 13.23,17.22 C13.22,17.25 13.17,17.29 13.17,17.33 C13.19,17.42 13.19,17.52 13.17,17.57 C13.17,17.76 13.11,17.97 13.17,18.14 C13.17,18.13 13.22,18.17 13.20,18.17 C13.21,18.17 13.21,18.17 13.22,18.16 C13.29,18.22 13.37,18.18 13.45,18.19 C13.63,18.13 13.80,18.18 13.99,18.22 L13.99,18.22 M15.56,13.76 L15.58,13.72  15.59,13.67  15.66,13.39  15.66,13.34  C15.67,13.31 15.72,13.28 15.73,13.22 C15.72,13.02 15.82,12.85 15.81,12.69 L15.91,12.47  16.07,12.37  16.85,12.13  C16.86,12.11 16.89,12.13 16.91,12.11 L17.18,12.06  C17.32,11.98 17.50,12.05 17.66,12.09 C17.66,12.10 17.66,12.10 17.65,12.13 C17.62,12.23 17.50,12.30 17.41,12.33 C17.15,12.79 16.65,13.02 16.25,13.35 C16.17,13.39 16.08,13.45 15.98,13.50 C15.84,13.57 15.71,13.68 15.61,13.76 L15.59,13.76  L15.56,13.76 M17.78,14.49 C18.49,14.31 19.17,13.82 19.84,13.45 L19.93,13.38  C20.06,13.38 20.13,13.23 20.27,13.21 C20.38,13.10 20.50,13.03 20.58,12.92 L20.52,12.80  20.42,12.62  C20.42,12.58 20.40,12.57 20.37,12.56 C20.35,12.56 20.34,12.56 20.33,12.56 C20.32,12.56 20.27,12.54 20.26,12.54 L20.21,12.49  C20.01,12.48 19.89,12.58 19.74,12.71 C19.67,12.75 19.63,12.80 19.57,12.84 C19.42,12.91 19.28,12.97 19.13,12.95 C18.97,12.91 18.87,13.05 18.76,13.13 C18.75,13.20 18.69,13.21 18.64,13.23 L18.54,13.50  C18.49,13.60 18.40,13.66 18.30,13.71 C18.27,13.72 18.26,13.72 18.22,13.72 L18.15,13.81  18.14,13.86  17.74,14.39  17.71,14.48  C17.71,14.50 17.74,14.49 17.78,14.50 L17.78,14.49 M23.60,12.54 C23.74,12.54 23.86,12.43 23.91,12.36 C24.15,12.29 24.36,12.20 24.57,12.08 C24.96,11.88 25.39,11.67 25.71,11.43 C25.84,11.37 25.91,11.28 25.98,11.20 L25.98,11.12  C25.98,11.11 25.93,11.07 25.87,11.10 C25.55,11.22 25.26,11.15 24.94,11.20 C24.83,11.24 24.72,11.20 24.61,11.22 C24.50,11.22 24.39,11.26 24.28,11.22 C24.18,11.22 24.07,11.21 23.95,11.28 C23.81,11.28 23.60,11.35 23.53,11.48 L23.50,11.67  C23.48,11.71 23.47,11.71 23.46,11.71 L23.43,11.80  23.16,12.39  "
                     id="path59" />
                </g>
              </g>
            </g>
          </g>
          <g
             opacity="1.00"
             id="g61" />
          <g
             opacity="1.00"
             id="g63" />
          <g
             opacity="1.00"
             id="g65">
            <g
               id="3.0 reklamy - \350erven\341 311">
              <g
                 stroke="rgb(255,0,0)"
                 id="g68">
                <g
                   fill="rgb(255,0,0)"
                   id="g70">
                  <path
                     d="M27.45,4.03 C27.45,4.18 27.41,4.33 27.34,4.44 C27.27,4.58 27.18,4.67 27.05,4.74 C26.92,4.82 26.80,4.85 26.64,4.85 L26.64,4.85  26.64,4.74  26.64,4.74  C26.76,4.74 26.87,4.70 26.98,4.65 C27.11,4.58 27.18,4.50 27.24,4.38 C27.30,4.28 27.34,4.17 27.34,4.03 C27.34,3.90 27.30,3.81 27.24,3.68 C27.18,3.57 27.09,3.50 26.98,3.43 C26.87,3.36 26.76,3.34 26.64,3.34 L26.64,3.34  26.64,3.22  26.64,3.22  C26.80,3.22 26.92,3.25 27.05,3.33 C27.18,3.40 27.27,3.50 27.34,3.63 C27.41,3.76 27.45,3.88 27.45,4.03 L27.45,4.03  L27.45,4.03 M26.64,4.11 26.69,4.11  C26.75,4.11 26.79,4.11 26.80,4.12 C26.84,4.12 26.84,4.15 26.86,4.16 C26.86,4.18 26.86,4.19 26.86,4.25 L26.87,4.36  C26.87,4.42 26.89,4.47 26.89,4.50 L27.05,4.50  27.05,4.49  C27.03,4.44 27.02,4.41 27.02,4.35 L27.02,4.25  C27.02,4.18 27.02,4.15 27.00,4.10 C26.97,4.08 26.95,4.05 26.91,4.03 C26.95,4.00 26.97,3.98 27.00,3.95 C27.02,3.90 27.03,3.87 27.03,3.82 C27.03,3.78 27.02,3.72 26.98,3.68 C26.97,3.65 26.93,3.61 26.89,3.59 C26.86,3.56 26.79,3.56 26.70,3.56 L26.64,3.56  26.64,3.69  26.69,3.69  C26.76,3.69 26.81,3.71 26.84,3.72 C26.86,3.74 26.87,3.79 26.87,3.83 C26.87,3.88 26.86,3.93 26.84,3.95 C26.80,3.96 26.76,3.98 26.69,3.98 L26.64,3.98  26.64,4.11  L26.64,4.11 M26.64,4.85 C26.49,4.85 26.36,4.82 26.24,4.74 C26.10,4.67 26.02,4.58 25.93,4.44 C25.86,4.33 25.83,4.18 25.83,4.03 C25.83,3.88 25.86,3.76 25.93,3.63 C26.02,3.50 26.10,3.40 26.24,3.33 C26.36,3.25 26.49,3.22 26.64,3.22 L26.64,3.34  C26.52,3.34 26.41,3.36 26.30,3.43 C26.18,3.50 26.10,3.57 26.03,3.68 C25.98,3.81 25.94,3.90 25.94,4.03 C25.94,4.17 25.98,4.28 26.03,4.38 C26.10,4.50 26.18,4.58 26.30,4.65 C26.41,4.70 26.52,4.74 26.64,4.74 L26.64,4.85  26.64,4.85  L26.64,4.85 M26.64,3.56 26.31,3.56  26.31,4.50  26.47,4.50  26.47,4.11  26.64,4.11  26.64,3.98  26.47,3.98  26.47,3.69  26.64,3.69  26.64,3.56  "
                     id="path72" />
                </g>
                <g
                   fill="rgb(255,0,0)"
                   id="g74">
                  <path
                     d="M12.06,10.64 C12.62,10.68 12.90,10.69 13.52,10.71 C13.92,10.71 14.12,10.71 14.51,10.63 C15.01,10.53 15.45,10.47 15.93,10.14 C16.31,9.87 16.49,9.70 16.71,9.33 C17.05,8.78 17.15,8.47 17.32,7.89 C17.45,7.37 17.56,7.09 17.91,6.69 C18.01,6.56 18.11,6.48 18.22,6.42 L18.22,10.29  20.55,10.29  20.55,7.89  22.89,7.89  22.89,10.29  23.40,10.29  C23.43,10.26 23.47,10.25 23.49,10.21 C23.69,10.14 23.87,10.06 24.07,10.01 C24.46,9.90 24.75,9.85 25.22,9.81 L25.22,3.28  22.89,3.28  22.89,5.64  20.64,5.64  20.64,3.30  20.59,3.29  C19.57,3.24 19.05,3.29 18.06,3.47 C17.41,3.60 17.09,3.74 16.52,4.05 C16.08,4.31 15.92,4.54 15.64,4.96 C15.27,5.46 15.16,5.79 14.97,6.42 C14.89,6.75 14.81,6.92 14.63,7.22 C14.58,7.32 14.50,7.40 14.44,7.47 L14.44,3.28  12.12,3.28  12.12,5.64  9.84,5.64  9.84,3.28  7.52,3.28  7.52,3.28  7.52,10.29  9.84,10.29  9.84,7.89  12.08,7.89  L12.06,10.64 M12.50,8.36 C12.99,8.39 13.30,8.39 13.78,8.34 C13.99,8.30 14.15,8.23 14.30,8.13 C14.64,7.92 14.78,7.75 15.00,7.43 C15.22,7.10 15.27,6.92 15.39,6.54 C15.55,5.96 15.67,5.69 15.99,5.19 C16.21,4.83 16.35,4.64 16.74,4.42 C17.25,4.12 17.55,4.00 18.12,3.87 C18.95,3.72 19.36,3.68 20.19,3.72 L20.19,5.59  C19.58,5.62 19.28,5.64 18.68,5.77 C18.42,5.83 18.28,5.89 18.06,6.05 C17.71,6.28 17.55,6.45 17.32,6.82 C17.07,7.15 16.98,7.36 16.90,7.73 C16.76,8.32 16.65,8.60 16.35,9.10 C16.19,9.43 16.03,9.59 15.71,9.80 C15.27,10.06 14.99,10.14 14.46,10.22 C14.09,10.28 13.90,10.28 13.52,10.28 C13.12,10.29 12.91,10.28 12.50,10.25 "
                     id="path76" />
                </g>
              </g>
            </g>
          </g>
          <g
             opacity="1.00"
             id="g78" />
          <g
             opacity="1.00"
             id="g80" />
          <g
             opacity="1.00"
             id="g82">
            <g
               id="2.0 reklamy - \350ern\341 301">
              <g
                 stroke="rgb(0,0,0)"
                 id="g85">
                <g
                   fill="rgb(0,0,0)"
                   id="g87">
                  <path
                     d="M1.24,19.42 37.88,19.42  37.88,22.91  C37.88,24.54 36.63,25.88 35.12,25.88 L3.92,25.88  C2.57,25.88 1.46,24.82 1.24,23.47 L1.24,19.42  "
                     id="path89" />
                </g>
              </g>
            </g>
          </g>
          <g
             opacity="1.00"
             id="g91">
            <g
               id="1.0 reklamy - horn\355 b\355l\341 397">
              <g
                 stroke="rgb(255,255,255)"
                 id="g94">
                <g
                   fill="rgb(255,255,255)"
                   id="g96">
                  <path
                     d="M25.30,23.72 25.30,23.40  25.30,23.40  C25.40,23.40 25.51,23.34 25.56,23.28 C25.64,23.19 25.68,23.08 25.68,22.92 C25.68,22.78 25.64,22.67 25.56,22.58 C25.51,22.49 25.40,22.46 25.30,22.46 L25.30,22.46  25.30,22.13  C25.53,22.13 25.71,22.20 25.86,22.36 C26.02,22.51 26.09,22.69 26.09,22.92 C26.09,23.16 26.02,23.34 25.86,23.49 C25.71,23.63 25.53,23.72 25.30,23.72 L25.30,23.72  25.30,23.72  L25.30,23.72 M26.80,23.68 26.38,23.68  26.38,22.18  26.76,22.18  26.76,22.38  C26.84,22.29 26.87,22.21 26.93,22.18 C26.97,22.14 27.05,22.13 27.11,22.13 C27.20,22.13 27.28,22.15 27.38,22.21 L27.24,22.57  C27.18,22.51 27.12,22.49 27.05,22.49 C27.01,22.49 26.95,22.51 26.91,22.53 C26.87,22.57 26.85,22.62 26.84,22.70 C26.81,22.80 26.80,22.95 26.80,23.22 L26.80,23.68  26.80,23.68  L26.80,23.68 M28.25,22.18 28.25,22.49  27.97,22.49  27.97,23.11  C27.97,23.22 27.97,23.30 27.98,23.31 C27.98,23.34 28.00,23.35 28.00,23.38 C28.03,23.38 28.05,23.39 28.07,23.39 C28.10,23.39 28.17,23.38 28.25,23.34 L28.27,23.65  C28.18,23.71 28.07,23.72 27.95,23.72 C27.88,23.72 27.82,23.71 27.77,23.68 C27.71,23.65 27.66,23.63 27.62,23.61 C27.61,23.56 27.58,23.50 27.57,23.44 C27.56,23.39 27.56,23.29 27.56,23.16 L27.56,22.49  27.38,22.49  27.38,22.18  27.56,22.18  27.56,21.87  27.97,21.62  27.97,22.18  28.25,22.18  28.25,22.18  L28.25,22.18 M28.52,23.68 28.52,23.28  28.91,23.28  28.91,23.68  28.52,23.68  28.52,23.68  L28.52,23.68 M30.66,22.62 30.27,22.69  C30.26,22.60 30.22,22.54 30.18,22.51 C30.13,22.46 30.06,22.45 30.00,22.45 C29.89,22.45 29.83,22.48 29.74,22.54 C29.69,22.62 29.67,22.74 29.67,22.90 C29.67,23.08 29.69,23.21 29.75,23.28 C29.83,23.35 29.89,23.40 30.01,23.40 C30.07,23.40 30.15,23.38 30.20,23.33 C30.23,23.28 30.27,23.21 30.28,23.11 L30.67,23.17  C30.66,23.34 30.56,23.49 30.44,23.60 C30.33,23.66 30.18,23.72 29.97,23.72 C29.75,23.72 29.56,23.65 29.45,23.51 C29.31,23.38 29.24,23.18 29.24,22.92 C29.24,22.68 29.31,22.48 29.45,22.35 C29.56,22.20 29.75,22.13 29.99,22.13 C30.18,22.13 30.33,22.18 30.43,22.25 C30.54,22.33 30.62,22.46 30.66,22.62 L30.66,22.62  L30.66,22.62 M30.81,23.68 30.81,23.38  31.40,22.73  C31.47,22.60 31.54,22.53 31.58,22.49 C31.54,22.49 31.47,22.49 31.40,22.49 L30.86,22.49  30.86,22.18  32.12,22.18  32.12,22.46  31.54,23.13  31.34,23.34  C31.44,23.34 31.51,23.34 31.54,23.34 L32.17,23.34  32.17,23.68  30.81,23.68  L30.81,23.68 M25.30,22.13 25.30,22.46  C25.20,22.46 25.11,22.49 25.03,22.58 C24.96,22.67 24.94,22.78 24.94,22.92 C24.94,23.08 24.96,23.19 25.03,23.28 C25.11,23.34 25.20,23.40 25.30,23.40 L25.30,23.72  C25.17,23.72 25.03,23.68 24.89,23.63 C24.79,23.57 24.68,23.47 24.61,23.34 C24.55,23.23 24.53,23.08 24.53,22.90 C24.53,22.76 24.55,22.64 24.61,22.52 C24.68,22.40 24.77,22.30 24.89,22.23 C25.02,22.18 25.16,22.13 25.30,22.13 L25.30,22.13  25.30,22.13  L25.30,22.13 M23.54,23.71 23.54,23.40  C23.54,23.40 23.54,23.40 23.54,23.40 C23.65,23.40 23.74,23.37 23.79,23.29 C23.83,23.22 23.87,23.09 23.87,22.92 C23.87,22.76 23.83,22.64 23.79,22.57 C23.72,22.49 23.64,22.45 23.54,22.45 L23.54,22.45  23.54,22.14  C23.58,22.13 23.61,22.13 23.66,22.13 C23.83,22.13 23.98,22.20 24.10,22.35 C24.23,22.46 24.28,22.68 24.28,22.92 C24.28,23.17 24.23,23.38 24.10,23.51 C23.98,23.65 23.82,23.72 23.66,23.72 C23.61,23.72 23.58,23.71 23.54,23.71 L23.54,23.71 M7.70,23.68 L7.21,22.18  7.60,22.18  7.88,23.17  8.15,22.18  8.55,22.18  8.78,23.17  9.09,22.18  9.47,22.18  8.98,23.68  8.60,23.68  8.32,22.72  8.09,23.68  7.70,23.68  7.70,23.68  L7.70,23.68 M23.54,22.14 23.54,22.45  C23.43,22.46 23.37,22.49 23.30,22.57 C23.25,22.64 23.20,22.76 23.20,22.90 C23.20,23.08 23.25,23.21 23.30,23.28 C23.37,23.35 23.43,23.40 23.54,23.40 L23.54,23.71  C23.49,23.71 23.46,23.68 23.43,23.66 C23.36,23.63 23.27,23.60 23.20,23.50 L23.20,24.28  22.79,24.28  22.79,22.18  23.18,22.18  23.18,22.40  C23.22,22.31 23.30,22.25 23.37,22.20 C23.43,22.18 23.48,22.15 23.54,22.14 L23.54,22.14  L23.54,22.14 M9.96,23.68 9.50,22.18  9.90,22.18  10.16,23.17  10.44,22.18  10.82,22.18  11.07,23.17  11.37,22.18  11.76,22.18  11.27,23.68  10.88,23.68  10.62,22.72  10.38,23.68  9.96,23.68  9.96,23.68  L9.96,23.68 M12.28,23.68 11.79,22.18  12.17,22.18  12.46,23.17  12.72,22.18  13.12,22.18  13.37,23.17  13.65,22.18  14.05,22.18  13.56,23.68  13.17,23.68  12.91,22.72  12.65,23.68  12.28,23.68  12.28,23.68  L12.28,23.68 M14.15,23.68 14.15,23.28  14.56,23.28  14.56,23.68  14.15,23.68  14.15,23.68  L14.15,23.68 M14.97,23.68 14.97,21.59  15.40,21.59  15.40,22.42  16.22,22.42  16.22,21.59  16.65,21.59  16.65,23.68  16.22,23.68  16.22,22.76  15.40,22.76  15.40,23.68  14.97,23.68  14.97,23.68  L14.97,23.68 M16.98,23.00 17.40,22.96  C17.42,23.11 17.48,23.21 17.56,23.28 C17.64,23.34 17.73,23.37 17.87,23.37 C17.99,23.37 18.11,23.34 18.16,23.28 C18.25,23.22 18.28,23.17 18.28,23.08 C18.28,23.02 18.26,22.98 18.22,22.94 C18.20,22.91 18.15,22.89 18.09,22.86 C18.04,22.84 17.91,22.81 17.73,22.76 C17.50,22.72 17.34,22.64 17.28,22.57 C17.14,22.45 17.07,22.30 17.07,22.14 C17.07,22.04 17.09,21.93 17.15,21.83 C17.22,21.74 17.32,21.67 17.41,21.62 C17.52,21.56 17.67,21.56 17.83,21.56 C18.11,21.56 18.30,21.60 18.44,21.72 C18.56,21.83 18.63,21.99 18.64,22.19 L18.22,22.20  C18.19,22.10 18.15,22.03 18.11,21.98 C18.04,21.93 17.96,21.91 17.82,21.91 C17.71,21.91 17.61,21.93 17.54,21.99 C17.49,22.02 17.48,22.05 17.48,22.10 C17.48,22.16 17.49,22.20 17.52,22.24 C17.60,22.29 17.72,22.32 17.93,22.38 C18.12,22.43 18.28,22.46 18.38,22.52 C18.49,22.58 18.56,22.65 18.61,22.74 C18.66,22.84 18.69,22.94 18.69,23.08 C18.69,23.19 18.66,23.30 18.60,23.43 C18.53,23.52 18.44,23.61 18.32,23.65 C18.19,23.71 18.04,23.72 17.84,23.72 C17.60,23.72 17.38,23.66 17.25,23.55 C17.11,23.43 17.01,23.23 16.98,23.00 L16.98,23.00  L16.98,23.00 M19.05,23.68 19.05,21.59  19.48,21.59  19.48,22.42  20.33,22.42  20.33,21.59  20.75,21.59  20.75,23.68  20.33,23.68  20.33,22.76  19.48,22.76  19.48,23.68  19.05,23.68  19.05,23.68  L19.05,23.68 M21.03,23.25 21.44,23.19  C21.47,23.28 21.50,23.33 21.53,23.38 C21.60,23.43 21.68,23.44 21.76,23.44 C21.86,23.44 21.95,23.43 22.00,23.38 C22.02,23.34 22.05,23.31 22.05,23.27 C22.05,23.23 22.05,23.21 22.01,23.19 C22.01,23.17 21.96,23.17 21.90,23.13 C21.56,23.07 21.35,23.01 21.29,22.94 C21.16,22.85 21.10,22.76 21.10,22.60 C21.10,22.46 21.16,22.36 21.25,22.26 C21.35,22.18 21.51,22.13 21.73,22.13 C21.93,22.13 22.09,22.18 22.19,22.23 C22.30,22.30 22.36,22.41 22.41,22.53 L22.02,22.60  C22.01,22.54 21.98,22.49 21.93,22.46 C21.89,22.43 21.83,22.42 21.74,22.42 C21.64,22.42 21.54,22.43 21.51,22.46 C21.50,22.48 21.48,22.51 21.48,22.54 C21.48,22.58 21.48,22.60 21.51,22.62 C21.53,22.65 21.68,22.68 21.89,22.74 C22.09,22.79 22.24,22.84 22.34,22.91 C22.41,22.98 22.46,23.09 22.46,23.22 C22.46,23.34 22.40,23.47 22.29,23.59 C22.17,23.66 22.00,23.72 21.76,23.72 C21.54,23.72 21.40,23.67 21.29,23.61 C21.16,23.52 21.07,23.40 21.03,23.25 "
                     id="path98" />
                </g>
              </g>
            </g>
          </g>
          <g
             opacity="1.00"
             id="g100" />
        </g>
      </g>
    </g>
  </g>
</svg>
