<?xml version="1.0" encoding="UTF-8" standalone="no"?>
<!-- Generator: OCAD Version 10.3.0 -->

<svg
   xmlns:dc="http://purl.org/dc/elements/1.1/"
   xmlns:cc="http://creativecommons.org/ns#"
   xmlns:rdf="http://www.w3.org/1999/02/22-rdf-syntax-ns#"
   xmlns:svg="http://www.w3.org/2000/svg"
   xmlns="http://www.w3.org/2000/svg"
   xmlns:sodipodi="http://sodipodi.sourceforge.net/DTD/sodipodi-0.dtd"
   xmlns:inkscape="http://www.inkscape.org/namespaces/inkscape"
   id="mainMap"
   width="6.2460cm"
   height="3.0080cm"
   viewBox="0 0 62.4600 30.0800"
   style="fill:none;stroke-width:0;fill-rule:evenodd"
   version="1.1"
   inkscape:version="0.48.5 r10040"
   sodipodi:docname="inov-8.svg">
  <metadata
     id="metadata78">
    <rdf:RDF>
      <cc:Work
         rdf:about="">
        <dc:format>image/svg+xml</dc:format>
        <dc:type
           rdf:resource="http://purl.org/dc/dcmitype/StillImage" />
      </cc:Work>
    </rdf:RDF>
  </metadata>
  <defs
     id="defs76" />
  <sodipodi:namedview
     pagecolor="#ffffff"
     bordercolor="#666666"
     borderopacity="1"
     objecttolerance="10"
     gridtolerance="10"
     guidetolerance="10"
     inkscape:pageopacity="0"
     inkscape:pageshadow="2"
     inkscape:window-width="1280"
     inkscape:window-height="972"
     id="namedview74"
     showgrid="false"
     inkscape:zoom="1.4278294"
     inkscape:cx="110.65748"
     inkscape:cy="53.291336"
     inkscape:window-x="-8"
     inkscape:window-y="22"
     inkscape:window-maximized="1"
     inkscape:current-layer="mainMapContent" />
  <desc
     id="desc3">Map</desc>
  <g
     id="scaleTransform"
     transform="scale(1.00000000)">
    <g
       id="mainMapContent">
      <!-- map fill color -->
      <g
         id="g8">
        <clipPath
           id="Clip"
           fill="none"
           stroke="none">
          <rect
             x="0"
             y="0"
             width="62.4600"
             height="30.0800"
             fill="none"
             id="rect11" />
        </clipPath>
        <g
           clip-path="url(#Clip)"
           id="g13">
          <g
             opacity="1.00"
             id="g15" />
          <g
             opacity="1.00"
             id="g17" />
          <g
             opacity="1.00"
             id="g19" />
          <g
             opacity="1.00"
             id="g21" />
          <g
             opacity="1.00"
             id="g23" />
          <g
             opacity="1.00"
             id="g25" />
          <g
             opacity="1.00"
             id="g27" />
          <g
             opacity="1.00"
             id="g29" />
          <g
             opacity="1.00"
             id="g31" />
          <g
             opacity="1.00"
             id="g33" />
          <g
             opacity="1.00"
             id="g35" />
          <g
             opacity="1.00"
             id="g37" />
          <g
             opacity="1.00"
             id="g39" />
          <g
             opacity="1.00"
             id="g41" />
          <g
             opacity="1.00"
             id="g43" />
          <g
             opacity="1.00"
             id="g45" />
          <g
             opacity="1.00"
             id="g47" />
          <g
             opacity="1.00"
             id="g49" />
          <g
             opacity="1.00"
             id="g51" />
          <g
             opacity="1.00"
             id="g53">
            <g
               id="2.0 reklamy - \350ern\341 301">
              <g
                 stroke="rgb(0,0,0)"
                 id="g56">
                <g
                   fill="rgb(0,0,0)"
                   id="g58">
                  <path
                     d="M55.92,15.66 C55.98,15.66 56.02,15.64 56.06,15.63 C56.08,15.60 56.10,15.57 56.10,15.54 C56.10,15.48 56.10,15.44 56.06,15.42 C56.03,15.40 55.98,15.37 55.92,15.37 L55.92,15.14  55.98,15.14  C56.14,15.14 56.25,15.18 56.32,15.25 C56.39,15.30 56.42,15.40 56.42,15.51 C56.42,15.57 56.39,15.64 56.35,15.71 C56.29,15.78 56.21,15.82 56.08,15.86 C56.14,15.87 56.17,15.89 56.20,15.91 C56.23,15.94 56.25,15.97 56.30,16.03 C56.30,16.03 56.36,16.17 56.50,16.40 L56.13,16.40  C56.03,16.22 55.96,16.08 55.92,16.01 L55.92,15.66  55.92,15.66  L55.92,15.66 M55.92,16.93 C55.93,16.93 55.93,16.93 55.94,16.93 C56.16,16.93 56.36,16.88 56.53,16.77 C56.70,16.68 56.87,16.53 56.95,16.36 C57.06,16.18 57.12,15.97 57.12,15.77 C57.12,15.57 57.06,15.37 56.95,15.19 C56.87,15.00 56.70,14.86 56.53,14.76 C56.36,14.65 56.16,14.60 55.94,14.60 C55.93,14.60 55.93,14.60 55.92,14.60 L55.92,14.84  C55.93,14.84 55.93,14.84 55.94,14.84 C56.21,14.84 56.42,14.92 56.61,15.12 C56.80,15.29 56.89,15.52 56.89,15.77 C56.89,16.03 56.80,16.25 56.61,16.45 C56.42,16.61 56.21,16.71 55.94,16.71 L55.92,16.71  55.92,16.93  L55.92,16.93 M55.73,15.66 55.86,15.66  C55.88,15.66 55.91,15.66 55.92,15.66 L55.92,16.01  C55.91,15.99 55.90,15.97 55.89,15.96 C55.85,15.93 55.80,15.89 55.77,15.89 C55.76,15.89 55.74,15.89 55.73,15.91 L55.73,16.40  55.42,16.40  55.42,15.14  55.92,15.14  55.92,15.37  C55.91,15.37 55.90,15.37 55.87,15.37 L55.73,15.37  55.73,15.66  55.73,15.66  L55.73,15.66 M55.92,14.60 C55.72,14.61 55.53,14.66 55.36,14.76 C55.19,14.86 55.04,15.00 54.95,15.19 C54.83,15.37 54.77,15.57 54.77,15.77 C54.77,15.97 54.83,16.18 54.95,16.36 C55.04,16.53 55.19,16.68 55.36,16.77 C55.53,16.88 55.72,16.93 55.92,16.93 L55.92,16.71  C55.66,16.70 55.46,16.61 55.28,16.45 C55.10,16.25 54.99,16.03 54.99,15.77 C54.99,15.52 55.10,15.29 55.28,15.12 C55.46,14.93 55.66,14.84 55.92,14.84 L55.92,14.60  "
                     id="path60" />
                </g>
                <g
                   fill="rgb(0,0,0)"
                   id="g62">
                  <path
                     d="M55.65,8.61 C55.77,8.59 56.03,8.59 55.78,9.10 L55.65,9.30  55.65,12.62  58.26,8.06  C58.69,7.12 58.20,6.46 57.72,6.24 C57.28,6.03 56.87,6.22 56.87,6.22 L55.65,6.69  55.65,8.61  55.65,8.61  L55.65,8.61 M59.42,3.64 59.42,3.71  C59.42,3.94 59.35,4.16 59.24,4.39 C58.89,5.10 58.14,5.39 57.54,5.07 C56.95,4.75 56.76,3.93 57.12,3.22 C57.48,2.55 58.23,2.24 58.82,2.57 C59.19,2.77 59.41,3.20 59.42,3.64 L59.42,3.64  L59.42,3.64 M55.65,6.16 55.65,3.76  C55.85,3.73 56.05,3.77 56.22,3.85 C56.73,4.14 56.89,4.85 56.58,5.46 C56.38,5.86 56.02,6.10 55.65,6.16 L55.65,6.16 M52.89,18.15 L52.98,18.92  C52.98,18.92 53.03,19.12 52.89,19.29 L52.89,21.16  53.35,21.21  C54.97,21.35 54.81,19.75 54.81,19.75 L54.24,15.47  C54.17,15.14 54.37,14.89 54.37,14.89 L55.65,12.62  55.65,9.30  52.89,14.16  52.89,18.15  52.89,18.15  L52.89,18.15 M52.89,9.72 52.89,7.80  55.65,6.69  55.65,8.61  C55.63,8.61 55.61,8.61 55.61,8.61 L52.89,9.72  52.89,9.72  L52.89,9.72 M55.65,3.76 55.65,6.16  C55.47,6.18 55.28,6.15 55.10,6.06 C54.59,5.78 54.43,5.07 54.73,4.46 C54.95,4.07 55.29,3.80 55.65,3.76 L55.65,3.76  L55.65,3.76 M52.89,6.96 C52.92,6.99 52.96,7.00 53.02,7.02 C53.43,7.26 53.99,7.02 54.25,6.50 C54.51,5.99 54.39,5.36 53.96,5.13 C53.62,4.95 53.18,5.09 52.89,5.41 L52.89,6.96  L52.89,6.96 M52.80,14.31 C52.80,14.31 52.54,14.81 52.53,15.32 L52.89,18.15  52.89,14.16  52.80,14.31  52.80,14.31  L52.80,14.31 M52.89,19.29 C52.81,19.36 52.68,19.42 52.45,19.44 L51.58,19.36  51.58,21.04  52.89,21.16  52.89,19.29  52.89,19.29  L52.89,19.29 M51.58,15.66 51.69,15.49  C51.69,15.49 51.87,15.20 51.77,14.76 L51.58,13.96  51.58,15.66  51.58,15.66  L51.58,15.66 M51.58,10.24 52.89,9.72  52.89,7.80  51.58,8.31  51.58,10.24  51.58,10.24  L51.58,10.24 M52.89,5.41 52.89,6.96  C52.57,6.69 52.48,6.13 52.72,5.67 C52.76,5.57 52.82,5.49 52.89,5.41 L52.89,5.41  L52.89,5.41 M51.58,7.78 51.58,6.06  C51.69,6.03 51.80,6.06 51.90,6.07 C52.27,6.23 52.42,6.72 52.23,7.18 C52.11,7.50 51.85,7.73 51.58,7.78 L51.58,7.78 M51.58,19.36 L50.39,19.27  C50.39,19.27 50.20,19.23 50.06,19.11 L50.06,20.90  51.58,21.04  51.58,19.36  51.58,19.36  L51.58,19.36 M50.06,18.31 51.58,15.66  51.58,13.96  50.90,10.83  C50.90,10.83 50.87,10.56 51.14,10.41 L51.58,10.24  51.58,8.31  50.06,8.92  50.06,18.31  50.06,18.31  L50.06,18.31 M51.58,6.04 51.58,7.78  C51.49,7.80 51.38,7.79 51.27,7.76 C50.90,7.61 50.76,7.11 50.94,6.66 C51.06,6.32 51.33,6.09 51.58,6.06 L51.58,6.06  L51.58,6.04 M50.06,8.50 50.06,7.11  C50.15,7.09 50.22,7.10 50.31,7.12 C50.59,7.24 50.69,7.64 50.54,8.00 C50.45,8.26 50.25,8.44 50.06,8.50 L50.06,8.50 M50.06,19.11 C49.90,18.99 49.79,18.75 50.01,18.39 L50.06,18.31  50.06,8.92  49.64,9.10  C48.89,9.42 49.07,10.40 49.07,10.40 L49.88,14.16  C50.06,14.81 49.83,15.17 49.83,15.17 L47.77,18.74  C47.68,18.95 47.62,19.13 47.59,19.32 L47.59,19.71  C47.72,20.54 48.72,20.76 48.72,20.76 L50.06,20.90  50.06,19.11  50.06,19.11  L50.06,19.11 M50.06,7.11 50.06,8.50  C49.96,8.52 49.87,8.52 49.80,8.48 C49.54,8.36 49.42,7.96 49.58,7.61 C49.66,7.34 49.86,7.17 50.06,7.11 "
                     id="path64" />
                </g>
                <g
                   fill="rgb(0,0,0)"
                   id="g66">
                  <path
                     d="M27.76,26.92 27.76,23.75  C27.85,23.74 28.04,23.67 28.14,23.29 L30.35,17.80  C30.54,17.35 30.28,17.30 30.28,17.30 L28.08,17.29  C27.94,17.29 27.85,17.29 27.76,17.33 L27.76,14.55  34.76,14.55  C34.76,14.55 35.34,14.66 35.11,15.37 L30.81,26.24  C30.81,26.24 30.63,26.88 30.13,26.92 L29.95,26.93  27.76,26.92  27.76,26.92  L27.76,26.92 M36.29,14.54 39.23,14.54  C39.23,14.54 39.61,14.52 39.63,14.90 L39.62,20.63  C39.62,20.63 39.56,20.99 39.82,20.64 L43.29,14.81  C43.29,14.81 43.40,14.54 43.77,14.54 L46.89,14.54  C46.89,14.54 47.53,14.60 47.14,15.26 L40.56,26.26  C40.56,26.26 40.23,26.92 39.68,26.92 L36.35,26.92  C36.35,26.92 35.83,26.83 35.83,26.32 L35.88,14.92  C35.88,14.92 35.88,14.54 36.29,14.54 L36.29,14.54 M27.76,14.55 L27.76,17.33  C27.64,17.38 27.55,17.48 27.46,17.67 L25.16,23.33  C25.16,23.33 24.95,23.78 25.23,23.78 L27.70,23.75  C27.70,23.75 27.72,23.77 27.76,23.75 L27.76,26.92  21.67,26.91  21.67,22.58  24.68,15.18  C24.68,15.18 25.02,14.55 25.47,14.55 L27.76,14.55  27.76,14.55  L27.76,14.55 M21.67,19.06 23.15,15.34  C23.37,14.62 22.81,14.52 22.81,14.52 L21.67,14.54  21.67,19.06  L21.67,19.06 M9.81,14.54 11.07,14.52  C11.07,14.52 11.64,14.62 11.40,15.34 L9.81,19.38  9.81,14.54  9.81,14.54  L9.81,14.54 M21.67,14.54 20.26,14.55  C19.79,14.55 18.83,14.60 18.83,14.60 L16.01,14.60  13.46,14.62  C13.01,14.62 12.67,15.26 12.67,15.26 L9.81,22.32  9.81,26.94  11.38,26.94  C11.85,26.92 12.05,26.29 12.05,26.29 L15.53,17.91  18.39,17.87  14.98,26.21  C14.75,26.88 15.30,26.88 15.30,26.88 L18.15,26.88  C18.65,26.84 18.83,26.21 18.83,26.21 L21.67,19.06  21.67,14.54  21.67,14.54  L21.67,14.54 M21.67,22.58 21.67,26.91  20.48,26.91  C20.48,26.91 19.99,26.88 20.21,26.21 L21.67,22.58  L21.67,22.58 M3.23,26.21 7.71,15.18  C7.71,15.18 8.05,14.55 8.51,14.55 L9.81,14.54  9.81,19.38  7.09,26.21  C7.09,26.21 6.90,26.84 6.40,26.88 L3.54,26.88  C3.54,26.88 3.22,26.88 3.21,26.55 L3.21,26.44  C3.21,26.37 3.21,26.30 3.23,26.21 L3.23,26.21  L3.23,26.21 M9.81,22.32 8.20,26.29  C7.98,26.94 8.51,26.94 8.51,26.94 L9.81,26.94  9.81,22.32  "
                     id="path68" />
                </g>
              </g>
            </g>
          </g>
          <g
             opacity="1.00"
             id="g70" />
          <g
             opacity="1.00"
             id="g72" />
        </g>
      </g>
    </g>
  </g>
</svg>
