<?xml version="1.0" standalone="no"?>
<!-- Generator: OCAD Version 10.3.0 -->
<!DOCTYPE svg PUBLIC "-//W3C//DTD SVG 20010904//EN"
"http://www.w3.org/TR/2001/REC-SVG-20010904/DTD/svg10.dtd" [
<!ENTITY stR "stroke-linejoin:round;stroke-linecap:round">
<!ENTITY stB "stroke-linejoin:bevel">
]>
<svg id="mainMap" width="5.5420cm" height="2.5760cm" viewBox="0 0 55.4200 25.7600" style="fill:none;stroke-width:0;fill-rule:evenodd" xmlns:xlink="http://www.w3.org/1999/xlink" xmlns="http://www.w3.org/2000/svg" >
<desc>Map</desc>
<g id="scaleTransform" transform="scale(1.00000000)">
<g id="mainMapContent">
<!-- map fill color -->
<rect id="mapBg" x="-100%" y="-100%" width="200%" height="200%" fill="white" />
<g>
<clipPath id="Clip" fill="none" stroke="none">
<rect x="0" y="0" width="55.4200" height="25.7600" fill="none" />
</clipPath>
<g clip-path="url(#Clip)">
<g opacity="1.00">
</g>
<g opacity="1.00">
</g>
<g opacity="1.00">
</g>
<g opacity="1.00">
</g>
<g opacity="1.00">
<g id="4.3 reklamy - modr\341 cyan 40% 342" >
<g stroke="rgb(153,255,255)">
<g fill="rgb(153,255,255)" >
<path 
d="M2.44,2.65
2.44,20.59 
5.28,23.50 
52.49,23.53 
52.49,2.66 
" />
</g>
</g>
</g>
</g>
<g opacity="1.00">
<g id="4.8 reklamy - modr\341 cyan 100% 340" >
<g stroke="rgb(0,255,255)">
<g fill="rgb(0,255,255)" >
<path 
d="M53.48,1.66
1.48,1.66 
1.48,20.98 
4.88,24.47 
53.47,24.48 
L53.48,1.66
M2.44,2.65
2.44,20.59 
5.28,23.50 
52.49,23.53 
52.49,2.66 
" />
</g>
</g>
</g>
</g>
<g opacity="1.00">
<g id="6.1 reklamy - \236lut\341 TKplus & \350asOB 324" >
<g stroke="rgb(255,229,0)">
<g fill="rgb(255,229,0)" >
<path 
d="M15.77,13.08
14.86,14.82 
13.91,13.08 
15.77,13.08 
" />
</g>
</g>
</g>
</g>
<g opacity="1.00">
</g>
<g opacity="1.00">
</g>
<g opacity="1.00">
</g>
<g opacity="1.00">
</g>
<g opacity="1.00">
</g>
<g opacity="1.00">
</g>
<g opacity="1.00">
</g>
<g opacity="1.00">
</g>
<g opacity="1.00">
</g>
<g opacity="1.00">
<g id="3.0 reklamy - \350erven\341 311" >
<g stroke="rgb(255,0,0)">
<g fill="rgb(255,0,0)" >
<path 
d="M13.93,6.55
14.85,4.79 
15.81,6.55 
13.93,6.55 
" />
</g>
</g>
</g>
</g>
<g opacity="1.00">
</g>
<g opacity="1.00">
</g>
<g opacity="1.00">
<g id="2.0 reklamy - \350ern\341 301" >
<g stroke="rgb(0,0,0)">
<g fill="rgb(0,0,0)" >
<path 
d="M39.65,21.79
39.65,20.36 
C39.66,20.36 39.69,20.36 39.72,20.36
C40.15,20.36 40.34,20.16 40.44,19.65
L42.19,19.81 
C41.93,21.05 41.01,21.79 39.70,21.79
C39.68,21.79 39.66,21.79 39.65,21.79
L39.65,21.79 
L39.65,21.79
M39.65,19.29
39.65,18.19 
40.31,18.19 
C40.29,17.51 40.11,17.22 39.65,17.22
L39.65,17.22 
39.65,15.92 
39.65,15.92 
C41.18,15.92 42.20,17.14 42.20,18.98
C42.20,19.03 42.20,19.17 42.19,19.29
L39.65,19.29 
39.65,19.29 
L39.65,19.29
M39.65,15.20
39.65,14.04 
39.70,14.08 
40.49,13.36 
41.59,13.48 
39.70,15.23 
39.65,15.20 
39.65,15.20 
L39.65,15.20
M39.65,12.75
39.65,11.17 
C39.68,11.19 39.73,11.19 39.77,11.19
C40.13,11.19 40.31,10.94 40.39,10.36
L41.98,10.53 
C41.89,11.15 41.78,11.50 41.49,11.89
C41.05,12.48 40.49,12.75 39.69,12.75
C39.66,12.75 39.66,12.75 39.65,12.75
L39.65,12.75 
L39.65,12.75
M39.65,8.40
39.65,6.89 
C39.66,6.87 39.70,6.87 39.73,6.87
C40.40,6.87 40.97,7.13 41.38,7.63
C41.73,8.06 41.87,8.44 41.96,9.12
L40.32,9.28 
C40.26,8.97 40.26,8.91 40.22,8.79
C40.15,8.54 39.96,8.39 39.73,8.39
C39.70,8.39 39.66,8.39 39.65,8.40
L39.65,8.40 
L39.65,8.40
M39.65,6.10
39.65,4.94 
39.74,5.04 
40.55,4.33 
41.65,4.43 
39.74,6.20 
39.65,6.10 
39.65,6.10 
L39.65,6.10
M45.34,12.63
45.34,9.08 
C45.34,8.59 45.23,8.41 44.95,8.41
C44.59,8.41 44.42,8.68 44.42,9.25
L44.42,12.63 
42.55,12.63 
42.55,6.99 
44.29,6.99 
44.29,7.79 
C44.45,7.48 44.54,7.34 44.70,7.19
C44.93,7.00 45.32,6.87 45.69,6.87
C46.13,6.87 46.55,7.05 46.85,7.35
C47.15,7.69 47.22,8.01 47.22,9.03
L47.22,12.63 
45.34,12.63 
45.34,12.63 
L45.34,12.63
M50.28,4.20
50.64,5.27 
48.63,6.20 
48.39,5.44 
50.28,4.20 
50.28,4.20 
L50.28,4.20
M50.19,12.63
48.32,12.63 
48.32,6.99 
50.19,6.99 
50.19,12.63 
50.19,12.63 
L50.19,12.63
M45.76,21.68
45.76,18.28 
C45.76,17.84 45.76,17.77 45.69,17.66
C45.62,17.53 45.48,17.47 45.34,17.47
C45.03,17.47 44.81,17.72 44.81,18.16
L44.81,21.68 
42.93,21.68 
42.93,14.10 
44.81,14.10 
44.81,16.71 
C45.18,16.16 45.59,15.92 46.13,15.92
C46.68,15.92 47.10,16.14 47.37,16.55
C47.59,16.88 47.64,17.12 47.64,18.01
L47.64,21.68 
45.76,21.68 
L45.76,21.68
M39.65,4.94
39.65,6.10 
37.87,4.43 
38.95,4.33 
39.65,4.94 
39.65,4.94 
L39.65,4.94
M39.65,6.89
39.65,8.40 
C39.31,8.46 39.16,8.89 39.16,9.84
C39.16,10.69 39.32,11.11 39.65,11.17
L39.65,12.75 
C38.98,12.74 38.48,12.51 38.03,12.05
C37.51,11.51 37.24,10.74 37.24,9.85
C37.24,8.13 38.21,6.92 39.65,6.89
L39.65,6.89 
L39.65,6.89
M39.65,14.04
39.65,15.20 
37.80,13.48 
38.89,13.36 
39.65,14.04 
39.65,14.04 
L39.65,14.04
M39.65,15.92
39.65,17.22 
C39.20,17.22 38.98,17.55 38.98,18.19
L39.65,18.19 
39.65,19.29 
38.98,19.29 
C38.98,19.75 39.01,19.90 39.11,20.06
C39.23,20.23 39.41,20.33 39.65,20.36
L39.65,21.79 
C38.08,21.77 37.01,20.62 37.01,18.93
C37.01,18.10 37.30,17.28 37.76,16.74
C38.23,16.22 38.89,15.92 39.65,15.92
L39.65,15.92 
L39.65,15.92
M34.16,21.77
34.16,20.39 
C34.51,20.31 34.65,19.86 34.65,18.89
C34.65,18.31 34.60,17.95 34.52,17.70
C34.46,17.51 34.33,17.38 34.16,17.33
L34.16,16.02 
C34.31,15.95 34.51,15.92 34.71,15.92
C35.84,15.92 36.54,17.01 36.54,18.76
C36.54,19.58 36.37,20.36 36.07,20.90
C35.74,21.47 35.15,21.79 34.47,21.79
C34.36,21.79 34.25,21.79 34.16,21.77
L34.16,21.77 
L34.16,21.77
M34.16,12.55
34.16,11.41 
C34.58,11.35 34.77,11.01 34.77,10.26
L34.77,10.00 
C34.52,10.03 34.33,10.06 34.16,10.13
L34.16,9.01 
C34.34,8.99 34.54,8.97 34.77,8.97
L34.77,8.83 
C34.77,8.39 34.60,8.21 34.19,8.21
C34.18,8.21 34.17,8.21 34.16,8.21
L34.16,6.87 
C34.19,6.87 34.23,6.87 34.24,6.87
C35.20,6.87 35.95,7.15 36.29,7.66
C36.51,7.99 36.57,8.29 36.57,9.28
L36.57,11.53 
C36.57,12.02 36.59,12.21 36.70,12.63
L34.93,12.63 
C34.87,12.33 34.86,12.14 34.86,11.85
C34.65,12.19 34.43,12.41 34.16,12.55
L34.16,12.55
M34.16,6.87
L34.16,8.21 
C33.75,8.22 33.52,8.44 33.46,8.83
L31.77,8.65 
C31.90,8.05 32.07,7.72 32.42,7.45
C32.87,7.05 33.42,6.89 34.16,6.87
L34.16,6.87 
L34.16,6.87
M34.16,9.01
34.16,10.13 
C33.76,10.28 33.56,10.54 33.56,10.89
C33.56,11.21 33.74,11.41 34.03,11.41
C34.08,11.41 34.12,11.41 34.16,11.41
L34.16,12.55 
C33.92,12.69 33.65,12.75 33.31,12.75
C32.32,12.75 31.62,12.07 31.62,11.07
C31.62,10.28 32.08,9.61 32.82,9.33
C33.21,9.18 33.65,9.08 34.16,9.01
L34.16,9.01 
L34.16,9.01
M34.16,16.02
34.16,17.33 
C34.12,17.31 34.07,17.31 34.03,17.31
C33.70,17.31 33.48,17.61 33.48,18.05
L33.48,19.56 
C33.48,20.11 33.68,20.41 34.03,20.41
C34.07,20.41 34.12,20.40 34.16,20.39
L34.16,21.77 
C33.65,21.71 33.28,21.44 32.93,20.91
C32.85,21.11 32.75,21.39 32.69,21.68
L31.63,21.68 
31.63,14.10 
33.48,14.10 
33.48,16.71 
C33.68,16.34 33.88,16.12 34.16,16.02
L34.16,16.02 
L34.16,16.02
M19.18,12.75
19.18,11.30 
C19.20,11.30 19.23,11.30 19.26,11.30
C19.68,11.30 19.87,11.13 19.97,10.61
L21.73,10.75 
C21.48,11.99 20.53,12.75 19.24,12.75
C19.22,12.75 19.20,12.75 19.18,12.75
L19.18,12.75 
L19.18,12.75
M19.18,10.26
19.18,9.15 
19.86,9.15 
C19.83,8.46 19.64,8.17 19.19,8.17
L19.18,8.17 
19.18,6.87 
19.19,6.87 
C20.71,6.87 21.74,8.09 21.74,9.93
C21.74,9.98 21.74,10.13 21.73,10.26
L19.18,10.26 
19.18,10.26 
L19.18,10.26
M25.27,12.63
25.27,9.08 
C25.27,8.59 25.16,8.41 24.87,8.41
C24.51,8.41 24.35,8.68 24.35,9.25
L24.35,12.63 
22.47,12.63 
22.47,6.99 
24.21,6.99 
24.21,7.79 
C24.37,7.48 24.47,7.34 24.63,7.19
C24.85,7.00 25.25,6.87 25.61,6.87
C26.06,6.87 26.49,7.05 26.77,7.35
C27.07,7.69 27.14,8.01 27.14,9.03
L27.14,12.63 
25.27,12.63 
25.27,12.63 
L25.27,12.63
M31.19,8.44
30.23,8.44 
30.23,10.51 
C30.23,10.94 30.34,11.10 30.67,11.10
C30.81,11.10 30.99,11.07 31.19,11.00
L31.19,12.58 
C30.74,12.67 30.46,12.71 30.12,12.71
C29.47,12.71 29.09,12.57 28.81,12.23
C28.56,11.94 28.46,11.65 28.42,11.15
C28.42,11.00 28.42,11.00 28.42,10.20
L28.42,8.44 
27.70,8.44 
27.70,6.99 
28.50,6.99 
28.63,5.19 
30.28,5.12 
30.23,6.99 
31.19,6.99 
31.19,8.44 
L31.19,8.44
M6.80,11.41
C7.05,11.41 7.22,11.28 7.31,11.03
C7.39,10.76 7.43,10.26 7.43,9.77
C7.43,8.69 7.25,8.27 6.81,8.27
L6.80,8.27 
6.80,6.87 
6.81,6.87 
C8.37,6.87 9.44,8.08 9.44,9.83
C9.44,11.51 8.35,12.74 6.80,12.75
L6.80,11.41 
6.80,11.41 
L6.80,11.41
M19.18,6.87
19.18,8.17 
C18.75,8.18 18.52,8.50 18.52,9.15
L19.18,9.15 
19.18,10.26 
18.52,10.26 
C18.52,10.69 18.55,10.85 18.65,11.02
C18.78,11.18 18.95,11.29 19.18,11.30
L19.18,12.75 
C17.62,12.72 16.54,11.58 16.54,9.88
C16.54,9.07 16.84,8.22 17.29,7.71
C17.76,7.18 18.42,6.89 19.18,6.87
L19.18,6.87 
L19.18,6.87
M10.15,12.63
10.15,6.99 
11.72,6.99 
11.72,8.16 
C11.96,7.24 12.31,6.89 13.00,6.89
C13.09,6.89 13.13,6.89 13.25,6.91
L13.25,8.88 
C13.09,8.83 13.01,8.81 12.89,8.81
C12.27,8.81 11.98,9.20 11.96,10.05
L11.96,12.63 
10.15,12.63 
10.15,12.63 
L10.15,12.63
M13.93,6.99
13.93,12.63 
15.82,12.63 
15.82,6.99 
13.93,6.99 
L13.93,6.99
M6.17,9.82
C6.17,10.96 6.34,11.41 6.79,11.41
L6.80,11.41 
6.80,12.75 
C6.80,12.75 6.78,12.75 6.77,12.75
C5.26,12.75 4.17,11.51 4.17,9.83
C4.17,8.12 5.27,6.89 6.80,6.87
L6.80,8.27 
C6.35,8.27 6.17,8.73 6.17,9.82
" />
</g>
<g fill="rgb(0,0,0)" >
<path 
d="M26.64,21.64
26.64,21.45 
C26.71,21.44 26.79,21.39 26.82,21.31
C26.84,21.25 26.84,21.19 26.84,21.08
L26.84,20.57 
27.09,20.57 
27.09,21.64 
26.87,21.64 
26.87,21.41 
C26.83,21.50 26.80,21.53 26.74,21.59
C26.71,21.61 26.68,21.63 26.64,21.64
L26.64,21.64 
L26.64,21.64
M26.64,20.43
26.64,20.33 
C26.69,20.31 26.73,20.28 26.73,20.23
C26.73,20.17 26.69,20.14 26.65,20.14
L26.64,20.14 
26.64,20.04 
26.64,20.04 
C26.76,20.04 26.84,20.12 26.84,20.23
C26.84,20.34 26.75,20.43 26.64,20.43
L26.64,20.43 
L26.64,20.43
M26.64,18.63
26.64,18.44 
C26.68,18.41 26.71,18.41 26.76,18.41
C26.90,18.41 26.97,18.46 27.03,18.55
C27.07,18.63 27.09,18.68 27.09,18.78
L27.09,19.55 
26.84,19.55 
26.84,18.83 
C26.84,18.69 26.79,18.63 26.68,18.63
C26.67,18.63 26.66,18.63 26.64,18.63
L26.64,18.63 
L26.64,18.63
M26.64,17.36
26.64,17.17 
C26.67,17.18 26.69,17.18 26.72,17.18
C26.87,17.18 26.92,17.12 26.92,17.06
C26.92,17.00 26.90,16.94 26.82,16.93
L26.64,16.90 
26.64,16.64 
C26.65,16.64 26.67,16.64 26.68,16.64
L26.90,16.70 
C27.09,16.73 27.18,16.84 27.18,17.01
C27.18,17.22 27.00,17.37 26.71,17.37
C26.68,17.37 26.67,17.36 26.64,17.36
L26.64,17.36 
L26.64,17.36
M26.64,16.42
26.64,16.24 
C26.67,16.25 26.68,16.24 26.71,16.24
C26.92,16.24 27.08,16.32 27.13,16.49
L26.90,16.53 
C26.89,16.45 26.83,16.41 26.71,16.41
C26.68,16.41 26.67,16.41 26.64,16.42
L26.64,16.42
M26.64,16.24
L26.64,16.42 
C26.57,16.43 26.52,16.48 26.52,16.53
C26.52,16.59 26.56,16.61 26.64,16.64
L26.64,16.90 
26.62,16.90 
C26.40,16.86 26.31,16.75 26.31,16.59
C26.31,16.51 26.34,16.42 26.39,16.35
C26.44,16.30 26.53,16.25 26.64,16.24
L26.64,16.24 
L26.64,16.24
M26.64,17.17
26.64,17.36 
C26.54,17.36 26.44,17.31 26.37,17.28
C26.31,17.21 26.28,17.18 26.26,17.10
L26.48,17.06 
C26.52,17.12 26.57,17.17 26.64,17.17
L26.64,17.17 
L26.64,17.17
M26.64,18.44
26.64,18.63 
C26.58,18.64 26.52,18.68 26.48,18.74
C26.44,18.79 26.43,18.87 26.43,18.98
L26.43,19.55 
26.19,19.55 
26.19,18.08 
26.43,18.08 
26.43,18.65 
C26.49,18.53 26.55,18.46 26.64,18.44
L26.64,18.44 
L26.64,18.44
M26.64,20.03
26.64,20.14 
C26.60,20.15 26.56,20.17 26.56,20.23
C26.56,20.28 26.60,20.33 26.64,20.33
L26.64,20.33 
26.64,20.43 
26.64,20.43 
C26.53,20.43 26.44,20.34 26.44,20.23
C26.44,20.12 26.54,20.04 26.64,20.04
L26.64,20.04 
L26.64,20.03
M26.64,21.45
26.64,21.64 
C26.62,21.67 26.57,21.68 26.52,21.67
C26.40,21.68 26.32,21.63 26.26,21.53
C26.21,21.47 26.20,21.42 26.20,21.33
L26.20,20.57 
26.44,20.57 
26.44,21.27 
C26.44,21.33 26.45,21.37 26.48,21.40
C26.50,21.43 26.55,21.46 26.61,21.45
C26.62,21.46 26.63,21.46 26.64,21.45
L26.64,21.45 
L26.64,21.45
M24.92,20.82
24.92,20.56 
C24.96,20.54 24.98,20.53 25.02,20.53
C25.03,20.53 25.03,20.53 25.05,20.54
L25.05,20.79 
C25.04,20.79 25.03,20.79 25.03,20.79
C25.00,20.79 24.96,20.80 24.92,20.82
L24.92,20.82 
L24.92,20.82
M24.92,17.36
24.92,17.17 
24.93,17.17 
C25.06,17.17 25.15,17.04 25.15,16.81
C25.15,16.58 25.06,16.43 24.93,16.43
L24.92,16.43 
24.92,16.25 
C24.95,16.25 24.97,16.24 25.02,16.24
C25.13,16.24 25.22,16.29 25.30,16.38
C25.36,16.49 25.41,16.62 25.41,16.80
C25.41,16.97 25.36,17.11 25.28,17.22
C25.21,17.31 25.11,17.37 25.00,17.37
C24.97,17.37 24.95,17.36 24.92,17.36
L24.92,17.36 
L24.92,17.36
M25.73,16.26
25.99,16.26 
25.99,17.34 
25.73,17.34 
25.73,16.26 
25.73,16.26 
L25.73,16.26
M25.73,15.88
25.99,15.88 
25.99,16.13 
25.73,16.13 
25.73,15.88 
25.73,15.88 
L25.73,15.88
M25.89,19.17
C25.86,19.28 25.84,19.33 25.80,19.40
C25.72,19.52 25.59,19.55 25.45,19.55
C25.18,19.55 24.98,19.33 24.98,19.00
C24.98,18.66 25.18,18.45 25.46,18.45
C25.60,18.45 25.73,18.48 25.80,18.57
C25.84,18.64 25.87,18.69 25.89,18.80
L25.68,18.84 
C25.65,18.71 25.59,18.64 25.49,18.64
C25.33,18.64 25.25,18.77 25.25,19.00
C25.25,19.23 25.33,19.34 25.46,19.34
C25.57,19.34 25.65,19.28 25.68,19.14
L25.89,19.17 
25.89,19.17 
L25.89,19.17
M25.88,21.64
C25.82,21.67 25.75,21.68 25.72,21.67
C25.62,21.68 25.54,21.64 25.49,21.59
C25.43,21.53 25.41,21.46 25.41,21.32
L25.41,20.76 
25.28,20.76 
25.28,20.57 
25.42,20.57 
25.44,20.28 
25.64,20.26 
25.64,20.57 
25.86,20.57 
25.86,20.76 
25.64,20.76 
25.64,21.28 
C25.64,21.42 25.68,21.46 25.82,21.45
C25.83,21.46 25.85,21.46 25.88,21.45
L25.88,21.64 
L25.88,21.64
M24.92,16.25
24.92,16.43 
C24.78,16.44 24.70,16.57 24.70,16.74
L24.70,16.90 
C24.70,17.06 24.78,17.17 24.92,17.17
L24.92,17.36 
C24.83,17.34 24.76,17.28 24.70,17.19
L24.70,17.70 
24.45,17.70 
24.45,16.26 
24.68,16.26 
24.68,16.45 
C24.75,16.32 24.82,16.28 24.92,16.25
L24.92,16.25 
L24.92,16.25
M24.92,20.56
24.92,20.82 
C24.88,20.84 24.84,20.86 24.83,20.90
C24.77,20.94 24.75,21.05 24.75,21.15
L24.75,21.64 
24.50,21.64 
24.50,20.57 
24.73,20.57 
24.73,20.82 
C24.75,20.71 24.78,20.65 24.85,20.61
C24.87,20.59 24.90,20.57 24.92,20.56
L24.92,20.56 
L24.92,20.56
M23.60,21.67
23.60,21.45 
C23.63,21.46 23.65,21.46 23.67,21.46
C23.82,21.46 23.90,21.33 23.90,21.11
C23.90,20.86 23.82,20.74 23.67,20.74
C23.66,20.74 23.63,20.74 23.60,20.75
L23.60,20.54 
C23.63,20.54 23.66,20.54 23.67,20.54
C23.85,20.54 23.98,20.62 24.08,20.76
C24.15,20.86 24.17,20.96 24.17,21.11
C24.17,21.44 23.95,21.68 23.66,21.67
C23.65,21.68 23.63,21.68 23.60,21.67
L23.60,21.67 
L23.60,21.67
M23.60,18.65
23.60,18.45 
C23.63,18.45 23.66,18.45 23.67,18.45
C23.79,18.45 23.93,18.50 23.95,18.58
C23.99,18.66 24.00,18.73 24.00,18.85
L24.00,19.55 
23.76,19.55 
23.76,18.86 
C23.76,18.73 23.70,18.66 23.60,18.65
L23.60,18.65 
L23.60,18.65
M23.60,17.37
23.60,17.17 
C23.76,17.17 23.85,17.03 23.85,16.80
C23.85,16.57 23.76,16.43 23.61,16.43
L23.60,16.43 
23.60,16.24 
23.61,16.24 
C23.79,16.24 23.94,16.30 24.02,16.45
C24.08,16.57 24.12,16.66 24.12,16.80
C24.12,17.12 23.90,17.36 23.60,17.37
L23.60,17.37 
L23.60,17.37
M24.42,18.46
24.65,18.46 
24.65,19.55 
24.42,19.55 
24.42,18.46 
24.42,18.46 
L24.42,18.46
M24.83,18.10
24.44,18.29 
24.38,18.18 
24.75,17.95 
24.83,18.10 
L24.83,18.10
M23.60,16.24
23.60,16.43 
C23.45,16.44 23.37,16.57 23.37,16.80
C23.37,17.03 23.45,17.17 23.60,17.17
L23.60,17.17 
23.60,17.37 
23.60,17.37 
C23.44,17.37 23.29,17.30 23.20,17.17
C23.13,17.07 23.11,16.93 23.11,16.80
C23.11,16.48 23.31,16.25 23.60,16.24
L23.60,16.24 
L23.60,16.24
M23.60,18.45
23.60,18.65 
C23.60,18.65 23.60,18.65 23.60,18.65
C23.51,18.65 23.44,18.71 23.39,18.77
C23.37,18.84 23.36,18.90 23.36,18.99
L23.36,19.55 
23.11,19.55 
23.11,18.46 
23.34,18.46 
23.34,18.71 
C23.40,18.53 23.49,18.46 23.60,18.45
L23.60,18.45 
L23.60,18.45
M23.60,20.54
23.60,20.75 
C23.48,20.78 23.41,20.90 23.41,21.11
C23.41,21.31 23.49,21.43 23.60,21.45
L23.60,21.67 
C23.46,21.67 23.35,21.59 23.26,21.46
C23.19,21.37 23.16,21.23 23.16,21.11
C23.16,20.79 23.34,20.57 23.60,20.54
L23.60,20.54 
L23.60,20.54
M22.41,21.67
22.41,21.47 
22.42,21.47 
C22.57,21.47 22.64,21.33 22.64,21.12
C22.64,20.89 22.57,20.74 22.42,20.74
C22.42,20.74 22.41,20.74 22.41,20.74
L22.41,20.55 
C22.43,20.54 22.47,20.54 22.50,20.54
C22.62,20.54 22.71,20.59 22.78,20.69
C22.86,20.79 22.89,20.93 22.89,21.10
C22.89,21.27 22.86,21.43 22.77,21.53
C22.70,21.63 22.61,21.68 22.49,21.67
C22.46,21.68 22.43,21.68 22.41,21.67
L22.41,21.67 
L22.41,21.67
M22.41,19.55
22.41,19.34 
C22.51,19.33 22.57,19.27 22.59,19.14
L22.81,19.17 
C22.78,19.28 22.76,19.33 22.70,19.40
C22.64,19.49 22.55,19.55 22.41,19.55
L22.41,19.55 
L22.41,19.55
M22.41,18.64
22.41,18.45 
C22.55,18.45 22.64,18.48 22.71,18.57
C22.77,18.64 22.79,18.69 22.81,18.80
L22.59,18.84 
C22.59,18.71 22.52,18.64 22.41,18.64
L22.41,18.64 
L22.41,18.64
M22.41,18.30
22.41,18.10 
22.58,17.96 
22.78,17.99 
22.41,18.30 
22.41,18.30 
L22.41,18.30
M22.41,17.37
22.41,17.18 
C22.55,17.18 22.62,17.12 22.62,17.06
C22.62,17.00 22.57,16.94 22.50,16.93
L22.41,16.92 
22.41,16.66 
22.59,16.70 
C22.77,16.73 22.86,16.84 22.86,17.01
C22.86,17.22 22.69,17.36 22.41,17.37
L22.41,17.37 
L22.41,17.37
M22.41,16.41
22.41,16.24 
C22.62,16.25 22.77,16.32 22.81,16.49
L22.59,16.53 
C22.57,16.45 22.51,16.41 22.41,16.41
L22.41,16.41
M22.41,16.24
L22.41,16.41 
C22.41,16.41 22.40,16.41 22.39,16.41
C22.29,16.41 22.21,16.45 22.21,16.53
C22.21,16.59 22.26,16.62 22.36,16.64
L22.41,16.66 
22.41,16.92 
22.31,16.90 
C22.08,16.86 21.98,16.75 21.98,16.59
C21.98,16.51 22.01,16.42 22.06,16.35
C22.13,16.28 22.24,16.24 22.39,16.24
L22.41,16.24 
22.41,16.24 
L22.41,16.24
M22.41,17.18
22.41,17.37 
22.39,17.37 
C22.26,17.37 22.13,17.33 22.04,17.28
C21.99,17.21 21.96,17.18 21.93,17.10
L22.16,17.06 
C22.21,17.14 22.28,17.18 22.40,17.18
L22.41,17.18 
22.41,17.18 
L22.41,17.18
M22.41,18.10
22.41,18.30 
22.40,18.31 
22.03,17.99 
22.22,17.96 
22.40,18.10 
22.41,18.10 
22.41,18.10 
L22.41,18.10
M22.41,18.45
22.41,18.64 
22.40,18.64 
C22.26,18.64 22.16,18.77 22.16,19.00
C22.16,19.23 22.26,19.34 22.38,19.34
C22.39,19.34 22.41,19.34 22.41,19.34
L22.41,19.55 
C22.40,19.55 22.38,19.55 22.37,19.55
C22.08,19.55 21.90,19.33 21.90,19.00
C21.90,18.66 22.09,18.45 22.39,18.45
C22.40,18.45 22.41,18.45 22.41,18.45
L22.41,18.45 
L22.41,18.45
M22.41,20.55
22.41,20.74 
C22.29,20.74 22.19,20.88 22.19,21.05
L22.19,21.20 
C22.19,21.37 22.29,21.46 22.41,21.47
L22.41,21.67 
C22.31,21.64 22.24,21.59 22.19,21.50
L22.19,22.01 
21.94,22.01 
21.94,20.57 
22.17,20.57 
22.17,20.75 
C22.23,20.63 22.31,20.57 22.41,20.55
L22.41,20.55 
L22.41,20.55
M21.20,21.67
21.20,21.48 
C21.31,21.48 21.40,21.43 21.40,21.35
C21.40,21.30 21.33,21.26 21.26,21.24
L21.20,21.23 
21.20,20.96 
21.35,21.00 
C21.53,21.04 21.63,21.15 21.63,21.32
C21.63,21.53 21.46,21.67 21.20,21.67
L21.20,21.67 
L21.20,21.67
M21.20,20.71
21.20,20.54 
C21.40,20.55 21.52,20.63 21.58,20.79
L21.35,20.84 
C21.33,20.76 21.28,20.72 21.20,20.71
L21.20,20.71 
L21.20,20.71
M21.20,19.51
21.20,19.34 
C21.28,19.29 21.33,19.21 21.33,19.08
L21.33,18.99 
C21.28,18.99 21.23,19.00 21.20,19.00
L21.20,18.86 
C21.23,18.86 21.28,18.86 21.33,18.86
L21.33,18.77 
C21.33,18.69 21.29,18.64 21.20,18.61
L21.20,18.45 
C21.34,18.45 21.44,18.47 21.50,18.56
C21.55,18.61 21.58,18.67 21.58,18.83
L21.58,19.32 
C21.58,19.38 21.59,19.46 21.60,19.55
L21.38,19.55 
C21.35,19.46 21.33,19.41 21.33,19.32
C21.30,19.41 21.27,19.44 21.23,19.48
C21.22,19.48 21.21,19.49 21.20,19.51
L21.20,19.51 
L21.20,19.51
M21.20,17.34
21.20,17.17 
C21.33,17.15 21.42,17.04 21.42,16.88
L21.42,16.80 
C21.33,16.80 21.25,16.80 21.20,16.81
L21.20,16.66 
C21.25,16.66 21.32,16.66 21.42,16.66
L21.42,16.58 
C21.42,16.45 21.34,16.41 21.20,16.41
L21.20,16.41 
21.20,16.24 
C21.20,16.25 21.21,16.24 21.22,16.24
C21.41,16.24 21.52,16.28 21.60,16.35
C21.64,16.42 21.67,16.48 21.67,16.63
L21.67,17.12 
C21.67,17.20 21.67,17.26 21.70,17.34
L21.46,17.34 
C21.44,17.28 21.43,17.21 21.42,17.12
C21.40,17.20 21.35,17.23 21.32,17.28
C21.28,17.31 21.23,17.33 21.20,17.34
L21.20,17.34
M19.68,15.79
L19.88,15.76 
19.88,15.76 
20.06,15.91 
20.23,15.76 
20.23,15.76 
20.43,15.79 
20.06,16.11 
19.68,15.79 
19.68,15.79 
L19.68,15.79
M21.20,16.24
21.20,16.41 
C21.03,16.41 20.96,16.45 20.95,16.58
L20.73,16.55 
C20.75,16.44 20.79,16.38 20.87,16.31
C20.96,16.28 21.05,16.25 21.20,16.24
L21.20,16.24 
L21.20,16.24
M21.20,16.66
21.20,16.81 
C21.03,16.84 20.95,16.91 20.95,17.01
C20.95,17.11 21.02,17.18 21.13,17.18
C21.15,17.18 21.18,17.18 21.20,17.17
L21.20,17.34 
C21.14,17.36 21.11,17.37 21.05,17.37
C20.85,17.37 20.70,17.22 20.70,17.03
C20.70,16.86 20.81,16.74 21.00,16.69
C21.05,16.69 21.12,16.67 21.20,16.66
L21.20,16.66 
L21.20,16.66
M21.20,18.45
21.20,18.61 
C21.16,18.60 21.13,18.60 21.11,18.60
C20.95,18.60 20.87,18.66 20.85,18.77
L20.65,18.74 
C20.66,18.64 20.70,18.58 20.79,18.52
C20.87,18.46 20.98,18.45 21.13,18.45
C21.15,18.45 21.16,18.45 21.20,18.45
L21.20,18.45 
L21.20,18.45
M21.20,18.85
21.20,19.00 
C20.98,19.01 20.85,19.09 20.85,19.22
C20.85,19.32 20.93,19.37 21.05,19.37
C21.11,19.37 21.14,19.37 21.20,19.34
L21.20,19.51 
C21.12,19.55 21.05,19.55 20.96,19.55
C20.75,19.55 20.61,19.43 20.61,19.23
C20.61,19.06 20.71,18.95 20.92,18.89
C21.00,18.87 21.08,18.86 21.20,18.86
L21.20,18.86 
L21.20,18.85
M21.20,20.54
21.20,20.71 
C21.18,20.71 21.16,20.71 21.16,20.71
C21.05,20.71 20.96,20.76 20.96,20.84
C20.96,20.90 21.02,20.92 21.12,20.94
L21.20,20.96 
21.20,21.23 
21.05,21.20 
C20.85,21.16 20.74,21.05 20.74,20.90
C20.74,20.80 20.77,20.72 20.83,20.65
C20.91,20.58 21.00,20.54 21.16,20.54
C21.16,20.54 21.18,20.54 21.20,20.54
L21.20,20.54 
L21.20,20.54
M21.20,21.48
21.20,21.67 
C21.18,21.68 21.16,21.68 21.16,21.67
C21.02,21.68 20.91,21.63 20.81,21.57
C20.75,21.53 20.71,21.48 20.70,21.40
L20.93,21.35 
C20.98,21.46 21.03,21.48 21.16,21.48
C21.18,21.48 21.19,21.48 21.20,21.48
L21.20,21.48 
L21.20,21.48
M17.72,19.55
17.72,19.37 
C17.73,19.37 17.75,19.37 17.75,19.37
C17.87,19.37 17.95,19.32 17.98,19.20
L18.21,19.23 
C18.14,19.45 17.98,19.55 17.72,19.55
L17.72,19.55 
L17.72,19.55
M17.72,19.03
17.72,18.87 
17.98,18.87 
C17.98,18.78 17.97,18.74 17.92,18.71
C17.88,18.64 17.81,18.60 17.72,18.60
L17.72,18.60 
17.72,18.45 
17.75,18.45 
C18.05,18.45 18.23,18.65 18.24,19.03
L17.72,19.03 
17.72,19.03 
L17.72,19.03
M20.46,16.97
C20.43,17.09 20.42,17.14 20.37,17.21
C20.30,17.31 20.16,17.37 20.02,17.37
C19.75,17.37 19.56,17.14 19.56,16.80
C19.56,16.45 19.75,16.24 20.05,16.24
C20.17,16.24 20.30,16.29 20.37,16.38
C20.42,16.43 20.44,16.49 20.46,16.61
L20.25,16.64 
C20.23,16.51 20.16,16.43 20.06,16.43
C19.91,16.43 19.83,16.58 19.83,16.81
C19.83,17.02 19.90,17.15 20.05,17.15
C20.15,17.15 20.23,17.08 20.25,16.93
L20.46,16.97 
20.46,16.97 
L20.46,16.97
M19.22,19.55
19.22,18.86 
C19.22,18.73 19.15,18.65 19.06,18.65
C18.96,18.65 18.89,18.71 18.85,18.77
C18.82,18.84 18.79,18.90 18.79,18.99
L18.79,19.55 
18.56,19.55 
18.56,18.46 
18.79,18.46 
18.79,18.71 
C18.87,18.51 18.98,18.45 19.13,18.45
C19.25,18.45 19.36,18.50 19.41,18.58
C19.44,18.66 19.46,18.73 19.46,18.85
L19.46,19.55 
19.22,19.55 
19.22,19.55 
L19.22,19.55
M20.37,19.55
C20.30,19.55 20.23,19.55 20.18,19.55
C20.11,19.55 20.03,19.54 19.95,19.48
C19.90,19.43 19.88,19.35 19.88,19.21
L19.88,18.65 
19.75,18.65 
19.75,18.46 
19.90,18.46 
19.92,18.18 
20.13,18.16 
20.13,18.46 
20.35,18.46 
20.35,18.65 
20.13,18.65 
20.13,19.17 
C20.13,19.31 20.16,19.35 20.31,19.35
C20.31,19.35 20.34,19.35 20.37,19.34
L20.37,19.55 
L20.37,19.55
M17.72,18.45
17.72,18.60 
C17.60,18.60 17.50,18.71 17.48,18.87
L17.72,18.87 
17.72,19.03 
17.48,19.03 
17.48,19.06 
C17.48,19.26 17.58,19.37 17.72,19.37
L17.72,19.55 
17.72,19.55 
C17.43,19.55 17.23,19.34 17.23,19.00
C17.23,18.66 17.44,18.45 17.72,18.45
L17.72,18.45 
L17.72,18.45
M14.98,19.55
14.98,19.35 
C15.14,19.35 15.22,19.23 15.22,19.00
C15.22,18.76 15.14,18.64 14.98,18.64
L14.98,18.64 
14.98,18.45 
14.98,18.45 
C15.16,18.45 15.29,18.50 15.40,18.66
C15.46,18.76 15.49,18.86 15.49,19.00
C15.49,19.33 15.28,19.55 14.98,19.55
L14.98,19.55 
L14.98,19.55
M15.82,19.55
15.82,18.46 
16.04,18.46 
16.04,18.72 
C16.07,18.60 16.11,18.55 16.16,18.50
C16.22,18.45 16.29,18.43 16.34,18.42
C16.35,18.43 16.36,18.43 16.36,18.44
L16.36,18.69 
C16.36,18.69 16.36,18.69 16.35,18.69
C16.26,18.69 16.19,18.72 16.13,18.78
C16.09,18.85 16.06,18.95 16.06,19.04
L16.06,19.55 
15.82,19.55 
15.82,19.55 
L15.82,19.55
M16.65,18.46
16.90,18.46 
16.90,19.55 
16.65,19.55 
16.65,18.46 
16.65,18.46 
L16.65,18.46
M16.65,18.08
16.90,18.08 
16.90,18.33 
16.65,18.33 
16.65,18.08 
L16.65,18.08
M14.98,18.45
14.98,18.64 
C14.82,18.64 14.73,18.76 14.73,19.00
C14.73,19.23 14.83,19.35 14.98,19.35
L14.98,19.35 
14.98,19.55 
14.97,19.55 
C14.80,19.55 14.67,19.49 14.58,19.35
C14.52,19.27 14.46,19.13 14.46,19.00
C14.46,18.66 14.68,18.45 14.98,18.45
" />
</g>
</g>
</g>
</g>
<g opacity="1.00">
</g>
<g opacity="1.00">
</g>
</g>
</g>
</g>
</g>
</svg>
