<?xml version="1.0" encoding="UTF-8" standalone="no"?>
<!-- Generator: OCAD Version 10.3.0 -->

<svg
   xmlns:dc="http://purl.org/dc/elements/1.1/"
   xmlns:cc="http://creativecommons.org/ns#"
   xmlns:rdf="http://www.w3.org/1999/02/22-rdf-syntax-ns#"
   xmlns:svg="http://www.w3.org/2000/svg"
   xmlns="http://www.w3.org/2000/svg"
   xmlns:sodipodi="http://sodipodi.sourceforge.net/DTD/sodipodi-0.dtd"
   xmlns:inkscape="http://www.inkscape.org/namespaces/inkscape"
   id="mainMap"
   width="5.7500cm"
   height="1.4560cm"
   viewBox="0 0 57.5000 14.5600"
   style="fill:none;stroke-width:0;fill-rule:evenodd"
   version="1.1"
   inkscape:version="0.48.5 r10040"
   sodipodi:docname="racom.svg">
  <metadata
     id="metadata81">
    <rdf:RDF>
      <cc:Work
         rdf:about="">
        <dc:format>image/svg+xml</dc:format>
        <dc:type
           rdf:resource="http://purl.org/dc/dcmitype/StillImage" />
      </cc:Work>
    </rdf:RDF>
  </metadata>
  <defs
     id="defs79" />
  <sodipodi:namedview
     pagecolor="#ffffff"
     bordercolor="#666666"
     borderopacity="1"
     objecttolerance="10"
     gridtolerance="10"
     guidetolerance="10"
     inkscape:pageopacity="0"
     inkscape:pageshadow="2"
     inkscape:window-width="1280"
     inkscape:window-height="972"
     id="namedview77"
     showgrid="false"
     inkscape:zoom="1.5509952"
     inkscape:cx="101.87008"
     inkscape:cy="25.795275"
     inkscape:window-x="-8"
     inkscape:window-y="22"
     inkscape:window-maximized="1"
     inkscape:current-layer="mainMapContent" />
  <desc
     id="desc3">Map</desc>
  <g
     id="scaleTransform"
     transform="scale(1.00000000)">
    <g
       id="mainMapContent">
      <!-- map fill color -->
      <g
         id="g8">
        <clipPath
           id="Clip"
           fill="none"
           stroke="none">
          <rect
             x="0"
             y="0"
             width="57.5000"
             height="14.5600"
             fill="none"
             id="rect11" />
        </clipPath>
        <g
           clip-path="url(#Clip)"
           id="g13">
          <g
             opacity="1.00"
             id="g15" />
          <g
             opacity="1.00"
             id="g17" />
          <g
             opacity="1.00"
             id="g19" />
          <g
             opacity="1.00"
             id="g21" />
          <g
             opacity="1.00"
             id="g23" />
          <g
             opacity="1.00"
             id="g25" />
          <g
             opacity="1.00"
             id="g27" />
          <g
             opacity="1.00"
             id="g29" />
          <g
             opacity="1.00"
             id="g31" />
          <g
             opacity="1.00"
             id="g33" />
          <g
             opacity="1.00"
             id="g35" />
          <g
             opacity="1.00"
             id="g37" />
          <g
             opacity="1.00"
             id="g39" />
          <g
             opacity="1.00"
             id="g41" />
          <g
             opacity="1.00"
             id="g43">
            <g
               id="3.4 reklamy - \350erven\341 tmav\341 Racom 315">
              <g
                 stroke="rgb(192,14,26)"
                 id="g46">
                <g
                   fill="rgb(192,14,26)"
                   id="g48">
                  <path
                     d="M14.96,5.47 C14.85,4.11 13.80,3.02 12.50,2.83 L12.50,6.51  C12.85,6.36 13.19,6.32 13.66,6.36 C13.69,6.72 13.64,7.07 13.48,7.32 C13.33,7.52 13.07,7.65 12.79,7.77 C13.38,7.96 13.85,7.87 14.33,7.55 C14.70,7.29 14.91,6.94 14.96,6.47 L14.96,5.47  14.96,5.47  L14.96,5.47 M12.50,10.88 12.50,9.71  C12.69,9.63 12.90,9.58 13.13,9.55 C13.57,9.52 13.89,9.74 14.12,10.06 C13.69,10.50 13.12,10.79 12.50,10.88 L12.50,10.88 M12.50,2.83 C12.30,2.80 12.11,2.80 11.93,2.80 L5.57,2.80  C4.05,2.87 2.83,4.11 2.80,5.66 L2.80,5.80  C2.80,5.83 2.80,5.85 2.80,5.86 L2.80,8.18  C2.89,9.71 4.18,10.89 5.68,10.89 L7.46,10.89  C8.01,10.83 8.53,10.50 8.60,10.03 C8.64,9.75 8.57,9.50 8.39,9.34 C8.06,9.03 7.79,8.92 7.35,8.88 C6.91,8.87 6.51,8.95 5.99,9.10 C6.16,8.76 6.22,8.56 6.27,8.16 C6.30,7.86 6.19,7.62 5.91,7.46 C5.56,7.29 5.37,7.27 5.00,7.23 C5.18,7.00 5.29,6.85 5.38,6.58 C5.45,6.33 5.45,6.08 5.28,5.89 C5.03,5.63 4.86,5.54 4.50,5.42 C5.15,4.88 5.65,4.59 6.54,4.59 C7.07,4.57 7.46,4.68 7.98,5.04 C8.77,5.57 9.14,6.01 9.83,6.69 C10.07,6.94 10.24,7.05 10.56,7.11 C10.53,6.69 10.56,6.39 10.72,6.02 C10.86,5.67 11.25,5.51 11.71,5.26 C12.00,5.79 12.14,6.11 12.11,6.69 C12.25,6.62 12.38,6.57 12.50,6.51 L12.50,2.83  12.50,2.83  L12.50,2.83 M12.50,9.71 12.50,10.88  C12.40,10.89 12.30,10.91 12.19,10.91 L10.89,10.91  C11.43,10.37 11.93,9.92 12.50,9.71 "
                     id="path50" />
                </g>
              </g>
            </g>
          </g>
          <g
             opacity="1.00"
             id="g52" />
          <g
             opacity="1.00"
             id="g54" />
          <g
             opacity="1.00"
             id="g56">
            <g
               id="2.1 reklamy - \232ed\341 303">
              <g
                 stroke="rgb(135,140,135)"
                 id="g59">
                <g
                   fill="rgb(135,140,135)"
                   id="g61">
                  <path
                     d="M40.54,11.63 40.54,11.60  40.82,10.86  41.01,10.86  40.96,10.99  41.44,10.99  41.40,10.86  41.61,10.86  41.89,11.63  41.67,11.63  41.51,11.16  40.90,11.16  40.74,11.63  40.54,11.63  40.54,11.63  L40.54,11.63 M40.54,10.26 40.54,10.09  40.56,10.09  40.56,10.26  40.54,10.26  40.54,10.26  L40.54,10.26 M40.81,10.86 41.00,10.86  41.12,10.54  C41.15,10.44 41.18,10.35 41.19,10.23 C41.22,10.32 41.25,10.44 41.29,10.57 L41.40,10.86  41.61,10.86  41.31,10.09  41.09,10.09  40.81,10.86  40.81,10.86  L40.81,10.86 M42.55,11.63 42.55,10.09  42.75,10.09  43.52,11.31  43.52,10.09  43.70,10.09  43.70,11.63  43.51,11.63  42.75,10.41  42.75,11.63  42.55,11.63  42.55,11.63  L42.55,11.63 M44.08,11.63 44.08,10.09  45.14,10.09  45.14,10.26  44.29,10.26  44.29,10.74  45.08,10.74  45.08,10.92  44.29,10.92  44.29,11.45  45.18,11.45  45.18,11.63  44.08,11.63  44.08,11.63  L44.08,11.63 M45.87,11.63 45.87,10.26  45.38,10.26  45.38,10.09  46.54,10.09  46.54,10.26  46.08,10.26  46.08,11.63  45.87,11.63  45.87,11.63  L45.87,11.63 M47.06,11.63 46.66,10.09  46.87,10.09  47.09,11.10  C47.12,11.22 47.13,11.32 47.16,11.42 C47.19,11.25 47.21,11.16 47.21,11.13 L47.50,10.09  47.73,10.09  47.95,10.86  C48.00,11.06 48.03,11.25 48.06,11.42 C48.09,11.32 48.11,11.22 48.14,11.09 L48.37,10.09  48.55,10.09  48.16,11.63  47.97,11.63  47.67,10.45  C47.64,10.35 47.61,10.29 47.61,10.26 C47.61,10.34 47.59,10.39 47.57,10.45 L47.27,11.63  47.06,11.63  47.06,11.63  L47.06,11.63 M50.14,10.86 C50.14,10.86 50.14,10.86 50.14,10.86 C50.14,11.02 50.11,11.16 50.04,11.28 C50.00,11.41 49.90,11.51 49.79,11.56 C49.68,11.63 49.57,11.65 49.43,11.65 C49.30,11.65 49.17,11.63 49.07,11.56 C48.95,11.50 48.88,11.39 48.82,11.28 C48.76,11.14 48.73,11.02 48.73,10.88 L48.73,10.88  C48.73,10.88 48.73,10.86 48.73,10.86 L48.95,10.86  C48.95,10.86 48.94,10.88 48.94,10.88 L48.94,10.88  C48.94,11.07 48.98,11.22 49.08,11.32 C49.17,11.44 49.29,11.50 49.43,11.50 C49.58,11.50 49.70,11.44 49.80,11.32 C49.89,11.22 49.93,11.06 49.93,10.86 C49.93,10.86 49.93,10.86 49.93,10.86 L50.14,10.86  50.14,10.86  L50.14,10.86 M48.73,10.86 48.94,10.86  C48.94,10.64 48.98,10.49 49.08,10.38 C49.19,10.28 49.30,10.23 49.43,10.23 C49.54,10.23 49.62,10.25 49.70,10.31 C49.77,10.37 49.83,10.42 49.87,10.53 C49.92,10.62 49.93,10.74 49.93,10.86 L50.14,10.86  C50.12,10.71 50.10,10.57 50.05,10.44 C50.00,10.32 49.90,10.22 49.80,10.16 C49.70,10.09 49.58,10.04 49.43,10.04 C49.22,10.04 49.07,10.13 48.94,10.28 C48.79,10.41 48.73,10.62 48.73,10.86 L48.73,10.86  L48.73,10.86 M51.43,10.86 C51.37,10.89 51.30,10.92 51.21,10.94 C51.27,10.95 51.30,10.99 51.33,10.99 C51.38,11.06 51.43,11.13 51.49,11.22 L51.75,11.63  51.50,11.63  51.30,11.32  C51.26,11.22 51.21,11.14 51.17,11.10 C51.12,11.06 51.09,11.02 51.06,10.99 C51.04,10.96 51.01,10.96 50.98,10.95 C50.96,10.95 50.92,10.94 50.86,10.94 L50.64,10.94  50.64,11.63  50.44,11.63  50.44,10.86  51.43,10.86  51.43,10.86  L51.43,10.86 M51.04,10.86 51.04,10.77  50.64,10.77  50.64,10.25  51.04,10.25  51.04,10.09  50.44,10.09  50.44,10.86  51.04,10.86  51.04,10.86  L51.04,10.86 M51.04,10.09 51.04,10.25  51.11,10.25  C51.21,10.25 51.30,10.28 51.34,10.32 C51.40,10.38 51.43,10.42 51.43,10.52 C51.43,10.56 51.40,10.60 51.38,10.64 C51.36,10.69 51.31,10.71 51.27,10.74 C51.23,10.77 51.15,10.77 51.06,10.77 L51.04,10.77  51.04,10.86  51.41,10.86  C51.46,10.83 51.49,10.80 51.52,10.77 C51.59,10.71 51.62,10.62 51.62,10.52 C51.62,10.42 51.61,10.34 51.56,10.28 C51.52,10.20 51.46,10.14 51.40,10.13 C51.33,10.10 51.23,10.09 51.11,10.09 L51.04,10.09  51.04,10.09  L51.04,10.09 M51.97,11.63 51.97,10.09  52.16,10.09  52.16,10.85  52.90,10.09  53.16,10.09  52.54,10.71  53.19,11.63  52.93,11.63  52.40,10.85  52.16,11.10  52.16,11.63  51.97,11.63  51.97,11.63  L51.97,11.63 M53.32,11.13 53.51,11.13  C53.51,11.19 53.54,11.26 53.57,11.32 C53.60,11.36 53.66,11.41 53.72,11.44 C53.79,11.47 53.87,11.48 53.95,11.48 C54.03,11.48 54.09,11.47 54.14,11.44 C54.21,11.42 54.24,11.39 54.27,11.35 C54.30,11.31 54.30,11.26 54.30,11.22 C54.30,11.16 54.30,11.13 54.27,11.09 C54.24,11.06 54.21,11.02 54.14,10.99 C54.10,10.99 54.01,10.95 53.88,10.92 C53.73,10.88 53.64,10.85 53.60,10.82 C53.53,10.77 53.47,10.74 53.44,10.68 C53.41,10.62 53.38,10.56 53.38,10.49 C53.38,10.41 53.41,10.34 53.45,10.26 C53.48,10.19 53.56,10.14 53.63,10.10 C53.72,10.07 53.81,10.06 53.91,10.06 C54.01,10.06 54.12,10.07 54.21,10.12 C54.27,10.14 54.33,10.20 54.38,10.28 C54.42,10.35 54.45,10.42 54.45,10.52 L54.27,10.54  C54.27,10.44 54.21,10.37 54.17,10.31 C54.12,10.26 54.03,10.23 53.91,10.23 C53.79,10.23 53.70,10.26 53.66,10.31 C53.60,10.35 53.57,10.41 53.57,10.47 C53.57,10.53 53.60,10.57 53.63,10.60 C53.67,10.64 53.76,10.68 53.92,10.71 C54.09,10.77 54.19,10.79 54.24,10.82 C54.33,10.86 54.39,10.91 54.44,10.96 C54.48,11.04 54.52,11.11 54.52,11.19 C54.52,11.28 54.48,11.35 54.44,11.44 C54.39,11.51 54.32,11.56 54.24,11.60 C54.16,11.64 54.06,11.65 53.95,11.65 C53.82,11.65 53.70,11.64 53.63,11.60 C53.53,11.56 53.47,11.50 53.41,11.42 C53.37,11.34 53.34,11.25 53.32,11.13 L53.32,11.13 M40.54,10.09 L40.54,10.26  40.07,10.26  40.07,11.63  39.87,11.63  39.87,10.26  39.43,10.26  39.43,10.09  40.54,10.09  40.54,10.09  L40.54,10.09 M40.54,11.60 40.53,11.63  40.54,11.63  40.54,11.60  40.54,11.60  L40.54,11.60 M39.43,11.63 39.46,11.63  39.43,11.56  39.43,11.63  L39.43,11.63 M30.37,10.86 C30.31,10.89 30.23,10.92 30.14,10.94 C30.20,10.95 30.23,10.99 30.26,10.99 C30.32,11.06 30.37,11.13 30.42,11.22 L30.67,11.63  30.44,11.63  30.23,11.32  C30.19,11.22 30.14,11.14 30.10,11.10 C30.06,11.06 30.03,11.02 30.00,10.99 C29.97,10.96 29.94,10.96 29.91,10.95 C29.89,10.95 29.85,10.94 29.80,10.94 L29.58,10.94  29.58,11.63  29.38,11.63  29.38,10.86  30.37,10.86  30.37,10.86  L30.37,10.86 M39.43,10.09 39.43,10.26  39.40,10.26  39.40,10.09  39.43,10.09  39.43,10.09  L39.43,10.09 M39.43,11.56 39.43,11.63  39.24,11.63  39.08,11.16  38.46,11.16  38.30,11.63  38.10,11.63  38.38,10.86  38.56,10.86  38.52,10.99  39.00,10.99  38.96,10.86  39.17,10.86  39.43,11.56  39.43,11.56  L39.43,11.56 M29.97,10.86 29.97,10.77  29.58,10.77  29.58,10.25  29.97,10.25  29.97,10.09  29.38,10.09  29.38,10.86  29.97,10.86  29.97,10.86  L29.97,10.86 M29.97,10.09 29.97,10.25  30.04,10.25  C30.14,10.25 30.23,10.28 30.28,10.32 C30.34,10.38 30.37,10.42 30.37,10.52 C30.37,10.56 30.34,10.60 30.32,10.64 C30.29,10.69 30.25,10.71 30.20,10.74 C30.16,10.77 30.09,10.77 30.00,10.77 L29.97,10.77  29.97,10.86  30.35,10.86  C30.39,10.83 30.42,10.80 30.45,10.77 C30.53,10.71 30.56,10.62 30.56,10.52 C30.56,10.42 30.54,10.34 30.50,10.28 C30.45,10.20 30.39,10.14 30.34,10.13 C30.26,10.10 30.17,10.09 30.03,10.09 L29.97,10.09  29.97,10.09  L29.97,10.09 M31.81,10.86 32.11,11.63  31.89,11.63  31.73,11.16  31.11,11.16  30.95,11.63  30.74,11.63  31.04,10.86  31.23,10.86  31.17,10.99  31.67,10.99  31.61,10.86  31.81,10.86  31.81,10.86  L31.81,10.86 M31.02,10.86 31.21,10.86  31.34,10.54  C31.36,10.44 31.39,10.35 31.41,10.23 C31.44,10.32 31.47,10.44 31.51,10.57 L31.61,10.86  31.81,10.86  31.53,10.09  31.32,10.09  31.02,10.86  31.02,10.86  L31.02,10.86 M33.54,10.86 C33.54,10.96 33.52,11.09 33.49,11.16 C33.46,11.26 33.43,11.34 33.40,11.39 C33.36,11.45 33.32,11.50 33.27,11.53 C33.21,11.56 33.15,11.60 33.08,11.61 C33.02,11.63 32.95,11.63 32.84,11.63 L32.32,11.63  32.32,10.86  32.51,10.86  32.51,11.45  32.83,11.45  C32.92,11.45 33.00,11.44 33.05,11.42 C33.11,11.41 33.15,11.38 33.18,11.35 C33.24,11.31 33.27,11.23 33.30,11.14 C33.33,11.07 33.33,10.96 33.33,10.86 L33.54,10.86  33.54,10.86  L33.54,10.86 M32.32,10.86 32.51,10.86  32.51,10.26  32.81,10.26  C32.95,10.26 33.02,10.28 33.08,10.29 C33.15,10.32 33.21,10.38 33.25,10.47 C33.32,10.57 33.33,10.69 33.33,10.85 C33.33,10.85 33.33,10.85 33.33,10.86 L33.54,10.86  C33.54,10.86 33.54,10.85 33.54,10.85 C33.54,10.71 33.52,10.59 33.47,10.49 C33.43,10.38 33.37,10.29 33.30,10.22 C33.24,10.16 33.17,10.13 33.09,10.10 C33.02,10.09 32.93,10.09 32.83,10.09 L32.32,10.09  32.32,10.86  32.32,10.86  L32.32,10.86 M33.89,11.63 33.89,10.09  34.08,10.09  34.08,11.63  33.89,11.63  33.89,11.63  L33.89,11.63 M35.80,10.86 C35.80,10.86 35.80,10.86 35.80,10.86 C35.80,11.02 35.78,11.16 35.72,11.28 C35.66,11.41 35.58,11.51 35.46,11.56 C35.36,11.63 35.23,11.65 35.10,11.65 C34.97,11.65 34.84,11.63 34.73,11.56 C34.64,11.50 34.55,11.39 34.49,11.28 C34.43,11.14 34.41,11.02 34.41,10.88 L34.41,10.88  C34.41,10.88 34.41,10.86 34.41,10.86 L34.62,10.86  C34.62,10.86 34.61,10.88 34.61,10.88 L34.61,10.88  C34.61,11.07 34.65,11.22 34.75,11.32 C34.84,11.44 34.96,11.50 35.10,11.50 C35.25,11.50 35.37,11.44 35.47,11.32 C35.55,11.22 35.61,11.06 35.61,10.86 C35.61,10.86 35.61,10.86 35.61,10.86 L35.80,10.86  35.80,10.86  L35.80,10.86 M34.41,10.86 34.61,10.86  C34.61,10.64 34.65,10.49 34.75,10.38 C34.85,10.28 34.97,10.23 35.10,10.23 C35.21,10.23 35.29,10.25 35.37,10.31 C35.44,10.37 35.50,10.42 35.55,10.53 C35.58,10.62 35.61,10.74 35.61,10.86 L35.80,10.86  C35.79,10.71 35.76,10.57 35.72,10.44 C35.66,10.32 35.58,10.22 35.47,10.16 C35.37,10.09 35.25,10.04 35.10,10.04 C34.90,10.04 34.73,10.13 34.61,10.28 C34.47,10.41 34.41,10.62 34.41,10.86 L34.41,10.86  L34.41,10.86 M37.93,10.86 C37.93,10.96 37.92,11.09 37.91,11.16 C37.87,11.26 37.84,11.34 37.80,11.39 C37.76,11.45 37.71,11.50 37.67,11.53 C37.62,11.56 37.56,11.60 37.49,11.61 C37.42,11.63 37.35,11.63 37.26,11.63 L36.73,11.63  36.73,10.86  36.92,10.86  36.92,11.45  37.23,11.45  C37.34,11.45 37.41,11.44 37.47,11.42 C37.53,11.41 37.56,11.38 37.59,11.35 C37.64,11.31 37.67,11.23 37.70,11.14 C37.73,11.07 37.74,10.96 37.74,10.86 L37.93,10.86  37.93,10.86  L37.93,10.86 M36.73,10.86 36.92,10.86  36.92,10.26  37.23,10.26  C37.35,10.26 37.44,10.28 37.48,10.29 C37.56,10.32 37.62,10.38 37.67,10.47 C37.71,10.57 37.74,10.69 37.74,10.85 C37.74,10.85 37.73,10.85 37.73,10.86 L37.93,10.86  C37.93,10.86 37.93,10.85 37.93,10.85 C37.93,10.71 37.92,10.59 37.89,10.49 C37.84,10.38 37.79,10.29 37.71,10.22 C37.65,10.16 37.59,10.13 37.49,10.10 C37.44,10.09 37.35,10.09 37.23,10.09 L36.73,10.09  36.73,10.86  36.73,10.86  L36.73,10.86 M38.38,10.86 38.56,10.86  38.68,10.54  C38.71,10.44 38.74,10.35 38.75,10.23 C38.78,10.32 38.81,10.44 38.86,10.57 L38.96,10.86  39.17,10.86  38.86,10.09  38.66,10.09  38.38,10.86  "
                     id="path63" />
                </g>
                <g
                   fill="rgb(135,140,135)"
                   id="g65">
                  <path
                     d="M45.12,9.25 45.12,9.12  46.47,4.91  C46.56,4.63 46.87,4.42 47.18,4.44 C47.41,4.46 47.61,4.59 47.70,4.76 L49.68,7.82  49.68,7.82  51.63,4.76  C51.75,4.59 51.94,4.46 52.18,4.44 C52.48,4.42 52.78,4.63 52.87,4.91 L54.27,9.25  53.16,9.27  52.12,5.80  50.25,8.78  C50.11,8.92 49.93,9.02 49.74,9.02 C49.49,9.05 49.26,8.93 49.10,8.76 L47.21,5.80  46.17,9.27  45.12,9.25  45.12,9.25  L45.12,9.25 M45.12,7.83 C45.14,7.76 45.15,7.67 45.15,7.58 L45.17,6.08  C45.15,5.98 45.14,5.87 45.12,5.79 L45.12,7.83  L45.12,7.83 M31.78,9.25 31.93,9.25  31.78,9.05  31.78,9.25  31.78,9.25  L31.78,9.25 M45.12,5.79 45.12,7.83  C45.06,8.15 44.90,8.46 44.68,8.70 C44.39,9.01 43.98,9.22 43.51,9.25 L42.38,9.25  41.58,9.24  41.58,8.25  43.48,8.25  C43.68,8.22 43.84,8.15 43.97,8.00 C44.09,7.87 44.17,7.71 44.17,7.51 L44.17,6.15  C44.17,5.93 44.08,5.75 43.94,5.63 C43.80,5.50 43.65,5.42 43.45,5.41 L43.43,5.41  41.58,5.41  41.58,4.42  43.43,4.42  C43.87,4.42 44.29,4.60 44.59,4.90 C44.86,5.13 45.03,5.44 45.12,5.79 L45.12,5.79  L45.12,5.79 M45.12,9.12 45.08,9.25  45.12,9.25  45.12,9.12  45.12,9.12  L45.12,9.12 M31.78,8.24 31.78,5.47  C31.86,5.29 31.96,5.14 32.10,5.00 C32.39,4.68 32.80,4.46 33.28,4.42 L37.56,4.42  37.56,5.42  33.32,5.42  C33.11,5.45 32.95,5.54 32.81,5.67 C32.70,5.81 32.61,5.96 32.61,6.15 L32.61,7.54  C32.61,7.74 32.71,7.94 32.86,8.05 C32.99,8.18 33.15,8.25 33.36,8.27 L37.56,8.25  37.56,9.25  33.37,9.25  C32.92,9.25 32.49,9.08 32.18,8.78 C32.01,8.63 31.88,8.44 31.78,8.24 L31.78,8.24  L31.78,8.24 M41.58,4.42 39.63,4.42  C39.15,4.46 38.73,4.66 38.43,4.99 C38.16,5.29 37.99,5.67 37.96,6.10 L37.96,7.59  C37.99,8.05 38.21,8.48 38.53,8.76 C38.84,9.06 39.25,9.24 39.71,9.24 L41.58,9.25  41.58,8.25  39.71,8.25  C39.50,8.25 39.33,8.18 39.21,8.03 C39.05,7.91 38.96,7.74 38.96,7.51 L38.95,6.15  C38.96,5.95 39.03,5.79 39.17,5.66 C39.28,5.53 39.46,5.44 39.65,5.41 L41.58,5.41  41.58,4.42  L41.58,4.42 M28.52,4.71 C28.30,4.46 28.13,4.39 27.84,4.39 C27.62,4.39 27.40,4.53 27.27,4.71 L24.07,8.98  23.05,7.82  C23.28,7.70 23.47,7.55 23.65,7.37 C23.95,7.04 24.14,6.60 24.11,6.11 C24.09,5.64 23.88,5.20 23.54,4.90 C23.24,4.62 22.81,4.42 22.37,4.42 L18.76,4.44  17.75,4.44  17.75,9.27  18.76,9.27  18.76,5.42  22.43,5.42  C22.59,5.45 22.75,5.53 22.87,5.63 C23.01,5.78 23.10,5.95 23.12,6.18 C23.13,6.37 23.05,6.58 22.92,6.72 C22.80,6.86 22.68,6.94 22.46,6.94 L20.99,6.94  22.95,9.25  25.14,9.25  27.90,5.57  30.64,9.25  31.78,9.25  31.78,9.05  28.52,4.71  28.52,4.71  L28.52,4.71 M31.78,5.47 31.78,8.24  C31.69,8.05 31.62,7.83 31.62,7.59 L31.62,7.61  31.62,6.11  C31.62,5.89 31.69,5.67 31.78,5.47 "
                     id="path67" />
                </g>
              </g>
            </g>
          </g>
          <g
             opacity="1.00"
             id="g69" />
          <g
             opacity="1.00"
             id="g71" />
          <g
             opacity="1.00"
             id="g73" />
          <g
             opacity="1.00"
             id="g75" />
        </g>
      </g>
    </g>
  </g>
</svg>
