<?xml version="1.0" encoding="UTF-8" standalone="no"?>
<!-- Generator: OCAD Version 10.3.0 -->

<svg
   xmlns:dc="http://purl.org/dc/elements/1.1/"
   xmlns:cc="http://creativecommons.org/ns#"
   xmlns:rdf="http://www.w3.org/1999/02/22-rdf-syntax-ns#"
   xmlns:svg="http://www.w3.org/2000/svg"
   xmlns="http://www.w3.org/2000/svg"
   xmlns:sodipodi="http://sodipodi.sourceforge.net/DTD/sodipodi-0.dtd"
   xmlns:inkscape="http://www.inkscape.org/namespaces/inkscape"
   id="mainMap"
   width="3.0240cm"
   height="3.3600cm"
   viewBox="0 0 30.2400 33.6000"
   style="fill:none;stroke-width:0;fill-rule:evenodd"
   version="1.1"
   inkscape:version="0.48.5 r10040"
   sodipodi:docname="t-mapy.svg">
  <metadata
     id="metadata101">
    <rdf:RDF>
      <cc:Work
         rdf:about="">
        <dc:format>image/svg+xml</dc:format>
        <dc:type
           rdf:resource="http://purl.org/dc/dcmitype/StillImage" />
      </cc:Work>
    </rdf:RDF>
  </metadata>
  <defs
     id="defs99" />
  <sodipodi:namedview
     pagecolor="#ffffff"
     bordercolor="#666666"
     borderopacity="1"
     objecttolerance="10"
     gridtolerance="10"
     guidetolerance="10"
     inkscape:pageopacity="0"
     inkscape:pageshadow="2"
     inkscape:window-width="1280"
     inkscape:window-height="972"
     id="namedview97"
     showgrid="false"
     inkscape:zoom="1.9822752"
     inkscape:cx="53.574802"
     inkscape:cy="59.527557"
     inkscape:window-x="-8"
     inkscape:window-y="22"
     inkscape:window-maximized="1"
     inkscape:current-layer="mainMapContent" />
  <desc
     id="desc3">Map</desc>
  <g
     id="scaleTransform"
     transform="scale(1.00000000)">
    <g
       id="mainMapContent">
      <!-- map fill color -->
      <g
         id="g8">
        <clipPath
           id="Clip"
           fill="none"
           stroke="none">
          <rect
             x="0"
             y="0"
             width="30.2400"
             height="33.6000"
             fill="none"
             id="rect11" />
        </clipPath>
        <g
           clip-path="url(#Clip)"
           id="g13">
          <g
             opacity="1.00"
             id="g15" />
          <g
             opacity="1.00"
             id="g17" />
          <g
             opacity="1.00"
             id="g19" />
          <g
             opacity="1.00"
             id="g21" />
          <g
             opacity="1.00"
             id="g23" />
          <g
             opacity="1.00"
             id="g25" />
          <g
             opacity="1.00"
             id="g27" />
          <g
             opacity="1.00"
             id="g29" />
          <g
             opacity="1.00"
             id="g31" />
          <g
             opacity="1.00"
             id="g33" />
          <g
             opacity="1.00"
             id="g35" />
          <g
             opacity="1.00"
             id="g37" />
          <g
             opacity="1.00"
             id="g39" />
          <g
             opacity="1.00"
             id="g41" />
          <g
             opacity="1.00"
             id="g43" />
          <g
             opacity="1.00"
             id="g45" />
          <g
             opacity="1.00"
             id="g47">
            <g
               id="3.0 reklamy - \350erven\341 311">
              <g
                 stroke="rgb(255,0,0)"
                 id="g50">
                <g
                   fill="rgb(255,0,0)"
                   id="g52">
                  <path
                     d="M27.06,2.50 C27.00,3.12 26.78,3.65 26.38,4.05 C25.37,5.16 24.89,5.47 23.39,6.41 C20.17,8.41 18.48,9.12 15.68,11.45 C13.48,13.30 12.50,14.36 11.03,16.87 C10.18,18.35 9.61,19.95 9.26,21.77 L9.25,11.84  2.56,11.83  2.56,2.50  27.06,2.50  "
                     id="path54" />
                </g>
                <g
                   fill="rgb(255,0,0)"
                   id="g56">
                  <path
                     d="M27.38,3.75 C27.28,3.95 27.15,4.15 27.01,4.34 C26.00,5.60 25.34,5.98 23.75,6.97 C20.58,8.95 18.91,9.68 16.13,11.99 C14.03,13.76 13.05,14.79 11.65,17.21 C10.35,19.45 9.58,21.99 9.62,25.48 L20.56,25.48  20.56,11.83  27.38,11.84  27.38,3.75  "
                     id="path58" />
                </g>
              </g>
            </g>
          </g>
          <g
             opacity="1.00"
             id="g60" />
          <g
             opacity="1.00"
             id="g62" />
          <g
             opacity="1.00"
             id="g64">
            <g
               id="2.0 reklamy - \350ern\341 301">
              <g
                 stroke="rgb(0,0,0)"
                 id="g67">
                <g
                   fill="rgb(0,0,0)"
                   id="g69">
                  <path
                     d="M5.87,27.99 8.74,27.99  8.74,28.60  7.68,28.60  7.68,30.35  6.92,30.35  6.92,28.60  5.87,28.60  5.87,27.99  "
                     id="path71" />
                </g>
                <g
                   fill="rgb(0,0,0)"
                   id="g73">
                  <path
                     d="M8.36,29.28 9.84,29.28  9.84,29.74  8.36,29.74  8.36,29.28  "
                     id="path75" />
                </g>
                <g
                   fill="rgb(0,0,0)"
                   id="g77">
                  <path
                     d="M10.02,30.35 10.03,27.99  11.30,27.99  12.01,29.52  12.72,27.99  14.03,27.99  14.03,30.35  13.33,30.35  13.33,28.58  13.22,28.58  12.33,30.35  11.69,30.35  10.82,28.58  10.72,28.58  10.72,30.35  10.02,30.35  "
                     id="path79" />
                </g>
                <g
                   fill="rgb(0,0,0)"
                   id="g81">
                  <path
                     d="M22.30,28.93 23.02,27.99  23.99,27.99  22.68,29.53  22.68,30.35  21.93,30.34  21.93,29.52  20.59,27.99  21.54,27.99  22.30,28.93  "
                     id="path83" />
                </g>
                <g
                   fill="rgb(0,0,0)"
                   id="g85">
                  <path
                     d="M14.10,30.35 15.35,27.99  16.47,27.99  17.72,30.35  16.89,30.35  16.71,29.97  15.12,29.97  14.94,30.35  14.10,30.34  L14.10,30.35 M15.39,29.42 15.82,28.58  15.99,28.58  16.42,29.42  15.39,29.42  "
                     id="path87" />
                </g>
                <g
                   fill="rgb(0,0,0)"
                   id="g89">
                  <path
                     d="M19.66,27.99 C19.89,27.99 20.08,27.99 20.24,28.05 C20.43,28.12 20.53,28.23 20.58,28.39 C20.62,28.59 20.63,28.67 20.63,28.86 C20.64,29.08 20.62,29.19 20.57,29.38 C20.52,29.53 20.44,29.62 20.25,29.68 C20.08,29.75 19.89,29.77 19.66,29.76 L18.52,29.76  18.52,30.35  17.81,30.35  17.81,27.99  19.66,27.99  L19.66,27.99 M19.62,28.58 19.62,28.58  19.63,28.58  C19.72,28.58 19.80,28.60 19.87,28.65 C19.91,28.71 19.92,28.77 19.92,28.86 C19.92,28.98 19.91,29.05 19.87,29.11 C19.80,29.16 19.74,29.17 19.66,29.17 L18.51,29.17  18.51,28.58  19.62,28.58  "
                     id="path91" />
                </g>
              </g>
            </g>
          </g>
          <g
             opacity="1.00"
             id="g93" />
          <g
             opacity="1.00"
             id="g95" />
        </g>
      </g>
    </g>
  </g>
</svg>
