<?xml version="1.0" encoding="UTF-8" standalone="no"?>
<!-- Generator: OCAD Version 10.3.0 -->

<svg
   xmlns:dc="http://purl.org/dc/elements/1.1/"
   xmlns:cc="http://creativecommons.org/ns#"
   xmlns:rdf="http://www.w3.org/1999/02/22-rdf-syntax-ns#"
   xmlns:svg="http://www.w3.org/2000/svg"
   xmlns="http://www.w3.org/2000/svg"
   xmlns:sodipodi="http://sodipodi.sourceforge.net/DTD/sodipodi-0.dtd"
   xmlns:inkscape="http://www.inkscape.org/namespaces/inkscape"
   id="mainMap"
   width="2.3440cm"
   height="2.8400cm"
   viewBox="0 0 23.4400 28.4000"
   style="fill:none;stroke-width:0;fill-rule:evenodd"
   version="1.1"
   inkscape:version="0.48.5 r10040"
   sodipodi:docname="toitoi.svg">
  <metadata
     id="metadata92">
    <rdf:RDF>
      <cc:Work
         rdf:about="">
        <dc:format>image/svg+xml</dc:format>
        <dc:type
           rdf:resource="http://purl.org/dc/dcmitype/StillImage" />
      </cc:Work>
    </rdf:RDF>
  </metadata>
  <defs
     id="defs90" />
  <sodipodi:namedview
     pagecolor="#ffffff"
     bordercolor="#666666"
     borderopacity="1"
     objecttolerance="10"
     gridtolerance="10"
     guidetolerance="10"
     inkscape:pageopacity="0"
     inkscape:pageshadow="2"
     inkscape:window-width="1280"
     inkscape:window-height="972"
     id="namedview88"
     showgrid="false"
     inkscape:zoom="2.3452269"
     inkscape:cx="41.527561"
     inkscape:cy="50.31496"
     inkscape:window-x="-8"
     inkscape:window-y="22"
     inkscape:window-maximized="1"
     inkscape:current-layer="mainMapContent" />
  <desc
     id="desc3">Map</desc>
  <g
     id="scaleTransform"
     transform="scale(1.00000000)">
    <g
       id="mainMapContent">
      <!-- map fill color -->
      <rect
         id="mapBg"
         x="0.26677912"
         y="0.24067834"
         width="23.173222"
         height="28.159321"
         style="fill:#ffffff" />
      <g
         id="g8">
        <clipPath
           id="Clip"
           fill="none"
           stroke="none">
          <rect
             x="0"
             y="0"
             width="23.4400"
             height="28.4000"
             fill="none"
             id="rect11" />
        </clipPath>
        <g
           clip-path="url(#Clip)"
           id="g13">
          <g
             opacity="1.00"
             id="g15" />
          <g
             opacity="1.00"
             id="g17">
            <g
               id="9.0 reklamy - b\355l\341 doln\355 398">
              <g
                 stroke="rgb(255,255,255)"
                 id="g20">
                <g
                   fill="rgb(255,255,255)"
                   id="g22">
                  <path
                     d="M0.24,0.27 0.24,28.09  23.13,28.09  23.13,0.27  0.24,0.27  "
                     id="path24" />
                </g>
              </g>
            </g>
          </g>
          <g
             opacity="1.00"
             id="g26" />
          <g
             opacity="1.00"
             id="g28" />
          <g
             opacity="1.00"
             id="g30" />
          <g
             opacity="1.00"
             id="g32" />
          <g
             opacity="1.00"
             id="g34" />
          <g
             opacity="1.00"
             id="g36" />
          <g
             opacity="1.00"
             id="g38" />
          <g
             opacity="1.00"
             id="g40" />
          <g
             opacity="1.00"
             id="g42" />
          <g
             opacity="1.00"
             id="g44" />
          <g
             opacity="1.00"
             id="g46" />
          <g
             opacity="1.00"
             id="g48" />
          <g
             opacity="1.00"
             id="g50" />
          <g
             opacity="1.00"
             id="g52" />
          <g
             opacity="1.00"
             id="g54">
            <g
               id="3.0 reklamy - \350erven\341 311">
              <g
                 stroke="rgb(255,0,0)"
                 id="g57">
                <g
                   fill="rgb(255,0,0)"
                   id="g59">
                  <path
                     d="M20.32,4.14 C19.14,2.99 17.72,4.73 18.75,5.70 L20.32,7.23  21.93,5.69  C22.94,4.68 21.42,2.99 20.32,4.14 "
                     id="path61" />
                </g>
              </g>
            </g>
          </g>
          <g
             opacity="1.00"
             id="g63" />
          <g
             opacity="1.00"
             id="g65" />
          <g
             opacity="1.00"
             id="g67">
            <g
               id="2.0 reklamy - \350ern\341 301">
              <g
                 stroke="rgb(0,0,0)"
                 id="g70">
                <g
                   fill="rgb(0,0,0)"
                   id="g72">
                  <path
                     d="M14.64,25.98 14.64,24.09  C16.10,24.09 17.28,22.89 17.28,21.43 C17.28,19.97 16.10,18.77 14.64,18.77 L14.64,16.88  C17.14,16.89 19.18,18.93 19.18,21.43 C19.18,23.94 17.14,25.96 14.64,25.98 L14.64,25.98  L14.64,25.98 M14.64,16.53 14.64,14.65  C16.10,14.64 17.28,13.45 17.28,11.99 C17.28,10.52 16.10,9.33 14.64,9.33 L14.64,7.45  C17.14,7.46 19.18,9.48 19.18,11.99 C19.18,14.49 17.14,16.53 14.64,16.53 L14.64,16.53  L14.64,16.53 M19.42,7.70 21.31,7.70  21.31,16.35  19.42,16.35  19.42,7.70  19.42,7.70  L19.42,7.70 M19.42,17.13 21.31,17.13  21.31,25.80  19.42,25.80  19.42,17.13  L19.42,17.13 M10.33,9.60 10.55,9.60  10.55,7.70  10.33,7.70  10.33,9.60  10.33,9.60  L10.33,9.60 M14.64,7.45 14.64,9.33  C14.64,9.33 14.64,9.33 14.64,9.33 C13.18,9.33 11.98,10.52 11.98,11.99 C11.98,13.45 13.18,14.65 14.64,14.65 C14.64,14.65 14.64,14.65 14.64,14.65 L14.64,16.53  C14.64,16.53 14.64,16.53 14.63,16.53 C12.63,16.53 10.91,15.23 10.33,13.42 L10.33,10.56  C10.91,8.75 12.63,7.45 14.63,7.45 C14.64,7.45 14.64,7.45 14.64,7.45 L14.64,7.45  L14.64,7.45 M14.64,16.88 14.64,18.77  C14.64,18.77 14.64,18.77 14.64,18.77 C13.18,18.77 11.98,19.97 11.98,21.43 C11.98,22.89 13.18,24.09 14.64,24.09 C14.64,24.09 14.64,24.09 14.64,24.09 L14.64,25.98  C14.64,25.98 14.64,25.98 14.63,25.98 C12.63,25.98 10.91,24.68 10.33,22.86 L10.33,20.00  C10.91,18.20 12.63,16.88 14.63,16.88 C14.64,16.88 14.64,16.88 14.64,16.88 L14.64,16.88  L14.64,16.88 M10.33,19.04 10.55,19.04  10.55,17.13  10.33,17.13  10.33,19.04  L10.33,19.04 M4.79,7.70 4.79,9.60  6.68,9.60  6.68,16.35  8.63,16.35  8.63,9.60  10.33,9.60  10.33,7.70  4.79,7.70  4.79,7.70  L4.79,7.70 M10.33,10.56 10.33,13.42  C10.17,12.96 10.10,12.50 10.10,11.99 C10.10,11.49 10.17,11.02 10.33,10.56 L10.33,10.56  L10.33,10.56 M10.33,17.13 10.33,19.04  8.63,19.04  8.63,25.80  6.68,25.80  6.68,19.04  4.79,19.04  4.79,17.13  10.33,17.13  10.33,17.13  L10.33,17.13 M10.33,20.00 C10.17,20.46 10.10,20.92 10.10,21.43 C10.10,21.94 10.17,22.42 10.33,22.86 L10.33,20.00  "
                     id="path74" />
                </g>
                <g
                   fill="rgb(0,0,0)"
                   id="g76">
                  <path
                     d="M11.71,0.04 23.40,0.04  23.40,28.36  11.71,28.36  11.71,28.05  23.09,28.05  23.09,0.35  11.71,0.35  11.71,0.04  L11.71,0.04 M0.03,0.04 11.71,0.04  11.71,0.35  0.34,0.35  0.34,28.05  11.71,28.05  11.71,28.36  0.03,28.36  0.03,0.04  "
                     id="path78" />
                </g>
                <g
                   fill="rgb(0,0,0)"
                   id="g80">
                  <path
                     d="M1.46,26.15 C1.88,26.15 2.22,26.48 2.22,26.89 C2.22,27.30 1.88,27.63 1.46,27.63 L1.46,27.48  C1.62,27.48 1.76,27.42 1.86,27.33 L1.72,27.33  1.59,27.13  C1.55,27.07 1.52,27.03 1.50,27.02 C1.48,27.01 1.47,26.99 1.46,26.98 L1.46,26.84  C1.54,26.84 1.59,26.84 1.61,26.83 C1.63,26.82 1.65,26.80 1.66,26.79 C1.68,26.76 1.68,26.75 1.68,26.72 C1.68,26.69 1.68,26.66 1.66,26.66 C1.65,26.63 1.61,26.63 1.59,26.62 C1.57,26.62 1.54,26.62 1.46,26.62 L1.46,26.47  1.52,26.47  C1.61,26.47 1.68,26.48 1.72,26.49 C1.75,26.51 1.78,26.53 1.81,26.58 C1.83,26.62 1.85,26.66 1.85,26.71 C1.85,26.78 1.82,26.84 1.79,26.87 C1.75,26.91 1.71,26.94 1.63,26.95 C1.67,26.97 1.70,26.99 1.72,27.02 C1.75,27.05 1.77,27.09 1.81,27.16 L1.90,27.30  C1.99,27.18 2.06,27.05 2.06,26.89 C2.06,26.56 1.79,26.30 1.46,26.30 L1.46,26.15  L1.46,26.15 M1.46,27.63 C1.06,27.63 0.72,27.30 0.71,26.89 C0.72,26.48 1.06,26.15 1.46,26.15 L1.46,26.30  C1.13,26.30 0.87,26.56 0.87,26.89 C0.87,27.21 1.13,27.48 1.46,27.48 L1.46,27.63  1.46,27.63  L1.46,27.63 M1.46,26.47 1.15,26.47  1.15,27.33  1.32,27.33  1.32,26.97  1.35,26.97  C1.39,26.97 1.42,26.98 1.44,26.98 C1.45,26.98 1.45,26.98 1.46,26.98 L1.46,26.84  C1.45,26.84 1.45,26.84 1.45,26.84 L1.32,26.84  1.32,26.62  1.45,26.62  C1.45,26.62 1.45,26.62 1.46,26.62 L1.46,26.47  "
                     id="path82" />
                </g>
              </g>
            </g>
          </g>
          <g
             opacity="1.00"
             id="g84" />
          <g
             opacity="1.00"
             id="g86" />
        </g>
      </g>
    </g>
  </g>
</svg>
