<?xml version="1.0" encoding="UTF-8" standalone="no"?>
<!-- Generator: OCAD Version 10.3.0 -->

<svg
   xmlns:dc="http://purl.org/dc/elements/1.1/"
   xmlns:cc="http://creativecommons.org/ns#"
   xmlns:rdf="http://www.w3.org/1999/02/22-rdf-syntax-ns#"
   xmlns:svg="http://www.w3.org/2000/svg"
   xmlns="http://www.w3.org/2000/svg"
   xmlns:sodipodi="http://sodipodi.sourceforge.net/DTD/sodipodi-0.dtd"
   xmlns:inkscape="http://www.inkscape.org/namespaces/inkscape"
   id="mainMap"
   width="6.1820cm"
   height="2.0880cm"
   viewBox="0 0 61.8200 20.8800"
   style="fill:none;stroke-width:0;fill-rule:evenodd"
   version="1.1"
   inkscape:version="0.48.5 r10040"
   sodipodi:docname="trimtex.svg">
  <metadata
     id="metadata81">
    <rdf:RDF>
      <cc:Work
         rdf:about="">
        <dc:format>image/svg+xml</dc:format>
        <dc:type
           rdf:resource="http://purl.org/dc/dcmitype/StillImage" />
      </cc:Work>
    </rdf:RDF>
  </metadata>
  <defs
     id="defs79" />
  <sodipodi:namedview
     pagecolor="#ffffff"
     bordercolor="#666666"
     borderopacity="1"
     objecttolerance="10"
     gridtolerance="10"
     guidetolerance="10"
     inkscape:pageopacity="0"
     inkscape:pageshadow="2"
     inkscape:window-width="1280"
     inkscape:window-height="972"
     id="namedview77"
     showgrid="false"
     inkscape:zoom="1.4426111"
     inkscape:cx="109.52363"
     inkscape:cy="36.992126"
     inkscape:window-x="-8"
     inkscape:window-y="22"
     inkscape:window-maximized="1"
     inkscape:current-layer="mainMapContent" />
  <desc
     id="desc3">Map</desc>
  <g
     id="scaleTransform"
     transform="scale(1.00000000)">
    <g
       id="mainMapContent">
      <!-- map fill color -->
      <g
         id="g8">
        <clipPath
           id="Clip"
           fill="none"
           stroke="none">
          <rect
             x="0"
             y="0"
             width="61.8200"
             height="20.8800"
             fill="none"
             id="rect11" />
        </clipPath>
        <g
           clip-path="url(#Clip)"
           id="g13">
          <g
             opacity="1.00"
             id="g15" />
          <g
             opacity="1.00"
             id="g17" />
          <g
             opacity="1.00"
             id="g19" />
          <g
             opacity="1.00"
             id="g21" />
          <g
             opacity="1.00"
             id="g23" />
          <g
             opacity="1.00"
             id="g25" />
          <g
             opacity="1.00"
             id="g27" />
          <g
             opacity="1.00"
             id="g29" />
          <g
             opacity="1.00"
             id="g31" />
          <g
             opacity="1.00"
             id="g33" />
          <g
             opacity="1.00"
             id="g35" />
          <g
             opacity="1.00"
             id="g37">
            <g
               id="4.1 reklamy - modr\341 Trimtex 333">
              <g
                 stroke="rgb(69,227,255)"
                 id="g40">
                <g
                   fill="rgb(69,227,255)"
                   id="g42">
                  <path
                     d="M48.98,17.34 48.98,17.01  54.36,17.01  54.36,17.34  48.98,17.34  48.98,17.34  L48.98,17.34 M45.42,18.43 45.42,18.16  C45.59,18.14 45.73,18.07 45.86,17.90 L45.86,17.42  C45.74,17.39 45.66,17.38 45.61,17.38 C45.53,17.38 45.47,17.39 45.42,17.40 L45.42,17.13  C45.47,17.11 45.52,17.11 45.59,17.11 C45.67,17.11 45.75,17.13 45.86,17.16 C45.86,16.84 45.71,16.67 45.42,16.66 L45.42,16.35  C45.69,16.37 45.90,16.43 46.02,16.55 C46.15,16.67 46.23,16.89 46.23,17.18 L46.23,17.90  C46.23,18.09 46.29,18.21 46.38,18.25 L46.38,18.45  C46.24,18.45 46.12,18.43 46.05,18.38 C45.98,18.33 45.93,18.26 45.89,18.17 C45.78,18.31 45.62,18.40 45.42,18.43 L45.42,18.43  L45.42,18.43 M47.95,16.74 C47.88,16.67 47.78,16.65 47.71,16.65 C47.60,16.65 47.48,16.72 47.38,16.84 C47.28,16.94 47.25,17.09 47.25,17.24 L47.25,18.40  46.89,18.40  46.89,16.39  47.25,16.39  47.25,16.72  C47.37,16.48 47.56,16.35 47.82,16.35 C47.89,16.35 47.98,16.37 48.10,16.39 L47.95,16.74  L47.95,16.74 M45.42,16.35 45.42,16.66  45.40,16.66  C45.17,16.66 45.00,16.74 44.87,16.86 L44.72,16.55  C44.79,16.50 44.89,16.45 45.01,16.42 C45.13,16.37 45.25,16.35 45.37,16.35 C45.38,16.35 45.40,16.35 45.42,16.35 L45.42,16.35  L45.42,16.35 M45.42,17.13 45.42,17.40  C45.32,17.42 45.23,17.46 45.15,17.52 C45.04,17.60 44.97,17.72 44.97,17.85 C44.97,18.07 45.10,18.16 45.37,18.16 C45.38,18.16 45.40,18.16 45.42,18.16 L45.42,18.43  C45.36,18.44 45.30,18.45 45.22,18.45 C45.06,18.45 44.92,18.39 44.79,18.26 C44.67,18.16 44.61,18.01 44.61,17.85 C44.61,17.63 44.71,17.47 44.89,17.32 C45.03,17.21 45.22,17.15 45.42,17.13 L45.42,17.13  L45.42,17.13 M43.36,18.45 43.36,18.14  C43.38,18.14 43.41,18.14 43.43,18.14 C43.64,18.14 43.81,18.09 43.96,17.96 L44.12,18.22  C44.06,18.28 43.98,18.32 43.85,18.37 C43.71,18.41 43.56,18.45 43.36,18.45 L43.36,18.45  L43.36,18.45 M43.36,17.44 43.36,17.17  43.94,17.17  C43.94,17.02 43.89,16.91 43.79,16.81 C43.70,16.72 43.56,16.65 43.38,16.65 L43.36,16.65  43.36,16.35  43.36,16.35  C43.66,16.35 43.89,16.44 44.06,16.59 C44.23,16.75 44.31,16.95 44.31,17.21 C44.31,17.29 44.29,17.37 44.28,17.44 L43.36,17.44  L43.36,17.44 M43.36,16.35 43.36,16.65  C43.20,16.65 43.08,16.72 42.98,16.81 C42.85,16.91 42.80,17.02 42.78,17.17 L43.36,17.17  43.36,17.44  42.78,17.44  C42.78,17.66 42.84,17.85 42.98,17.97 C43.08,18.08 43.20,18.14 43.36,18.14 L43.36,18.45  43.36,18.45  C43.09,18.45 42.87,18.37 42.70,18.18 C42.49,17.99 42.40,17.75 42.40,17.43 C42.40,17.09 42.49,16.82 42.70,16.63 C42.89,16.44 43.10,16.35 43.36,16.35 L43.36,16.35  L43.36,16.35 M33.17,18.44 33.17,18.14  33.17,18.14  C33.35,18.14 33.49,18.08 33.61,17.94 C33.70,17.80 33.75,17.61 33.75,17.38 C33.75,16.88 33.55,16.63 33.17,16.63 L33.17,16.63  33.17,16.34  33.17,16.34  C33.48,16.34 33.73,16.44 33.89,16.62 C34.07,16.80 34.15,17.06 34.15,17.38 C34.15,17.71 34.07,17.96 33.89,18.15 C33.72,18.33 33.47,18.44 33.17,18.44 L33.17,18.44  33.17,18.44  L33.17,18.44 M41.44,18.45 41.35,18.45  40.71,17.08  40.07,18.45  39.97,18.45  39.19,16.39  39.61,16.39  40.07,17.71  40.65,16.39  40.75,16.39  41.35,17.71  41.85,16.39  42.23,16.39  41.44,18.45  41.44,18.45  L41.44,18.45 M37.62,18.28 37.75,17.94  C37.97,18.08 38.14,18.14 38.27,18.14 C38.51,18.14 38.62,18.05 38.62,17.87 C38.62,17.73 38.51,17.61 38.29,17.52 C38.10,17.45 38.00,17.39 37.94,17.35 C37.86,17.31 37.81,17.27 37.76,17.21 C37.72,17.17 37.69,17.11 37.66,17.06 C37.65,17.00 37.64,16.94 37.63,16.88 C37.63,16.72 37.69,16.58 37.82,16.49 C37.96,16.41 38.12,16.35 38.33,16.35 C38.50,16.35 38.69,16.41 38.94,16.49 L38.82,16.82  C38.67,16.72 38.51,16.65 38.37,16.65 C38.27,16.65 38.19,16.66 38.12,16.72 C38.07,16.75 38.04,16.81 38.04,16.87 C38.04,16.99 38.11,17.09 38.27,17.16 L38.54,17.28  C38.72,17.35 38.84,17.44 38.92,17.52 C39.01,17.61 39.04,17.73 39.04,17.87 C39.04,18.05 38.97,18.18 38.82,18.28 C38.69,18.39 38.51,18.45 38.26,18.45 C38.03,18.45 37.81,18.39 37.62,18.28 L37.62,18.28  L37.62,18.28 M36.31,16.66 36.06,16.66  36.06,16.39  36.31,16.39  36.31,15.97  36.69,15.83  36.69,16.39  37.29,16.39  37.29,16.66  36.69,16.66  36.69,17.66  C36.69,17.85 36.73,17.96 36.79,18.04 C36.85,18.10 36.95,18.14 37.08,18.14 C37.17,18.14 37.29,18.12 37.39,18.08 L37.44,18.39  C37.29,18.43 37.11,18.45 36.93,18.45 C36.74,18.45 36.61,18.39 36.49,18.26 C36.37,18.15 36.31,17.99 36.31,17.82 L36.31,16.66  36.31,16.66  L36.31,16.66 M35.72,16.74 C35.65,16.67 35.56,16.65 35.48,16.65 C35.35,16.65 35.23,16.72 35.15,16.84 C35.05,16.94 35.01,17.09 35.01,17.24 L35.01,18.40  34.65,18.40  34.65,16.39  35.01,16.39  35.01,16.72  C35.13,16.48 35.34,16.35 35.59,16.35 C35.66,16.35 35.74,16.37 35.87,16.39 L35.72,16.74  L35.72,16.74 M33.17,16.34 33.17,16.63  C32.99,16.63 32.85,16.71 32.75,16.84 C32.65,16.96 32.60,17.15 32.60,17.38 C32.60,17.88 32.78,18.14 33.17,18.14 L33.17,18.44  C32.86,18.44 32.62,18.32 32.45,18.15 C32.27,17.95 32.19,17.71 32.19,17.38 C32.19,17.07 32.28,16.82 32.46,16.63 C32.64,16.44 32.88,16.34 33.17,16.34 L33.17,16.34  L33.17,16.34 M30.88,18.45 30.88,18.14  C31.25,18.08 31.43,17.82 31.43,17.39 C31.43,17.13 31.38,16.94 31.25,16.84 C31.18,16.74 31.05,16.67 30.88,16.66 L30.88,16.35  C31.18,16.37 31.42,16.44 31.57,16.62 C31.76,16.80 31.83,17.06 31.83,17.42 C31.83,17.71 31.76,17.95 31.57,18.15 C31.42,18.32 31.18,18.44 30.88,18.45 L30.88,18.45 M30.88,16.35 L30.88,16.66  C30.83,16.65 30.77,16.65 30.71,16.65 C30.67,16.65 30.61,16.66 30.52,16.72 C30.45,16.75 30.39,16.79 30.34,16.84 L30.34,18.00  C30.35,18.03 30.41,18.07 30.49,18.10 C30.56,18.14 30.64,18.14 30.71,18.14 C30.77,18.14 30.83,18.14 30.88,18.14 L30.88,18.45  C30.87,18.45 30.84,18.45 30.83,18.45 C30.74,18.45 30.64,18.43 30.53,18.40 C30.42,18.37 30.37,18.32 30.34,18.29 L30.34,19.19  29.96,19.19  29.96,16.39  30.34,16.39  30.34,16.55  C30.48,16.43 30.66,16.35 30.87,16.35 L30.88,16.35  30.88,16.35  L30.88,16.35 M22.18,18.45 22.18,18.15  22.18,18.15  C22.38,18.15 22.51,18.09 22.60,17.94 C22.71,17.81 22.76,17.63 22.76,17.40 C22.76,16.89 22.56,16.64 22.18,16.64 L22.18,16.64  22.18,16.35  22.18,16.35  C22.49,16.35 22.74,16.44 22.90,16.63 C23.09,16.81 23.17,17.07 23.17,17.40 C23.17,17.72 23.07,17.97 22.90,18.16 C22.73,18.36 22.48,18.45 22.18,18.45 L22.18,18.45  22.18,18.45  L22.18,18.45 M28.06,18.28 28.18,17.94  C28.40,18.08 28.57,18.14 28.72,18.14 C28.95,18.14 29.07,18.05 29.07,17.87 C29.07,17.73 28.95,17.61 28.73,17.52 C28.54,17.45 28.43,17.39 28.37,17.35 C28.30,17.31 28.24,17.27 28.21,17.21 C28.16,17.17 28.13,17.11 28.10,17.06 C28.08,17.00 28.07,16.94 28.07,16.88 C28.07,16.72 28.14,16.58 28.25,16.49 C28.39,16.41 28.57,16.35 28.78,16.35 C28.94,16.35 29.14,16.41 29.38,16.49 L29.26,16.82  C29.10,16.72 28.96,16.65 28.80,16.65 C28.72,16.65 28.64,16.66 28.57,16.72 C28.50,16.75 28.47,16.81 28.47,16.87 C28.47,16.99 28.56,17.09 28.72,17.16 L28.98,17.28  C29.16,17.35 29.29,17.44 29.36,17.52 C29.44,17.61 29.47,17.73 29.47,17.87 C29.47,18.05 29.41,18.18 29.26,18.28 C29.14,18.39 28.95,18.45 28.71,18.45 C28.47,18.45 28.25,18.39 28.06,18.28 L28.06,18.28  L28.06,18.28 M26.09,18.40 26.09,17.13  C26.09,16.81 25.95,16.65 25.64,16.65 C25.55,16.65 25.47,16.67 25.38,16.74 C25.30,16.79 25.25,16.85 25.21,16.92 L25.21,18.40  24.83,18.40  24.83,16.98  C24.83,16.87 24.79,16.80 24.71,16.74 C24.64,16.67 24.51,16.65 24.40,16.65 C24.32,16.65 24.22,16.67 24.14,16.74 C24.06,16.79 23.99,16.86 23.96,16.92 L23.96,18.40  23.56,18.40  23.56,16.39  23.82,16.39  23.96,16.63  C24.11,16.44 24.29,16.35 24.51,16.35 C24.83,16.35 25.04,16.44 25.16,16.63 C25.21,16.55 25.29,16.48 25.41,16.44 C25.51,16.38 25.64,16.35 25.77,16.35 C25.99,16.35 26.16,16.42 26.30,16.53 C26.42,16.66 26.48,16.84 26.48,17.06 L26.48,18.40  26.09,18.40  L26.09,18.40 M22.18,16.35 22.18,16.64  C22.02,16.64 21.87,16.72 21.76,16.85 C21.67,16.98 21.60,17.16 21.60,17.40 C21.60,17.90 21.80,18.15 22.18,18.15 L22.18,18.45  C21.87,18.45 21.63,18.36 21.46,18.16 C21.30,17.96 21.21,17.72 21.21,17.40 C21.21,17.09 21.30,16.84 21.47,16.63 C21.66,16.45 21.89,16.35 22.18,16.35 L22.18,16.35  L22.18,16.35 M19.87,16.66 19.64,16.66  19.64,16.39  19.87,16.39  19.87,15.97  20.25,15.83  20.25,16.39  20.86,16.39  20.86,16.66  20.25,16.66  20.25,17.66  C20.25,17.85 20.29,17.96 20.36,18.04 C20.42,18.10 20.51,18.14 20.66,18.14 C20.75,18.14 20.86,18.12 20.95,18.08 L21.02,18.39  C20.86,18.43 20.68,18.45 20.49,18.45 C20.32,18.45 20.17,18.39 20.05,18.26 C19.93,18.15 19.87,17.99 19.87,17.82 L19.87,16.66  19.87,16.66  L19.87,16.66 M17.94,18.28 18.08,17.94  C18.29,18.08 18.48,18.14 18.59,18.14 C18.84,18.14 18.95,18.05 18.95,17.87 C18.95,17.73 18.85,17.61 18.62,17.52 C18.44,17.45 18.32,17.39 18.24,17.35 C18.20,17.31 18.14,17.27 18.09,17.21 C18.05,17.17 18.01,17.11 18.00,17.06 C17.98,17.00 17.95,16.94 17.95,16.88 C17.95,16.72 18.02,16.58 18.16,16.49 C18.28,16.41 18.45,16.35 18.66,16.35 C18.82,16.35 19.02,16.41 19.25,16.49 L19.15,16.82  C19.01,16.72 18.85,16.65 18.70,16.65 C18.59,16.65 18.52,16.66 18.46,16.72 C18.41,16.75 18.37,16.81 18.37,16.87 C18.37,16.99 18.44,17.09 18.59,17.16 L18.88,17.28  C19.06,17.35 19.16,17.44 19.24,17.52 C19.32,17.61 19.36,17.73 19.36,17.87 C19.36,18.05 19.29,18.18 19.16,18.28 C19.02,18.39 18.84,18.45 18.58,18.45 C18.37,18.45 18.15,18.39 17.94,18.28 L17.94,18.28  L17.94,18.28 M16.11,16.39 16.11,17.66  C16.11,17.99 16.25,18.14 16.55,18.14 C16.68,18.14 16.78,18.11 16.89,18.04 C17.00,17.97 17.07,17.89 17.09,17.80 L17.09,16.39  17.48,16.39  17.48,18.40  17.09,18.40  17.09,18.14  C17.06,18.21 16.96,18.28 16.84,18.33 C16.71,18.40 16.58,18.45 16.46,18.45 C16.21,18.45 16.04,18.38 15.91,18.24 C15.78,18.12 15.72,17.94 15.72,17.71 L15.72,16.39  16.11,16.39  16.11,16.39  L16.11,16.39 M15.18,15.76 15.05,16.08  C14.91,15.98 14.71,15.93 14.44,15.93 C14.17,15.93 13.96,16.06 13.81,16.26 C13.66,16.46 13.56,16.73 13.56,17.06 C13.56,17.37 13.66,17.63 13.82,17.82 C13.96,18.01 14.18,18.11 14.44,18.11 C14.71,18.11 14.94,18.03 15.09,17.83 L15.31,18.14  C15.07,18.33 14.77,18.45 14.40,18.45 C14.00,18.45 13.70,18.32 13.47,18.07 C13.25,17.80 13.15,17.46 13.15,17.04 C13.15,16.63 13.26,16.29 13.49,16.00 C13.74,15.74 14.04,15.59 14.42,15.59 C14.75,15.59 15.00,15.65 15.18,15.76 L15.18,15.76  L15.18,15.76 M6.54,17.32 6.54,17.00  11.97,17.00  11.97,17.32  6.54,17.32  "
                     id="path44" />
                </g>
                <g
                   fill="rgb(69,227,255)"
                   id="g46">
                  <path
                     d="M30.04,13.62 30.04,10.88  30.52,8.07  33.14,8.07  32.27,13.62  30.04,13.62  30.04,13.62  L30.04,13.62 M30.04,9.15 30.49,8.07  30.04,8.07  30.04,9.15  30.04,9.15  L30.04,9.15 M39.27,8.07 38.36,13.62  35.64,13.62  36.59,8.07  39.27,8.07  39.27,8.07  L39.27,8.07 M48.39,8.07 48.22,9.16  45.11,9.16  44.80,11.24  48.60,11.24  48.19,13.62  41.70,13.62  42.62,8.07  48.39,8.07  48.39,8.07  L48.39,8.07 M55.76,8.07 57.74,13.62  54.72,13.62  53.87,10.55  51.94,13.62  49.10,13.62  52.84,8.07  55.76,8.07  L55.76,8.07 M6.17,8.07 5.25,13.62  2.71,13.62  3.61,8.07  6.17,8.07  6.17,8.07  L6.17,8.07 M30.04,8.07 30.04,9.15  28.14,13.62  26.42,13.62  25.80,8.07  30.04,8.07  30.04,8.07  L30.04,8.07 M30.04,10.88 29.58,13.62  30.04,13.62  30.04,10.88  30.04,10.88  L30.04,10.88 M8.69,13.62 9.63,8.07  16.60,8.07  C16.19,8.67 15.99,8.85 15.25,9.16 L16.43,13.62  13.54,13.62  12.58,9.68  12.05,9.68  11.39,13.62  8.69,13.62  8.69,13.62  L8.69,13.62 M21.29,8.07 20.33,13.62  17.66,13.62  18.62,8.07  21.29,8.07  21.29,8.07  L21.29,8.07 M25.79,8.07 24.85,13.62  22.48,13.62  23.41,8.07  25.79,8.07  "
                     id="path48" />
                </g>
              </g>
            </g>
          </g>
          <g
             opacity="1.00"
             id="g50" />
          <g
             opacity="1.00"
             id="g52" />
          <g
             opacity="1.00"
             id="g54" />
          <g
             opacity="1.00"
             id="g56">
            <g
               id="2.3 reklamy - \232ed\341 Trimtex 304">
              <g
                 stroke="rgb(153,153,153)"
                 id="g59">
                <g
                   fill="rgb(153,153,153)"
                   id="g61">
                  <path
                     d="M14.28,7.42 C14.82,7.36 15.09,7.08 15.19,6.50 C15.33,5.84 14.91,5.57 14.28,5.56 L14.28,3.09  15.04,3.09  C16.05,3.09 16.86,3.49 17.28,3.97 C17.83,4.59 17.99,5.06 18.02,6.00 C18.07,6.94 17.78,7.70 17.50,8.07 L14.28,8.07  14.28,7.42  14.28,7.42  L14.28,7.42 M22.17,8.05 19.47,8.05  20.35,3.09  23.05,3.09  22.17,8.05  22.17,8.05  L22.17,8.05 M29.22,8.07 24.36,8.07  25.16,3.09  28.79,3.09  29.22,8.07  29.22,8.07  L29.22,8.07 M34.08,8.07 29.26,8.07  31.31,3.09  34.92,3.09  34.08,8.07  34.08,8.07  L34.08,8.07 M40.19,8.07 37.46,8.07  37.87,5.56  35.80,5.56  36.25,3.09  43.02,3.09  42.63,5.56  40.58,5.56  40.19,8.07  40.19,8.07  L40.19,8.07 M49.26,8.07 43.57,8.07  44.38,3.09  50.78,3.09  50.41,5.54  46.63,5.54  46.41,6.93  49.48,6.93  49.26,8.07  49.26,8.07  L49.26,8.07 M56.68,8.07 53.78,8.07  52.00,3.09  55.03,3.09  55.69,5.56  57.20,3.09  60.01,3.09  56.68,8.07  L56.68,8.07 M13.35,7.42 14.16,7.42  C14.19,7.42 14.24,7.42 14.28,7.42 L14.28,8.07  10.52,8.07  11.30,3.09  14.28,3.09  14.28,5.56  14.26,5.56  13.67,5.56  13.35,7.42  13.35,7.42  L13.35,7.42 M3.22,3.09 10.05,3.09  9.63,5.54  7.54,5.54  7.14,8.03  4.50,8.07  4.93,5.56  2.80,5.56  3.22,3.09  "
                     id="path63" />
                </g>
              </g>
            </g>
          </g>
          <g
             opacity="1.00"
             id="g65" />
          <g
             opacity="1.00"
             id="g67" />
          <g
             opacity="1.00"
             id="g69" />
          <g
             opacity="1.00"
             id="g71" />
          <g
             opacity="1.00"
             id="g73" />
          <g
             opacity="1.00"
             id="g75" />
        </g>
      </g>
    </g>
  </g>
</svg>
