<?xml version="1.0" standalone="no"?>
<!-- Generator: OCAD Version 10.3.0 -->
<!DOCTYPE svg PUBLIC "-//W3C//DTD SVG 20010904//EN"
"http://www.w3.org/TR/2001/REC-SVG-20010904/DTD/svg10.dtd" [
<!ENTITY stR "stroke-linejoin:round;stroke-linecap:round">
<!ENTITY stB "stroke-linejoin:bevel">
]>
<svg id="mainMap" width="4.1520cm" height="3.1520cm" viewBox="0 0 41.5200 31.5200" style="fill:none;stroke-width:0;fill-rule:evenodd" xmlns:xlink="http://www.w3.org/1999/xlink" xmlns="http://www.w3.org/2000/svg" >
<desc>Map</desc>
<g id="scaleTransform" transform="scale(1.00000000)">
<g id="mainMapContent">
<!-- map fill color -->
<rect id="mapBg" x="-100%" y="-100%" width="200%" height="200%" fill="white" />
<g>
<clipPath id="Clip" fill="none" stroke="none">
<rect x="0" y="0" width="41.5200" height="31.5200" fill="none" />
</clipPath>
<g clip-path="url(#Clip)">
<g opacity="1.00">
</g>
<g opacity="1.00">
</g>
<g opacity="1.00">
</g>
<g opacity="1.00">
</g>
<g opacity="1.00">
</g>
<g opacity="1.00">
</g>
<g opacity="1.00">
</g>
<g opacity="1.00">
</g>
<g opacity="1.00">
</g>
<g opacity="1.00">
<g id="4.0 reklamy - modr\341 100% \216aket 336" >
<g stroke="rgb(0,127,255)">
<g fill="rgb(0,127,255)" >
<path 
d="M-0.07,31.45
-0.07,-0.01 
41.52,-0.01 
41.52,31.45 
-0.07,31.45 
" />
</g>
</g>
</g>
</g>
<g opacity="1.00">
</g>
<g opacity="1.00">
</g>
<g opacity="1.00">
</g>
<g opacity="1.00">
</g>
<g opacity="1.00">
</g>
<g opacity="1.00">
</g>
<g opacity="1.00">
</g>
<g opacity="1.00">
</g>
<g opacity="1.00">
</g>
<g opacity="1.00">
</g>
<g opacity="1.00">
<g id="1.0 reklamy - horn\355 b\355l\341 397" >
<g stroke="rgb(255,255,255)">
<g fill="rgb(255,255,255)" >
<path 
d="M19.83,12.40
23.41,10.58 
C23.23,11.14 23.13,11.75 23.13,12.37
C23.13,13.02 23.25,13.66 23.45,14.24
L19.83,12.40 
19.83,12.40 
L19.83,12.40
M22.52,6.01
26.36,7.22 
C25.82,7.48 25.34,7.83 24.88,8.28
C24.43,8.74 24.05,9.25 23.76,9.81
L22.52,6.01 
22.52,6.01 
L22.52,6.01
M29.04,3.36
30.88,6.88 
C30.32,6.71 29.71,6.61 29.07,6.61
C28.41,6.61 27.77,6.73 27.18,6.92
L29.04,3.36 
29.04,3.36 
L29.04,3.36
M35.54,6.01
31.68,7.22 
C32.23,7.48 32.73,7.83 33.18,8.28
C33.63,8.74 34.01,9.25 34.29,9.81
L35.54,6.01 
35.54,6.01 
L35.54,6.01
M38.23,12.40
34.66,10.58 
C34.84,11.14 34.93,11.75 34.93,12.37
C34.93,13.02 34.82,13.66 34.62,14.24
L38.23,12.40 
38.23,12.40 
L38.23,12.40
M35.55,18.80
34.32,15.03 
C34.04,15.54 33.68,16.04 33.23,16.48
C32.76,16.94 32.24,17.31 31.66,17.58
L35.55,18.80 
35.55,18.80 
L35.55,18.80
M29.04,21.45
30.88,17.93 
C30.32,18.11 29.71,18.21 29.07,18.21
C28.41,18.21 27.77,18.11 27.18,17.92
L29.04,21.45 
29.04,21.45 
L29.04,21.45
M22.52,18.80
23.74,15.03 
C24.03,15.56 24.38,16.04 24.82,16.48
C25.31,16.94 25.82,17.31 26.40,17.58
L22.52,18.80 
" />
</g>
<g fill="rgb(255,255,255)" >
<path 
d="M5.44,15.87
8.04,12.86 
C8.09,13.43 8.22,14.03 8.46,14.59
C8.72,15.19 9.07,15.74 9.48,16.20
L5.44,15.87 
5.44,15.87 
L5.44,15.87
M5.44,8.95
9.45,8.61 
C9.07,9.06 8.73,9.57 8.51,10.15
C8.23,10.74 8.10,11.38 8.05,12.00
L5.44,8.95 
5.44,8.95 
L5.44,8.95
M10.42,4.05
13.49,6.61 
C12.90,6.66 12.29,6.79 11.72,7.03
C11.11,7.29 10.56,7.62 10.07,8.03
L10.42,4.05 
10.42,4.05 
L10.42,4.05
M17.46,4.05
14.38,6.61 
C14.97,6.66 15.56,6.79 16.15,7.03
C16.76,7.29 17.32,7.62 17.78,8.03
L17.46,4.05 
17.46,4.05 
L17.46,4.05
M22.43,8.95
18.42,8.61 
C18.81,9.06 19.13,9.57 19.38,10.15
C19.62,10.74 19.78,11.38 19.81,12.00
L22.43,8.95 
22.43,8.95 
L22.43,8.95
M22.43,15.87
19.83,12.86 
C19.79,13.43 19.63,14.03 19.41,14.59
C19.14,15.19 18.80,15.74 18.39,16.20
L22.43,15.87 
22.43,15.87 
L22.43,15.87
M17.46,20.77
17.80,16.82 
C17.34,17.20 16.81,17.52 16.23,17.76
C15.62,18.01 14.99,18.14 14.36,18.19
L17.46,20.77 
17.46,20.77 
L17.46,20.77
M10.40,20.77
10.07,16.82 
C10.52,17.20 11.05,17.52 11.63,17.76
C12.24,18.01 12.89,18.14 13.51,18.19
L10.40,20.77 
" />
</g>
<g fill="rgb(255,255,255)" >
<path 
d="M13.92,21.34
13.92,20.72 
14.24,20.72 
13.94,19.42 
13.92,19.42 
13.92,19.43 
13.92,18.80 
14.38,18.80 
15.38,21.95 
14.59,21.95 
14.42,21.34 
13.92,21.34 
13.92,21.34 
L13.92,21.34
M20.10,20.18
20.09,20.18 
20.09,18.80 
19.38,18.80 
19.38,21.95 
20.09,21.95 
20.09,20.27 
20.10,20.27 
20.93,21.95 
21.83,21.95 
20.86,20.19 
21.75,18.80 
20.91,18.80 
20.10,20.18 
20.10,20.18 
L20.10,20.18
M27.11,21.95
27.11,21.34 
25.88,21.34 
25.88,20.67 
27.02,20.67 
27.02,20.06 
25.88,20.06 
25.88,19.42 
27.11,19.42 
27.11,18.80 
25.17,18.80 
25.17,21.95 
27.11,21.95 
27.11,21.95 
L27.11,21.95
M31.97,21.95
32.68,21.95 
32.68,19.42 
33.50,19.42 
33.50,18.80 
31.19,18.80 
31.19,19.42 
31.97,19.42 
31.97,21.95 
L31.97,21.95
M7.22,17.95
7.22,17.95 
7.63,18.57 
8.22,18.57 
8.65,17.95 
8.20,17.95 
7.92,18.28 
7.65,17.95 
7.22,17.95 
7.22,17.95 
L7.22,17.95
M13.92,18.80
13.92,19.43 
13.57,20.72 
13.92,20.72 
13.92,21.34 
13.39,21.34 
13.22,21.95 
12.50,21.95 
13.51,18.80 
13.92,18.80 
13.92,18.80 
L13.92,18.80
M9.07,21.95
9.07,21.34 
7.64,21.34 
8.89,19.58 
8.89,18.80 
6.94,18.80 
6.94,19.42 
8.22,19.42 
6.88,21.34 
6.88,21.95 
9.07,21.95 
" />
</g>
<g fill="rgb(255,255,255)" >
<path 
d="M6.70,23.46
33.50,23.46 
33.50,23.71 
6.70,23.71 
6.70,23.46 
" />
</g>
<g fill="rgb(255,255,255)" >
<path 
d="M21.57,27.31
21.57,26.99 
22.02,26.99 
21.57,25.69 
21.57,25.32 
21.76,25.32 
22.72,27.99 
22.37,27.99 
22.14,27.31 
21.57,27.31 
21.57,27.31 
L21.57,27.31
M25.57,25.85
25.00,25.85 
25.00,25.32 
26.72,25.32 
26.72,25.85 
26.15,25.85 
26.15,27.99 
25.57,27.99 
25.57,25.85 
25.57,25.85 
L25.57,25.85
M27.70,25.32
28.03,25.32 
28.03,27.99 
27.70,27.99 
27.70,25.32 
27.70,25.32 
L27.70,25.32
M30.28,25.73
C30.12,25.66 30.03,25.61 29.87,25.61
C29.69,25.61 29.47,25.69 29.47,25.97
C29.47,26.49 30.44,26.37 30.44,27.25
C30.44,27.81 30.06,28.04 29.62,28.04
C29.45,28.04 29.31,27.99 29.15,27.92
L29.19,27.57 
C29.29,27.62 29.49,27.69 29.65,27.69
C29.84,27.69 30.10,27.58 30.10,27.27
C30.10,26.67 29.13,26.82 29.13,26.00
C29.13,25.53 29.44,25.27 29.84,25.27
C30.00,25.27 30.18,25.31 30.33,25.38
L30.28,25.73 
30.28,25.73 
L30.28,25.73
M31.56,25.32
31.87,25.32 
31.87,26.50 
32.84,25.32 
33.29,25.32 
32.23,26.58 
33.36,27.99 
32.88,27.99 
31.87,26.69 
31.87,27.99 
31.56,27.99 
31.56,25.32 
L31.56,25.32
M21.57,25.32
21.57,25.69 
21.57,25.69 
21.13,26.99 
21.57,26.99 
21.57,27.31 
21.04,27.31 
20.79,27.99 
20.46,27.99 
21.42,25.32 
21.57,25.32 
21.57,25.32 
L21.57,25.32
M14.57,26.92
14.57,26.58 
C14.76,26.57 14.95,26.43 14.95,26.12
C14.95,25.83 14.76,25.70 14.57,25.66
L14.57,25.32 
C14.97,25.36 15.31,25.57 15.31,26.12
C15.31,26.69 14.95,26.90 14.57,26.92
L14.57,26.92 
L14.57,26.92
M16.96,26.88
16.08,25.32 
16.47,25.32 
17.15,26.52 
17.78,25.32 
18.16,25.32 
17.30,26.88 
17.30,27.99 
16.96,27.99 
16.96,26.88 
L16.96,26.88
M14.57,25.32
14.57,25.66 
C14.53,25.66 14.50,25.66 14.45,25.66
L14.18,25.66 
14.18,26.58 
14.50,26.58 
C14.53,26.58 14.54,26.58 14.57,26.58
L14.57,26.92 
C14.54,26.92 14.53,26.92 14.50,26.92
L14.18,26.92 
14.18,27.99 
13.84,27.99 
13.84,25.32 
14.44,25.32 
C14.50,25.32 14.53,25.32 14.57,25.32
L14.57,25.32 
L14.57,25.32
M11.76,27.31
11.76,26.99 
12.21,26.99 
11.76,25.69 
11.76,25.69 
11.76,25.32 
11.94,25.32 
12.89,27.99 
12.54,27.99 
12.31,27.31 
11.76,27.31 
L11.76,27.31
M6.88,25.32
7.84,25.32 
8.32,27.10 
8.32,27.10 
8.83,25.32 
9.74,25.32 
9.74,27.99 
9.15,27.99 
9.16,25.94 
9.15,25.94 
8.59,27.99 
8.02,27.99 
7.47,25.94 
7.46,25.94 
7.47,27.99 
6.88,27.99 
6.88,25.32 
6.88,25.32 
L6.88,25.32
M11.76,25.32
11.76,25.69 
11.31,26.99 
11.76,26.99 
11.76,27.31 
11.20,27.31 
10.97,27.99 
10.62,27.99 
11.60,25.32 
11.76,25.32 
" />
</g>
</g>
</g>
</g>
<g opacity="1.00">
</g>
</g>
</g>
</g>
</g>
</svg>
